<mxfile host="app.diagrams.net" modified="2022-02-14T08:21:42.420Z" agent="5.0 (Windows NT 10.0; Win64; x64) AppleWebKit/537.36 (KHTML, like Gecko) Chrome/98.0.4758.81 Safari/537.36" etag="syc45pX2SMIPztXUodkG" version="16.5.6" type="github">
  <diagram id="yQT4MkTp0zRMxbimm6UT" name="第 1 页">
    <mxGraphModel dx="1420" dy="608" grid="1" gridSize="10" guides="1" tooltips="1" connect="1" arrows="1" fold="1" page="1" pageScale="1" pageWidth="827" pageHeight="1169" math="0" shadow="0">
      <root>
        <mxCell id="0" />
        <mxCell id="1" parent="0" />
        <mxCell id="046RRQSVppgy1fABNuTt-1" value="&lt;h1&gt;HashMap源码解析&lt;/h1&gt;" style="text;html=1;align=center;verticalAlign=middle;resizable=0;points=[];autosize=1;strokeColor=none;fillColor=none;imageWidth=28;imageHeight=28;arcSize=12;" vertex="1" parent="1">
          <mxGeometry x="320" y="10" width="220" height="50" as="geometry" />
        </mxCell>
        <mxCell id="046RRQSVppgy1fABNuTt-2" value="&lt;pre style=&quot;background-color: rgb(255, 255, 255); font-family: &amp;quot;jetbrains mono&amp;quot;, monospace; font-size: 18px; line-height: 1;&quot;&gt;&lt;pre style=&quot;font-family: &amp;quot;jetbrains mono&amp;quot;, monospace; font-size: 18px;&quot;&gt;&lt;div style=&quot;font-size: 18px;&quot;&gt;&lt;font color=&quot;#8c8c8c&quot; style=&quot;font-size: 18px;&quot;&gt;&lt;span style=&quot;font-size: 18px;&quot;&gt;&lt;i style=&quot;font-size: 18px;&quot;&gt;// HashMap的默认容量，注：HashMap的容量必定是2的n次方&lt;/i&gt;&lt;/span&gt;&lt;/font&gt;&lt;/div&gt;&lt;span style=&quot;color: rgb(0, 51, 179); font-size: 18px;&quot;&gt;static final int &lt;/span&gt;&lt;span style=&quot;color: rgb(135, 16, 148); font-style: italic; font-size: 18px;&quot;&gt;DEFAULT_INITIAL_CAPACITY &lt;/span&gt;&lt;font color=&quot;#080808&quot; style=&quot;font-size: 18px;&quot;&gt;= &lt;/font&gt;&lt;span style=&quot;color: rgb(23, 80, 235); font-size: 18px;&quot;&gt;1 &lt;/span&gt;&lt;font color=&quot;#080808&quot; style=&quot;font-size: 18px;&quot;&gt;&amp;lt;&amp;lt; &lt;/font&gt;&lt;span style=&quot;color: rgb(23, 80, 235); font-size: 18px;&quot;&gt;4&lt;/span&gt;&lt;font color=&quot;#080808&quot; style=&quot;font-size: 18px;&quot;&gt;; &lt;/font&gt;&lt;span style=&quot;color: rgb(140, 140, 140); font-style: italic; font-size: 18px;&quot;&gt;// aka 16&lt;/span&gt;&lt;/pre&gt;&lt;pre style=&quot;font-family: &amp;quot;jetbrains mono&amp;quot;, monospace; font-size: 18px;&quot;&gt;&lt;pre style=&quot;color: rgb(8, 8, 8); font-family: &amp;quot;jetbrains mono&amp;quot;, monospace; font-size: 18px;&quot;&gt;&lt;i style=&quot;color: rgb(140, 140, 140); font-size: 18px;&quot;&gt;// HashMap的最大容量&lt;/i&gt;&lt;br style=&quot;font-size: 18px;&quot;&gt;&lt;/pre&gt;&lt;pre style=&quot;color: rgb(8, 8, 8); font-family: &amp;quot;jetbrains mono&amp;quot;, monospace; font-size: 18px;&quot;&gt;&lt;span style=&quot;color: rgb(0, 51, 179); font-size: 18px;&quot;&gt;static final int &lt;/span&gt;&lt;span style=&quot;color: rgb(135, 16, 148); font-style: italic; font-size: 18px;&quot;&gt;MAXIMUM_CAPACITY &lt;/span&gt;= &lt;span style=&quot;color: rgb(23, 80, 235); font-size: 18px;&quot;&gt;1 &lt;/span&gt;&amp;lt;&amp;lt; &lt;span style=&quot;color: rgb(23, 80, 235); font-size: 18px;&quot;&gt;30&lt;/span&gt;;&lt;/pre&gt;&lt;pre style=&quot;color: rgb(8, 8, 8); font-family: &amp;quot;jetbrains mono&amp;quot;, monospace; font-size: 18px;&quot;&gt;&lt;pre style=&quot;font-family: &amp;quot;jetbrains mono&amp;quot;, monospace; font-size: 18px;&quot;&gt;&lt;pre style=&quot;font-size: 18px; font-family: &amp;quot;jetbrains mono&amp;quot;, monospace;&quot;&gt;&lt;i style=&quot;color: rgb(140, 140, 140); font-size: 18px;&quot;&gt;// HashMap的默认的加载因子&lt;/i&gt;&lt;/pre&gt;&lt;/pre&gt;&lt;pre style=&quot;font-family: &amp;quot;jetbrains mono&amp;quot;, monospace; font-size: 18px;&quot;&gt;&lt;span style=&quot;color: rgb(0, 51, 179); font-size: 18px;&quot;&gt;static final float &lt;/span&gt;&lt;span style=&quot;color: rgb(135, 16, 148); font-style: italic; font-size: 18px;&quot;&gt;DEFAULT_LOAD_FACTOR &lt;/span&gt;= &lt;span style=&quot;color: rgb(23, 80, 235); font-size: 18px;&quot;&gt;0.75f&lt;/span&gt;;&lt;/pre&gt;&lt;pre style=&quot;font-family: &amp;quot;jetbrains mono&amp;quot;, monospace; font-size: 18px;&quot;&gt;&lt;pre style=&quot;font-size: 18px; font-family: &amp;quot;jetbrains mono&amp;quot;, monospace;&quot;&gt;&lt;i style=&quot;color: rgb(140, 140, 140); font-size: 18px;&quot;&gt;// HashMap的链表转为红黑树的阈值&lt;/i&gt;&lt;/pre&gt;&lt;/pre&gt;&lt;pre style=&quot;font-family: &amp;quot;jetbrains mono&amp;quot;, monospace; font-size: 18px;&quot;&gt;&lt;pre style=&quot;font-family: &amp;quot;jetbrains mono&amp;quot;, monospace; font-size: 18px;&quot;&gt;&lt;span style=&quot;color: rgb(0, 51, 179); font-size: 18px;&quot;&gt;static final int &lt;/span&gt;&lt;span style=&quot;color: rgb(135, 16, 148); font-style: italic; font-size: 18px;&quot;&gt;TREEIFY_THRESHOLD &lt;/span&gt;= &lt;span style=&quot;color: rgb(23, 80, 235); font-size: 18px;&quot;&gt;8&lt;/span&gt;;&lt;/pre&gt;&lt;pre style=&quot;font-family: &amp;quot;jetbrains mono&amp;quot;, monospace; font-size: 18px;&quot;&gt;&lt;pre style=&quot;font-size: 18px; font-family: &amp;quot;jetbrains mono&amp;quot;, monospace;&quot;&gt;&lt;i style=&quot;color: rgb(140, 140, 140); font-size: 18px;&quot;&gt;// HashMap的红黑树退化为链表的阈值&lt;/i&gt;&lt;/pre&gt;&lt;/pre&gt;&lt;pre style=&quot;font-family: &amp;quot;jetbrains mono&amp;quot;, monospace; font-size: 18px;&quot;&gt;&lt;span style=&quot;color: rgb(0, 51, 179); font-size: 18px;&quot;&gt;static final int &lt;/span&gt;&lt;span style=&quot;color: rgb(135, 16, 148); font-style: italic; font-size: 18px;&quot;&gt;UNTREEIFY_THRESHOLD &lt;/span&gt;= &lt;span style=&quot;color: rgb(23, 80, 235); font-size: 18px;&quot;&gt;6&lt;/span&gt;;&lt;/pre&gt;&lt;pre style=&quot;font-family: &amp;quot;jetbrains mono&amp;quot;, monospace; font-size: 18px;&quot;&gt;&lt;pre style=&quot;font-size: 18px; font-family: &amp;quot;jetbrains mono&amp;quot;, monospace;&quot;&gt;&lt;i style=&quot;color: rgb(140, 140, 140); font-size: 18px;&quot;&gt;// HashMap数组中元素的个数必须大于等于64才能进行树化&lt;/i&gt;&lt;/pre&gt;&lt;/pre&gt;&lt;pre style=&quot;font-family: &amp;quot;jetbrains mono&amp;quot;, monospace; font-size: 18px;&quot;&gt;&lt;span style=&quot;color: rgb(0, 51, 179); font-size: 18px;&quot;&gt;static final int &lt;/span&gt;&lt;span style=&quot;color: rgb(135, 16, 148); font-style: italic; font-size: 18px;&quot;&gt;MIN_TREEIFY_CAPACITY &lt;/span&gt;= &lt;span style=&quot;color: rgb(23, 80, 235); font-size: 18px;&quot;&gt;64&lt;/span&gt;;&lt;/pre&gt;&lt;/pre&gt;&lt;/pre&gt;&lt;/pre&gt;&lt;/pre&gt;" style="text;html=1;align=left;verticalAlign=middle;resizable=0;points=[];autosize=1;strokeColor=none;fillColor=none;spacing=2;fontSize=18;" vertex="1" parent="1">
          <mxGeometry y="80" width="570" height="440" as="geometry" />
        </mxCell>
        <mxCell id="046RRQSVppgy1fABNuTt-3" value="&lt;pre style=&quot;background-color: rgb(255, 255, 255); color: rgb(8, 8, 8); font-family: &amp;quot;jetbrains mono&amp;quot;, monospace; font-size: 18px;&quot;&gt;&lt;pre style=&quot;font-size: 18px; font-family: &amp;quot;jetbrains mono&amp;quot;, monospace;&quot;&gt;&lt;i style=&quot;color: rgb(140, 140, 140); font-size: 18px;&quot;&gt;// 这个方法用于找打大于等于initialCapacity的最小2次幂&lt;/i&gt;&lt;/pre&gt;&lt;/pre&gt;&lt;pre style=&quot;background-color: rgb(255, 255, 255); color: rgb(8, 8, 8); font-family: &amp;quot;jetbrains mono&amp;quot;, monospace; font-size: 18px;&quot;&gt;&lt;span style=&quot;color: rgb(0, 51, 179); font-size: 18px;&quot;&gt;static final int &lt;/span&gt;&lt;span style=&quot;color: rgb(0, 98, 122); font-size: 18px;&quot;&gt;tableSizeFor&lt;/span&gt;(&lt;span style=&quot;color: rgb(0, 51, 179); font-size: 18px;&quot;&gt;int &lt;/span&gt;cap) {&lt;/pre&gt;&lt;pre style=&quot;background-color: rgb(255, 255, 255); color: rgb(8, 8, 8); font-family: &amp;quot;jetbrains mono&amp;quot;, monospace; font-size: 18px;&quot;&gt;&lt;pre style=&quot;font-family: &amp;quot;jetbrains mono&amp;quot;, monospace; font-size: 18px;&quot;&gt;&lt;span style=&quot;font-size: 18px;&quot;&gt;    // 减一是为了防止cap已经是2的幂，如果已经是2的次幂且没有进行减一操作，&lt;/span&gt;&lt;/pre&gt;&lt;pre style=&quot;font-family: &amp;quot;jetbrains mono&amp;quot;, monospace; font-size: 18px;&quot;&gt;&lt;span style=&quot;font-size: 18px;&quot;&gt;    在执行完下面的右移操作后，cap会是原来的2倍&lt;/span&gt;    &lt;/pre&gt;&lt;pre style=&quot;font-family: &amp;quot;jetbrains mono&amp;quot;, monospace; font-size: 18px;&quot;&gt;&lt;span style=&quot;color: rgb(0, 51, 179); font-size: 18px;&quot;&gt;    int &lt;/span&gt;n = cap - &lt;span style=&quot;color: rgb(23, 80, 235); font-size: 18px;&quot;&gt;1&lt;/span&gt;;&lt;/pre&gt;&lt;pre style=&quot;font-family: &amp;quot;jetbrains mono&amp;quot;, monospace; font-size: 18px;&quot;&gt;&lt;pre style=&quot;font-size: 18px; font-family: &amp;quot;jetbrains mono&amp;quot;, monospace;&quot;&gt;&lt;i style=&quot;color: rgb(140, 140, 140); font-size: 18px;&quot;&gt;    // 第一次右移，由于n的二进制表示中总会有一个bit为1，通过无符号右移，最高位的1右移了一位&lt;/i&gt;&lt;/pre&gt;&lt;pre style=&quot;font-size: 18px; font-family: &amp;quot;jetbrains mono&amp;quot;, monospace;&quot;&gt;&lt;i style=&quot;color: rgb(140, 140, 140); font-size: 18px;&quot;&gt;    再和原来的n做或操作，就会使得n的二进制表示变为与最高位的1紧邻的右边的一位也是1&lt;/i&gt;&lt;/pre&gt;    n |= n &amp;gt;&amp;gt;&amp;gt; &lt;span style=&quot;color: rgb(23, 80, 235); font-size: 18px;&quot;&gt;1&lt;/span&gt;;&lt;/pre&gt;&lt;pre style=&quot;font-family: &amp;quot;jetbrains mono&amp;quot;, monospace; font-size: 18px;&quot;&gt;&lt;pre style=&quot;font-size: 18px; font-family: &amp;quot;jetbrains mono&amp;quot;, monospace;&quot;&gt;&lt;pre style=&quot;font-size: 18px; font-family: &amp;quot;jetbrains mono&amp;quot;, monospace;&quot;&gt;&lt;i style=&quot;color: rgb(140, 140, 140); font-size: 18px;&quot;&gt;    // 第二次右移，这时n已经经过了第一次右移，假设n为000011xxxxx，通过无符号右移两位，会将最高&lt;/i&gt;&lt;/pre&gt;&lt;pre style=&quot;font-size: 18px; font-family: &amp;quot;jetbrains mono&amp;quot;, monospace;&quot;&gt;&lt;i style=&quot;color: rgb(140, 140, 140); font-size: 18px;&quot;&gt;    位相邻的两个1右移两位，&lt;/i&gt;&lt;i style=&quot;font-size: 18px; color: rgb(140, 140, 140);&quot;&gt;再和原来的n做或操作，这样n的二进制表示中高位就会有4个相邻的1&lt;/i&gt;&lt;/pre&gt;&lt;/pre&gt;    n |= n &amp;gt;&amp;gt;&amp;gt; &lt;span style=&quot;color: rgb(23, 80, 235); font-size: 18px;&quot;&gt;2&lt;/span&gt;;&lt;/pre&gt;&lt;pre style=&quot;font-family: &amp;quot;jetbrains mono&amp;quot;, monospace; font-size: 18px;&quot;&gt;&lt;pre style=&quot;font-size: 18px; font-family: &amp;quot;jetbrains mono&amp;quot;, monospace;&quot;&gt;&lt;i style=&quot;color: rgb(140, 140, 140); font-size: 18px;&quot;&gt;    // 第三次右移，同理，n的二进制表示中高位会有8个相邻的1&lt;/i&gt;&lt;/pre&gt;    n |= n &amp;gt;&amp;gt;&amp;gt; &lt;span style=&quot;color: rgb(23, 80, 235); font-size: 18px;&quot;&gt;4&lt;/span&gt;;&lt;/pre&gt;&lt;pre style=&quot;font-family: &amp;quot;jetbrains mono&amp;quot;, monospace; font-size: 18px;&quot;&gt;&lt;pre style=&quot;font-size: 18px; font-family: &amp;quot;jetbrains mono&amp;quot;, monospace;&quot;&gt;&lt;i style=&quot;color: rgb(140, 140, 140); font-size: 18px;&quot;&gt;    // 第四次右移，同理，n的二进制表示中高位会有16个相邻的1&lt;/i&gt;&lt;/pre&gt;    n |= n &amp;gt;&amp;gt;&amp;gt; &lt;span style=&quot;color: rgb(23, 80, 235); font-size: 18px;&quot;&gt;8&lt;/span&gt;;&lt;/pre&gt;&lt;pre style=&quot;font-family: &amp;quot;jetbrains mono&amp;quot;, monospace; font-size: 18px;&quot;&gt;&lt;pre style=&quot;font-size: 18px; font-family: &amp;quot;jetbrains mono&amp;quot;, monospace;&quot;&gt;&lt;i style=&quot;color: rgb(140, 140, 140); font-size: 18px;&quot;&gt;    // 第五次右移，同理，n的二进制表示中高位会有32个相邻的1，注：这时最多也就是32个1，已经大于&lt;/i&gt;&lt;/pre&gt;&lt;pre style=&quot;font-size: 18px; font-family: &amp;quot;jetbrains mono&amp;quot;, monospace;&quot;&gt;&lt;i style=&quot;color: rgb(140, 140, 140); font-size: 18px;&quot;&gt;    MAXIMUM_CAPACITY，所以取值&lt;/i&gt;&lt;i style=&quot;font-size: 18px; color: rgb(140, 140, 140);&quot;&gt;MAXIMUM_CAPACITY&lt;/i&gt;&lt;/pre&gt;    n |= n &amp;gt;&amp;gt;&amp;gt; &lt;span style=&quot;color: rgb(23, 80, 235); font-size: 18px;&quot;&gt;16&lt;/span&gt;;&lt;br style=&quot;font-size: 18px;&quot;&gt;    &lt;span style=&quot;color: rgb(0, 51, 179); font-size: 18px;&quot;&gt;return &lt;/span&gt;(n &amp;lt; &lt;span style=&quot;color: rgb(23, 80, 235); font-size: 18px;&quot;&gt;0&lt;/span&gt;) ? &lt;span style=&quot;color: rgb(23, 80, 235); font-size: 18px;&quot;&gt;1 &lt;/span&gt;: (n &amp;gt;= &lt;span style=&quot;color: rgb(135, 16, 148); font-style: italic; font-size: 18px;&quot;&gt;MAXIMUM_CAPACITY&lt;/span&gt;) ? &lt;span style=&quot;color: rgb(135, 16, 148); font-style: italic; font-size: 18px;&quot;&gt;MAXIMUM_CAPACITY &lt;/span&gt;: n + &lt;span style=&quot;color: rgb(23, 80, 235); font-size: 18px;&quot;&gt;1&lt;/span&gt;;&lt;br style=&quot;font-size: 18px;&quot;&gt;}&lt;/pre&gt;&lt;/pre&gt;" style="text;html=1;align=left;verticalAlign=middle;resizable=0;points=[];autosize=1;strokeColor=none;fillColor=none;fontSize=18;" vertex="1" parent="1">
          <mxGeometry y="545" width="860" height="790" as="geometry" />
        </mxCell>
        <mxCell id="046RRQSVppgy1fABNuTt-4" value="" style="shape=image;verticalLabelPosition=bottom;labelBackgroundColor=default;verticalAlign=top;aspect=fixed;imageAspect=0;image=data:image/png,iVBORw0KGgoAAAANSUhEUgAAAcwAAAIICAYAAADjSt65AAAAAXNSR0IArs4c6QAAIABJREFUeF7snQVUVVkbhp9LNygGKCAoJnZid3dhd+vY3c44Y3f36Njd7Ri/3YmKioSgdF/qxvnXpWVALghjzLlrsRZwd757n/2c79slEQRBQPyICogKiAqICogKiAp8UQGJCEyxh4gKiAqICogKiApkrIAIzIw1EkOICogKiAqICogKIAJT7ASiAqICogKiAqICaiggAlMNkcQgogKiAqICogKiAiIwxT4gKiAqICogKiAqoIYCIjDVEEkMIiogKiAqICogKiACU+wDogKiAqICogKiAmooIAJTDZHEIKICogKiAqICogIiMMU+ICogKiAqICogKqCGAiIw1RBJDCIqICogKiAqICogAlPsA6ICogKiAqICogJqKCACUw2RxCCiAqICogKiAqICIjBzvA8ICIoonhyYS/3uC7BtP4FjOxdia6iRlLPq/PsY3ycsnzKOVYdv4BOlR9nGPVm05DcalcqDpkSS46UUMxAVEBUQFRAV+LICIjBztIcoiXC7x4YlC9hy6QkBbzywSgOYIe+vM6prD46F2uPUtCqWBlKe3zrPHR9rVh7aS5ey+XK0lGLiogKiAqICogIZKyACM2ONsh5CiOLy0GoMvFeCPxZ2ZmtLJwJap7YwBS6vak+72d6svHKKnmXzo62hJOT9DQa3b8vd0qtx3tUTI9HIzHo7ZHNM1X14vjFK7nwIJywi+rPUUzZTZpsso/A/Q9oqsTKqZ+rmSi986v9nJt2Mwqb1fUZxEsudUbjMpK2nJaFcIVPMjXWzuReLyWVFge8cmAJRge/ZvXw2S/48jUewjDzFajNm7kIGNy2NkY4GKGW4XNvH778t5PTd98SiiVGB0gyY/DvjetQlj4Em4S+P0aRtLz5W2sGyOreYt2QXroExGBaszNilaxjWuDiGWml0Y0FBRKA/YbHKdLWVaBmRN68JaUWHGJ7vPY52q06U0HpOc9PyfGqVCpjKQOZUs2RDwVm4HZmOvkZ8OQRZOOsnd2TsWimnfa7TKJcGyN3oW6Qwpyut4MOR0ehlpcXFOF+lQLhMyW83vDh75RVRhoYodXWS0stoAE8NvC8B8EtpJX6nbvy00spsWVOKpoqrbt6pAfm1cVOmp24Z0tIrrXKlruOXwmT08pI6T3XLmjpPQakkKiSURmUtGNqiJMYGyf3tqzqyGDlLCnzXwFSEPmNmp7Zs9yxAr/7dKZlPC5er+1mx15kBq46xaHB1JB57aVxrGBGVujC4Q11yacfgducQy/98Qu91B1jauwaRb0/RuE0PHoSXoW3zenRq14A8msGc27KAJcd8+PXYdaa2tPsn9OQ+rGxZl4XPw9MVV9NuGLeuzsRaOwP9o56mDczIuzS1qE3UiI1cmdc3eb5SGcvZZaPoNmUPY+75MKeiAch9WNy3N/eKDmf37HaIj06W+nyWI0UpBMaccOGMbwz+pYuj0I9/ZUmEQMpBMrP/yyid1N+rk5cqTuJMeUpQpfW/lOVVN+2M4qhT5szUW1VudcqWsq7ZXW918len3mmlk54WSrkcf7cP5JX6ML5zecxN9LPch8WIX6fAdwxMOe92jKDUgL/ovewya0Y4oqcBsUEP6Fe/Ex6l+7J94ywKBF5i+4kPVG7dnip25kgQUEa7MqJUMf5uuIJXm0cS++40jVr34FlQcfbcuUorW4O4cOEvt1Gy/GAKd17Awe0TyK+T6r1bkBPs9YFgmcoJl85HyxRra3O00zBQP4uRDjCFwBOUzdONEvO2s39KJzQSF/gIcu5snEyb0ctocyyQzc1zIxGURIaHIdfUx9hQN9Oura/rKmLsg65hzNpxB9cW9RG0tZP0zykoZWXgTw+SaaWV3f/LKUAn6vsl0KtT7+x4UVBXs4zKo246SeEEgQA3DxpZyGhfu6j4MH4jBb5fYCpC+GtIB/rveczymx/4pYJRmoBQrTAN9XXH1c2b4OBAAkOlKIQojk4byI1K8/E4PBmFazwwXfVH8uD271glmmaRz2ibvxIvHHtz/MBGSufSyrlmSAeYSr+DOOTvR4UFO9g1qcNnwHywZRotRy6m+X5ftrXNl2Qt5FwhxZS/pMD8y+9Z7RFDQNmS2W7pZHYwz2hAzuh7dQfsrFpL6lpiGb1sZPR96nyys96ZbZPMaKpuvVKGi42MpGDQOwa1dEBbS1N8WL+BAt8vMGW+zOvagTnnvNj29A097dOa9BaQvjvG0AGzOfdORvkq5SiY2wgdLTmPDu3Au/7nwHSzXo7zmf7kSuxrMe8YWrgkx4q05+Sh3VTJl5Ff9StaKD0LM/QCVczbUnD2No7O6JoCmDKur51I+3Fr6Ho+kNX1TUWL8ivkz46o8869YUWoDqH2tklu2Ixcijk1oKc/OAso3l8l/NIZYnyD0TC2wqBWF0wqlUQ1PR5fHgGJ1IuIy/uJePkGhUwHnSKO5GrUDv08RiQ6OeLCxoYQde84wXduIY/WQMvCgVyNu2NikzsuXHw5BISAJ/idOYz0gy+CVi6Mq7Ulf01HtLQ103VZJ8FNKSXif+v5cN0dk5YjKVSxeKo4AkLwCz6eOUSQx0cEiTGmldtgU7sWunpayW0RG0rw/eN43b5JTLQEXQsHCjTqQf5CuePq/llbKWMIf7yfl2duYlSlM6UaN0RbMz5QZl3Nme0DWQWrMjoac/83DGheEgPdHByrsuNh+UnT+H6BKfdnaY/2TDnlysZHbvQvnsYSF2UAG2pbMNKzJnuO76VDufxI4p72UH6rmJuNRVIBs8Ainp8fgnkiMKNd6GNTmkulOnHi4F9UypuqEyoC2DWiNxtehKXb/Dp2Pdnz51AsMjJO05vDjH5Jd9syvO6+jvtLB6eYw4zm4O9D6TfnIgtfv2dEMXGV3Ld+Buedc2FVqC4hXwCmOpZVZlytmbNyBITXK/DsN4FYwRSdInYoP71AHqGB8bg7WHcpFw85qQf+v3bC98pDNHIVRls/lJiPQWhX6EfRhavRzxU/R6YCYdhf3XFdux+FdkH0LbSI9v6AxKwUhRddIH9pC5AIKD0P8aJbN8LleuhaF0Yj4g1RgQLGvY5TcWQzVBxKCaGUgCHaj08b+/B893kEpSEFpp+kYvt6KeZeBZTep7ndoxMBURroFyiMVrQr4QEKTDvvpMHELgnTIQK+u3pyZ/VeYrQKYFJAG6nXByQmxamy6BJFylomQ1OQ43d0DNdWbiBSKsHCaQmNx45CN2Fe5UvATM+CzVw7JeuhDqAT+5QKmLn83zBQBOY3Gwq+X2AqI7k0owtNll5myn5n5ra1jXvwUIRz7/hx3mtb0qCmOYOtKuDccASnd62kmKmKhAKxXidoXLodLg3m43kk2SXrIm/H5Yd/UtY4vnvLfc5T1bolimajObJ3MUWMkg8TiAugCOLItPEc+hCTfgPlac6KZb3Il1VgEsXm7sUY/6YVL26uxUY3vgyKSF9+61+fBXdq8OT1FkqKS2K/2UOSmHEiMMMSgJnRYJeTg+s/0xYg5AE+g5og1WpAgXkbMbYzRwhxIfCPrvg/UlJwzRVylchN9OUpuP/2F0a/HMG6Q3U0NRXIHqzm/dQ5aHY9RLH+jdCQCAgfdvCy90i0Wiyh2NghaGspUbod5+3oPkQ5TKTsnGloK7z48FsHPO7IKbrsOAUq2CKJDcRv00Be77qBzfInFKleMA7U/4CKEIn3b3V572xCwR5N8f59LmbTTlKpfb1kqzHGl/eLnXh2zocyS05TtKo9GsoIPu4Yyv0t57Cd/5gKda3A+y8u9foFrWYLqTN+OLpaSuTuJ7k1uidhJcbT9NcZ6KusUSEG//WNuHYmEpvOrfFd+wfanZbQdOwodLQl6XoOsvoilJ0vR4roaMxEYH7TceD7BSYCoQ/XUabyKPJ0ns7BTdMpYqqFz/2dNG4+FM1a0zmxsweryhRhh2VXzhzaShUrfaL9nrNw2FD+/N89gstM5ePl39BImMO852nEtG1nmN6pLNpCFLc2jqbRL1toNv0su+Y0xTDBJZMjLZKehQk4n/6D9j2WUmTiAXZPakhuLRnPD82i48BNlJ53mgPDq8ev4FVKuX/+HL5m5Whe3R5xFiNHWirdRFXAXB2qSyIw0xsM07OmsnPQ/UfeggLZtXl4zJiD/qBbWPeulmBRCQgvF+PSdy4mQ3dj1acBQRPt+BTSHYeNy9HW1oh308YG47uwCd7XC1Pq+D6M9GIIX1KGV9fyUXTxEfKUzJ9gdSoIP9SJF6t9KLn/AqZhV3Ce0IXoaseoOrUpWhrxlqnS8zD3+/ZGs+o8Kvw+Gl2teBh9Zl0KYfj/uQLteoPIk+8J1xo6YTzlJJVTAFPhdYP7Y5sSVGI3zX9th3ZC+oqP5/nfkO5EW4+nwYrxRK4uz+XLZjguOoadg0VcPhooCDjqxIUV3tTZcx6bgqZIBCmf1k4ltu4obOz8ONeoLpIO8cBUWZhptVHqF6PM/p1dbnmVhWkiAvPffehT5fYdA1NV0hgerexC8xkXCDe2oay1Hu9fuxCjVZbV1y7Rq7QBHru7UXnQCbSLOlK3uAkvHj3GrMsmhktm03f+O6p3cmLMkMYs+aU/z3S6Ukl2Abl1OXLHenP73nNkZs049vAg9fJn/5yA3O8mvdsP556vFJRRvHf7iKaBEZb586GjqUPVHlNYP60XRnIf1o/rx/S/riLRz0cevTA8A5WUaTOaw5tnYWuasEpJ3If5TR+WRGBG2NsmDMjJxVF3EUdG82NpDa5qxVFGIf1zOF4bD5Bnhx/5Sxomwyn6EW5NqiBvPJciY1vg1a4SsS3WUmLMEDQSJvdUllfIXyNxXXMMq/2eFLDxwaNzKQLNW1Ni8S6McyWvCo59sZnngyZguuIVVrJ9OE+ahskKfxyqGifrEuvK6y5V8TdpSIWVezAzi3fBpK5L0t/Ss1xp4ITJlJNUaV8vKR3ps23cGj4c4/me1KidLzm+zJMnA+vhFlGE2us28HFEedyMm1B36T7y5o4vq+on8tU2LvQfQ76lL6hdw+Zz13DUbU7VrwMJwNRP5ZJNacWn93tKn1RO9gFV2vLoaEzFOcxvOgZ858AEQRGD8/UTnLn6hMBoAVPL4jRu34HKNsZxnV9QRHLnxG7OPVAdWqCLfZXGdGruiPLTI3buPoF3pAmtWtkzZUBf3G3XcGGBFVdOX+ZDiBwTixK06N6F8vn1cmRBjSLMhXUrduEljU2jkTWwrdaMPm3qYKAlQRHlx+2zJ7j22JUwhS7WparSqmVDCuVKsX1EEcSGIU6sVXTkwZ/DEGc1/91nRwXMNaG6qICpjrWYFiCy638pB/A4OCjCCVndj0+7HlHwhAu5CiQDTiL34GNHW0KLT6DYhPq4tuqIzqBt2A9MXmQmEeREHJnMm8XLMV8VROEy7rxu5kh06f6UXLQaA8PkxTuyd8dwHtQBxrhgr7eN59N3YHPQHVs7nWQgKfzwHOzAu8gylF92hjyW8c9Y4l7Kf+iXAEyVhVk1hYUZfmcB10Yup/DOt5QpYZIMZEUgrhOq88jVgOpLNuI2tAFhxXpSf+k6zAzjfS+qPGLcTnJ5QFuEkc60bh+/ujnJOo+6zckEYDYfOwq9NID5JW+Bun0gu0Cqcskai8D8dx/6H8vCzA5tBKISXLLudut4ebIHpqmmKrMjl38rjWvbJrLSpwaHp7XPEcj/W/X4EfOZnwqYmZmfShk2OxaI/AOY8lCClvfg0343Cp17imme+NWjceBQ+uDT1ZKAAqMpOd6Rt+0HYjBiO0X6doxbJBcXTpATeXIGrxcsxGyeL0Uru/KiWX0UFYZTatES9PTjXbeqH5nbWV4OboG87zPsTbfwYs5xipx4i02BeC9NXDhlMN4ji/ParyTll50ln7Vq7/MXDnmQnuVygoWZEpih12dwbewOSh58RQk7o2RgKsPwnFqV2y+0cZy3AtdRrYl2GEiDpSsw0Y9XWJVfrOdFrgxoQnTvx3ToVf7zMkTd5nj9OnEu2RZfcMlm1ur/R9sktkOKgxey0gdUwDQSgflNh47v3sL8enV+ImAKkWyd+gt6bWbQo0bhr5dGTCFTCqiAuTZUF2kql+y3BGdS3oowglf24eOeF9icekkuixTwkn/Au7MNQUXGU3J8bd627obe0G3YD+gSt40pLg2VhXl0Kq8WL8V8WQBFy7nxomlNYssOwmHxSgwMUgDz3QmeD26L8Msriupv49nMPdgdfo9toWQLE0UAnkNL8SbcgYrLzpK/wOenIv3D0pae5VIDJ0ynnKRagktWVa6wW3O5OmodRfe4ULqYSQoLNhjXiY7cf6tHjUXrcB3WhIgSvWm4dC2mhslljXE7zaWBrVAMe0G7Tg5JC4/igJUATJVLtmUKYKbVnt+yjRO1UgHTUARmpp7Z7A4sAjO7FRXT+2kVUAFzXQbAzIrlkJZr7x9AScNK+cxiU0YRtnUonptOYLHnI/mL6idbmNFPcW1Wkdj6cyg+tjlubasjb7ceh5EDkGgkAFMZS/CuUbxZcwCrXd7Y2H3CtUNpAi06UHrxdozNkvc7xjhv48mgURgvfo2tYg9PJ8/FfP0nHMrHHy4S9xPrxstulfExrEfllfvJnXAoSLpWpvQsFxOA6ZjCJSt9solrI8aRe6k7NR3zJFuYsg88GVyXN6GFqLtmI17DK+Fh3pKGS3aRN0Veka93cLb/CMwXONOwTqF/uGSPJViYWQFmZsD6Res6nSP/UvcBFTD1RWB+0/HlPwFMQakgKioKpUQPQ33tpI3Z31R5MfMfTgEVMNcnADO9ua2vdcdlFD/dQVpQEHNuBm9/X4jJhDfYtrdPPhnKYx3POk3ApP9WCg9ugc9QCz7pTaLSijloaia4ZOVhfFreivfHdCl38QKm+lEEz7DF+VVZSi85jHnh+IMzVD8R53vzYM4THA7dIFfIOZ5O6I6szUNqDyuXPD/od5ob3bsgcZhItSWzUC2o+aJrU3qWCwnArJ4ATJUWCo+/uTmyGaH1r9NurGNy+oFXuTSgMxFmfWi66TfC59pz6UVxGi4+io29WZJLNvhSX47PfECdA9cpap3rHy7ZowlzmK0TtpVkxwtPRm2Y1e9Vq2T1RGB+03HjPwDMb6qvmPlPpMCCBGBGpnNwQUqLIKuDYlYskUQQ4XeJ94M6EJO/P0Xm/YGBuQFEfSJotRNuZ3yxWXwFyypWRJzqx+ul9yi45BQFKqr2NyuRvTvJm4l9iKm2lUpTOsXteVa6/M69wavJNXALxbu3QktDQBnwiHcTGuJrOBTHpX+gK3/Hm5kd8HhpT+Ut28mngpI8goD9Y7i/9iBW0+5TrlXx+D3UKRfcpP5depbzDZwwm3KSGilcskR94MUf7Xh2Izf1tu3FWnVetDIG/+NTubp8KxajblO3kwPCm3kcGbwCi/6bqNWzLdoaAorAx9yf0IB3+oPouGQ+xoYpFkKp8o+6zZEEYLb5Bi7ZjPpI6pcj1SpZEZjfdkARgflt9Rdz/4EUUAFzQ6guKmBmdrBLzyLNjFsvQ+tHGU303zN4N3cTGsXqY1zCFrn3A8IeOGPYZRv2g9uho6MRd4ydx6yu+LobYFaxEro6YUhf3iBaoxolFm4ld6Ilpgzj07IOvDvvjnG5WhjklhD97iYhHhKK/HoE25ql0EBO9MMNPBg9BrltA/KULo4k7A0BDx+iXf1Xqk0ZjmHCgqHULkYC/8Z562FilCCRueFx/CI6FVtQoLAVSIzI33E8tkXMiXr+F1dHDibKsg6WZUqiGeWG78P7SMqNp/HsiZjqa4IyjLcrOnH3rCvm5Wpjai4h4u1NfNwFKs05SvlaDvFbaEIf8WDTFiIVqn0an3h3/DiSwo7YlSuPpqYu+er0plz1Cmqvgs6wTVK50tVt77TCqYCpI1qY33TEEIH5TeXPwcwFAaUiFqlU5YrWwtDIEK3EAzUzna2AoJARHhGJhq4xhnrxWwwEpQypNBKlliHG+poIchnR0dHEylX3h0rQ1tVDT1cHzSznm+mC5mgEFTA3JgAzs5ZgeoDN7ICbUTqq72XPd/Nh1TxC33qjZVGRfAMWYdW48ufzd+Fv8Nk8Be+L15DJjDCq0YfCwyZhapl8yUGcURgTQOCx+bzf9ReRkVrol2qJ/ahFWBTNnQQVVR0UPpdxWTQN76cuCAa2WHWbQ6nOrdBJOEs2Letb4b6c831/5fMruBOb0ITCv1+kWq34c2WFgJs8WjyZ9w9fotC2pJDTTKp064SBXvIRW5KYQD6cWMCDv7YTGqmFSckWVBq1iCLFzJO2syh9DrK36yCkafYUPQr1X0vb3h3TtYa/BngZtV1GaauAqS0CM0ef8YwSF4GZkUI/5PcC0f6v+GvlPOauPkR03jocuX2G2nkzOr8vvcoK+N9cT9U2k2m4/hUbnaziThkKfXmStu37oj/hAQfbRLFn3XK27DuDa0A0ilgZNpVbMHzKDAY1Lf1TnEqkAuamUF2iEizMrEAzoziprbC0FgSps0joH9acGoeKq5NX6kE/NfAzGvS/NPebkTbfst5p1SurXoaM2ia9PqACppYIzG86IovA/Kby50TmSgIf7qNPr+m81DDBwMcLX7NKXwdMZSyXVo6l84xH7HW/QbO88RvDHx+eT4f++1nofB3FtgEMnXuSulP/ZFbnsujL/dg4bQDbn9iw49FF2ltmFdY5oVHW0lx86R0bArSIKhrvks3KAJ/Wwpfs2tiuLvBSDv5fsnDTAkLqOquTZ2Yg+sWFQTl4gXRG8Mvo+6+po7owlqm2lYS40qtxcfR0fvznKWtP4beN9R0DU0Ae4cMrt0DMC9hhqAzGxz+YWIUEbX0TLAsWxEQ/3jWYEx+lQkZogA++gSHIFBJ0DM2wLFgAY92EszcFgdjIUHx8fAmLjFVdmIS2nhH5LC3JpbrcWSIglwby1v0Terltya0dxiffIGTKhPJbF8RENwfKL8Ry54+B9L1kwubNwznUsx17Am3/AUxBGcMHlzdIDQtS3Cb3F+/aVEYHsnhEM/7w6I/nhWGYxY2ySvbObsLQ8zV4fboH0+qW42D+eXhcGJd0G8yne/vo0LEPAW0v8Gx1XfRzqrFyogOkkeaRxx+ZcfUDobWrJm34T2+wyw6YqjuQphzMU/6e1rFt6Q386riGM4Ll16Sd0QtIRmlnpt7ZfZxdRmXLLpjKw0MwjvSiT7OE+dh/qd+L2SQr8F0DM/T6NMzqr6BV72nkiXhIUKySCB9XHn9Q0G7QLP6Y3BXLhFM9PmtURRAX/trNy1DVzH7aH4uSTWjXuBR6aZ76I+PRoUXMXLqbR95RGGgqiJKYUrN5f+b89gulzLWJDnzHht8msvHQbWKNzDEgCr8QCdU6DmHxnF8okU+fkDurKd5sPPnrTMfR8CHugbHIwn1446OgTsfRzJvdHzvj7D5CXUGQqxtRBQpTUPMDY2o3ZncawFREvaZ70ZJcrb0Vz739v3jMXpTfcwY3rI90/CUO9S0fD1dFAJNqF+dRy60c7mNE2zJNkc25wY3R1ZNeYuRBzxjYrj2H3OvxwGULJX5wYkZEyRi+6Sa3C5cgxjI/qv1J6bkYswrSrIIjK4BWN6/M1FFdOKTOO6OyZOXlQd2yqGMlZ6V86eWfUd3TyktLHs3rx4/o26QoZQrnFRn2jRT4joEJ0rszMXL8HYPCjdi2ZyMtS1sgkfvzV5cqjH9dnJ1HjtGxovk/pYt5RW/7suz1SV/V8h3Wc37PQHKnwavY99upXHoEhk4z2b9oMCZaMp7tHE/dccfo8+t+1k1rybvDA6nX7STd9l1kbqNCaKLE79Y86rXZSvOdF9jSrRLhj9ZRtOFYgrRLMm/TdoY0KoZEEcb5WZ1x2vKeaVsuMrurQ/xNJDnxifVIF5hKWQCHV6/Fs1BbRncsz5ccPL6P11Kz/nbm3zpN51L54kqq9DtIefvp9Nt/lEHlAmhfth5BE69xf3KdJGtVGe7CiHbt2X7fkGNvbtM0w0tDc0KE7E0zKDya8dvv8TRvQYIK2YBO8kHfGQ2q6VkiWYFddrh2MyqP6vvExyMz8Pmasqlj6Wakc1ZeVtTR4pu0kyCgCPXj7r1nDG5ZipqlCyQdmJ+9PVtMTR0Fvm9g3puFUbV5NBi4hP1rR5NHR9VllXza1YwCw71Yte8YI1sUU6ee6ocRIrk8tg7N9khZeeBvhtYtEHfQgRD5hvm//IqsZjdG92qBxP8Fj11jKVutPCYSOTEyBfIod4ZXLs29Dkd4tawdUY/WU7ThGEzLDeT4yTWUSLiHU+b2J8ULD6XkmJXsXTQEk4RDn9UvpJohvwBMNVNQrb3n9jxH2p6uyI0TqylmrjryXYH7poZUWGHAwaP7qFsgjCltK7P6U2uuXlyOY0EjNCRK3l/dRpe+Y3gWaMXuF8/oVCjh1hX1M/8uQwaFRXP2rhuvPAIJj5R9l2UUC/VzKKA6utDW0oSW1QtjXzD+QAbx8+0U+P6B6biQ7jOPsmV2CxK9r6FnO2DW+QVL9xxlXBuH7FVP5sXMurVZE2DJrotXaFEoxW0hKXJSxkZw/9xudhy8im+ElOhYOcq4m1UuI+m5j7cbnYhJAKZdy42c2dGPXImv69IHtMpfFbeOs7i8YRb503IrZ0etsgOYMg8mlyvFg3rzObRiJLlULy2yTyysbs9ei+Ec2bcQOwM59/bMot3wlRiVa0qzGqXQj/Dk/vNX+L/7yNvw3Ox/+Zh21j8HMLOjacQ0RAVEBX48Bb5/YFZfRM85p9g8oxF6Cb6esHMdMe30nKW7jzKubRrAFATkslgUQvoNoqGphZam5j+PyYtxZWjl+hyWF2Xf3+domHADw2cpCUoe7R5Ks95biS7VklF9mlG8YG60lKFsmzAUl7b7eJcCmEW7HObsutYYJfqbol/Q3aoMtxtP4daW37FMuI4oLg95IHsWzefwQ7cv9iYt/bwMmreSRjZfuOTrq4EpEPtuC0UcJtNh5QWZFUvZAAAgAElEQVSWDKmMtkRA5nkUB3snSk66wL65DeIX8wixuJ5fx4hJS7jxJpw8DnWZ8cck3q4ay+qbhlx0v0zNXD/wNTE/3rMtllhUQFQgmxX4OYEZ68r4Bs04+jH9RT9lWs9nx7IumKWew5R9ZG6Dmiz5lI+/zl+lTZHEQ6wFFHI5SjTQUrxnaPHiHCs8glvHllHEJP5mCFmEC30cSnCj2efAtGu5gTM7+idZmEL4bZrkq4lvlzlcWj+DfCktTHkQh1at5aKL1xebWlPPEKeJC6hn9QWr7WuBKcTydGUXHOc6s/7yA/qUM4m71eLN7gmU7rONX//nwZSa8edzpvWJ+XSXXu06cEE5gpe3ppHWu0c292cxOVEBUQFRgRxT4OcEpjKSNw+fEPCF6SVD88KUKmbBP6YPhSiuT6xLva1BLNx5jnEt7Yk7qCbmPbNbd+d1pe6sGFeJHtZ1kQ5ayt/LRmEUl4gS38sTKd90Gdr99vJuU5ckl6xx6T4cPbWB0qbxdI58vhy7slOpPmEdO+f3wzinVv18JTCFGC/mtmvJao8aXH+wjhIGEgRZEJtH9mDYfkPuex6gorEGSpmUq/tXccq3Kr+Pa4hBAkFfnllGh+4zKLryJUd72+bc4qYcezzEhEUFRAVEBZIV+DmB+ZUtHOuxh9rlBxJUfSB7VozDQlfOy0NzaDn5BH1+38/qcaWZW6UY6/WcOLvzd+yMNQhwPsHI4Zvwl73G3WY6zw4Nw8R9H6WbjCVIsyjj5i1jZOtyEO3D7gk9mHZRytydl5jUxj7pYOqvLHZcdNVxdcH+foRFyUDmza+de3I82IoNR7dTNbcm2nrG5M2XGy1FAHsXL8O9cEcmd62c5irZKLcLtGrdncDmp7m7uFrc1pNY/xcM69aCk1bb8NjeCP24u4el7JjdleELHjJiz3GGO+ZDGfycaX16cEGnNw9vrqawOH2ZHc0rpiEqICrwDRUQgZmm+DKen1zD7EVbuPwyGGN9UOjmp2GHwUyfMoDi5lq8Pb+c4RNW8CjMiELm+hhYlKLnpN8xuzmB4XMvUqh+J34fUYaBvSaRt/pk6pk94K7LR0IC/AmV5KftwKnMHteJggbZO6+nCHNhcr/e/Hn1Xdxq1rDQcOQCGJmYoaMBto7d2LF7JSV138btw7xWZxsee/qluQ/T5dQK2vRcTK+rb5le3iDO9frp8RE6Nx9GlUOvWVYrwR0rCIS63Wbx3F/ZdfoOUokeihhNSjfuzKQZk2hVruA37OJi1qICogKiAtmjwHcNTGVMKN5+YRiY5CW3iV7SAh1lVADegTLMzPNgrB8/f5jdH0EpRxoWQmh4FEokaOnoY5o7F/ra8Sf9qA4jDwsOIiwqFiSa6BubkdtEH3lUGAFBYSg1ddH1OkiZJmMp2vUwxxfVJiYBXpo6BuQyz4WeVsKpQdlY+DgLMyAAaYw8zVRVeefJmxttZFzfOJ3p7ypzeWkX0lIxRhpKYFAkZgUsMEi4n0keE0GAfxhGFpYYpXQlq04+igojOCSCWIUSiaZ2HKRNDHVRLY0XP6ICogKiAj+6Al8HzEDgC4cD/OjifF35BSJdDtFh+DKsmyxm1aRa39XRcAIKLu+Yx1WTVsxtX+HrqirGFhUQFRAVyIwCquUchYEfbKrm64DpAjzJjEr/pbACMV7X+XXVYfJVHsRwp9LfVd8QUBIZHo6mvhF6Wtl9PN9/qZ3FuooKiApkWgEVKBsDRpmO+U0jfB0wv2nRv/fMBcITDi4o1u0oZ9e0xDB7pyu/dwHE8okKiAqICvxUCojA/KmaU6yMqICogKiAqEBOKSACM6eUFdMVFRAVEBUQFfipFBCB+VM1p1gZUQFRAVEBUYGcUkAEZk4pK6b70yugFARcw2S89glHGhWLoFDG1Tmrm2gyEy8zYbNapszkkZmwiR0jK3EyWxd181A3XOpOndV4KdNJnYbq71zGehQvYEweox9sGelP/tSLwPzJG1isXs4oECiDKZfdefvQFT9jE6KMjRA0kld1pRwE0/r9S99nNW5KmGSURmrwpLxDMq3v0gJVynsv04KgOt9nVM60gKROWVNrkVE+qvDprclLqx5ZSf9L/SD1d7KQUITgIBwK52VShzKYGIrgzJknOXOpisDMnF5i6P+4AoIgcNc3isknX+MhleNTuSwKfb3PBtu0LkFOPSCnFyYlDL50mXLigJ1yMM/J37/HsqSnacr/J+qZqE1KKKbUOi3d00rn39Rd5bEIdPXAKPAjo1uWoIyd+X/86fv21ReB+e3bQCzBD6TAxxiBvruf8MjYnDBbK0iwKtMafNUFmLrh1BusBZRu14j8+ywyvxAkRgXRq+mEUcUScSdlxZdTAKk3kVcOEvXqDUq5NtqFHTFu2AZdc6MU4VSHB4cSdf844XfvoIjWQNOiFCaNumJknTvp5C1VekLAU4LPHSXygy9om2FYpS3mNaqiqR2/x/eLwFVKiby+EZ+b7hg1H4FlheJxcZJhJ6AMdsbv3BHCPD4iSIwxrtQKi1o10dHTSnKBS2JDCXtwAt87t4mNlqBjUYr8DbthbhNf1s90VsYgfXIA13O3MajUEftGDdDUlCTlqZ7WyWVML/zXtq1EEIgMCkH2+iW/OpWhkIXJD/S0/HxFFYH587WpWKMcVKD5UVde+IbjV6lsnAs2PSvla/6fEi7qDMTJYQQEl1X49J+ATGGMVhE7hE8vUEi1MBx3i/xO5eJv3pF6EDzXicDLD9AwtUXLIIzYj8FoVexHoQWr0M2VfKVdxM6eeK3dj0LLAl0LbWK9PyDJVRqrhecwL20BEgHB8zBvu3dHKtNBx7owGuFviQ4RMOx1jFIjmsXlma4e0X74b+rHm93nEBQG5Jt+klLt66WAm4Dw8QxPenYmWCpBr4AdGtGuRAYKmDj9RdXxTnG34KigHbC7N09X7yVW0wIjS20ivb3QMCtBmYUXsCljmQx4QU7gsXHcX7meqAjI67SEmmNHoa2d/cBUp/2+BNW47wSBCL9AYp8+ZNP4hujpaOVgDxeT/pICIjDF/iEqoKYCD/yi6LviKu9bNUChG39xtzqu1dRuwfT+/jqrRkAS8pCAwY2J1qxH3j82Y1DYHCHkNaG/dyP4sZJ8a69iUjwXsVem4v3rdvRHHMGyYw00NRXI76/kw7Tf0Oh2GLt+DZGoQOj1F+97/4JGs8XYjhuKtpYShdsxPEb1IbbMZIrNnoq20gufXzvifSeWQktPkLeiLRqxgQRuHMD73TcpsOIpNo4FUlijKSw9IRLfuXX58NyIfD2a4ffH75hMO4lD+3pJLSKJ8ePDEifenPlIsSVnsKlmj4YyAr/tQ3ix9TwFFzymVB0rBO9d3O49DM0mC6kyYQQ6cWU9zqPRvZGWmkCtOdPRU1mjQgxBGxpz71QElp1bE7huHtqdllBr7Ch0Eu76+5qXnYzipoZjZizQiNev6FLCkAYVrZGI5zOr+dRmbzARmNmrp5jaT6zAypsfWPo8CN8q5VK4C+MrnNFAmRNhPhtsBQXya/P4OGMOegNvkr+PY4Jlp0RwXox7v98xHLqb/H0aEjbJFv+gbhTetALthMsEiA0icEFTfG8Uwf74XvT1YohcWpb3V/NSaPERzErmT6inAumhTrxb40vhfecxCruC68QuxFQ5SplpzdDSiLf2FJ6HcO7bB41q8yk5dxQ6CQf1f6aTEEbQtuVo1htErvxPedDQCcMp8cBMrJvS6wYvxjYjtPhOav/WPil95cdz3B/Sg1ibCTiuGEf06grc/tuUCouOUdDBIqE9FAQf6cyNlR+puvc8lgVMkQhS/NdOJrb2aAoU8ed6o7rQYQm1swjMzAAvrRelz13PyX0prf4SGxaOQ7gbA1qWRltTPDbsWww1IjC/hepinj+kAvPOubAqRJfQorafWZcpLc30rM6UoMiR8MooIrePwG/Dfsy2+2FeyjAZ5NGP8G5SFUXj37Aa2wLfdpWQtViL3ZghSDQS3JBCDGF/jcRrzTHy7fckn40vnzqXJNi8NYUX7cIod/J9NrIXm3kzcALGK19hIdvH28nTMFruT9Gqxsl5xrri2qUqIaYNKbliD0Zm8XON6QJGepZ7DZwwmnKS0gkWpips9LNtPB4+DIP5H6hYO1+y7jJPXg+sh1dEESqt24D/iPJ8MG5C1aX7yJ1bO8nyj3q1jRv9x5Bn6Qsq1bD5bHGWJOo2V+rXiQNmnRTATImijH7P6RellPkL0VEU8nvLoBal0NcV3bLfYhARgfktVBfz/CEViANmqC5h9vHAzGiwzIr1keV0FeGEr+6H/65H5DvhgmkB7WQ4yT3w62hLePGJ2E6ox4dWHdEZtA3rgV2Trl6TCHIij0zGffFyzFYFYV3GnffNHIl16E/hxavRM9RMqq/s3VFcB3WEsS7Y6P7Jm+nbsTzoTkE7nWRNFH58GuzAh8iylFh2htyW8S7s9F4WSAXMRFBI7yzgwcjlWP31lmIl4xe8xOmuCOTDhOo4uxpQYclGvIY2IKJYT6otWYeJUfxCI1W4WLeT3B7QFmGkMw3al/zcM5AGMNVts+wOp067C9HRWPu/YWDzkhjo5sy1hj/kg/kvFloE5r8otpjVj62ACpirE4Cp7oCpzkCYOkx6K0pThvtH/vJQQlf0IGDfeyzPPcM4T7wFEgcXpQ8BXS0JLjAau/GOeLYfiN6I7Vj37fgZMKNOzsBtwUJM5vliU9mVt83qo6wwnCKLlqCnH18qVXpyt7O4Dm6BvO8zbE234DLnODYn3mKRAOm4simD8RtZnPd+JSmx7Czm1vEXkKerh/QsdxMszLIpXLLh12fwYOx2Ch98TWE7o2TgKcP4OLUqT15oU37eCjxGtSbWYSCOS1dglKKsMs+L3BnQhJjej2nSq/w/gHk5wcKsm2BhZvQSlF75U9ZNnTZXt/+kDKcCppUIzG86iPy0wHxzeT1tW81nqPN7RtuJ7ovkXiaglEn54HyNmb8MZ/dNOYtfv2dc8WQL4Jv2yO8480RgRiRYmOlaS6k2wWdmX2bKNDM1eCvCCFvZB789L7A89RITi5QW5gf8OtsQWmQ8RcbXxr11N3SHbaNQ/y5Ji0c0BDnSo1NxW7wE02WBFCrnxtumNZGVHYT94pXoGyRfdi5/d4K3g9ui/OUVdvpbeT1zL1aH31OwULyFGQcMRQAfh5bCPdwBB5WFWUA/fViqwkvPcjsBmOVTLPqR3prLvVHrKLTHhWLFTJLS11AE4znRkWdv9ai4aC0ew5oSVbIP1ZeswTjhWqB4C/MMtwa2RDnsOY06lY6Ln+TmjLrN3wnArDd2FLr/wqKf9F6O0utLKfuACpgFRWB+0xFCBGaOyi+gFEh6i08/K0G1cjzu/T2jxW+qjfPqhEsvr9jQDxxaM4+Fq3YTbmaJ95sI5ovAVKsXqIC5JlSXcHvbDN2x2WllqGPVSJRRRGwZyqfNJ8iz5yPmReO3hsQBLPopH5pVRFZ/DnZjm+PVtjqK9uux/2VA0hwmyljCd43Cbc0BLHZ5Y2n3Ec8OZQi17EDRRdsxNEu2WGOdt/F60CgMF7+moGIPryfPJdf6T9iXj7/cMA5IsW64dq+Mv0FdSq88gGmuFPsl07I0pWe51cAJ4yknKZfCwox+son7w8dhutyditXyJNdJ5sWrIXVwDylE1TUb+TS8Eh/NW1Fj6U5yJcyXxlX99Q6u9R9BrgXOVK9T6PN2i7rNxfp1kHRYQlaBqa6lqE4bZtRnVMAsIAJTrWc1pwKJwMwpZVXpyv3Y0Ls/72oNZ2KfJuQ3TMfSVUo5v2wu24KK8eu4HhTPo5v0Jp26eC6Xd7H0yHv6TZmIo1Xifjn1K+Fz7xBO3eZQb+VRyr1dwcDxx5j5SrQw1VFQBcy12QDMrO+zTLDe0lo8IyiQnZuBx9yFGE18Q8H29klwEDzW86bTeAz7bcVqSAsCh1rgrz+JUsvnJG3WRx6G//JWeB3TocSFixgZRBE23Za3r8tSdMlhchU2TbIQI8/34cWcR9gfuolZyDleje+OvO0jKg0rmwwkvzM86u4EDhMpt2RWnPWWkUs2NTBVOsk8/ubxL80Ib3idRmMc42CsSkcIvMatAZ2INOtN7U1ziZhrz+0XxXFccpQCRcyS8gq91Je/Zz6gyv7r2NrkShOYqkU/DbK4SlYdEH6p3plx5aqAaSkCU51HNcfCfMfAFAi5NoVcDVfTbcJaSkSc5+Ldl/j5BxGiY8uImQsZ3bUGpglulNQKfeaStRXwcXnBa5/QdIWU6OWnStWSGKSxWjva8zJt23Xioc1alte5z55j1/H0CyYkWpe6vWawYGoXbNKKqAzn73nDmbH/Jp6x5rTqPoAOjWtSsWwx8hqlcIEKMTw7uJyxS3fi8imaKq370rN9EyqXK4V1HqPPLNRPT04xc+qvXHjwDut6vejfrS01q5SncMHc6MTtSv/yJ8LPC88wCaWKWHJ27Rh6jDrMjNTAVPixokJ+pitacerYHuoXjV/9+F//zE+wMKUJFmbqwTL13//2cXKC3yW8BnVAln8AVvN/xyC3AULUJ8JWO/HhjC8FFl0hT1Urok715f3SB+Rfeop8FQqhIVEif3cKj0m9iamyFYepndCUgPL1XJ4PWYvJoC3YdWuJpoaAMvAxnhMaEGgwhHJL/0BH7orbzPZ8elWU0lt2kNvKDOQRhBwYy4s1B8g/7T7FWxWPSy8tvZIeN+lZbiZYmBUSLMy4KJEfeDOvHS43clP1z71Y2pqjoYwh8MQ07i7bQt6Rt6jauTTCmz+4MHgVeQdsolKPNmhpCCgCn/BiYn089AbSZMkCjAzjF8okWd5Rt7mQ4JJVATNDqKux0Csn+4AyOhoLEZjfdBj6joEJEXdmYlx9HnlLNGLM5FG0diyKhtSdrcO78GdoNfYc3U/zkvFvvl8Epk0Eu4Z2YuShh+kD06Ijt59uoXgaZxzHel+jXfuOXHAvSM9+QxjcvT7m2pFcXj+TsetvMGK/M4s6WhO/Ni/VRynjk+sL7t36mwPbN/P3awVFy1alRfe+9GpXj4KmCfM+gpzQT648uHuDE3u3s+ucK7blq1C/jRP9e3WgZP4Ea1JQIg3y5sXj+1w4tpvN+29haFuKWg1a029IXxwLm6V7iPRnJROU6QNTGcaFOaM4KCvH+DFDKZE/fv7pv/5RAXNdqC6qOcyvdcWlHljTmq9MnUd61kjS/5VRxFyazoc/tqBRrCEGJe1Qet8n4v5z9DpvodCQDmjraKAMeMynmV0J8DTGtFIltHXDiXrxP2IkVbBbsBUz1VFyqgIqQ/Ff2gHPi54Yla+DXm6IeXuDMDew/vUwVrUc0EBO9IN1OI8Zh8KuEbnKFIewt4Q8uI9mtVmUnfoL+vppn4gkBF7h/Z9HiFWCRPYe76Pn0anUinxFrEFihHn7MVgVMSf62XbujhxKTMF65C1bEs0odwIe3EFSZhw1Zk/C2EATiTIU9+WdeHrejVzl62BsroH07Q38XeU4zDlKydql0dSQIIQ9xnnzNqIVKg/QR9yPHkVSpAbW5cujqalL7tq9KOFY/h9wz8x8cmasxi+1ceo8VcDMLwLzmw5D3zUwpfdmYVTtD2r1nsuhjVPJr6fqQgq8/myM9Rg/1uw7xojm9hkD8ysX/cg+/o+27Tpy9U0JTr+9Sv28KjQKBN9cQuEmU6k08CQnljdP0zpNWTjV/KP7vUPMHj+FQw+90MpbgsGz1vNb/xr/iBvhfY+FE8ex/uQDpBrGtB65nA2zu5Nb+3MTWB72jh3zpjF/yyk8Q6Kp2HUO6+aPoaJ1BmdOfgmY37RLfr+ZJwIzMoNtJaoapLV/L+UAmF6YlP/PzCCdEsCxz3biu/IPwt96o2lRCfOBS8jfpPLnK0TD3xCwcRK+F68ikxlhWLMvVsOnYGxp9PlexRh/Qo7Ow2PnDmKkWug6tMJm9GLyFjP/LD3Fp795v2gKfk9cwMCW/N1/w96pNVraydtRUr8k4L6M//WeTUyqJo+HiAnWf1ymfO34c2WFgBs4L5qE5wNnlNqWWHWZTelundDTT95zSUwAPsfn83THn0RItTAq1ZLSY5ZgU8w8yZWr9DnAKacBSFPkmeyX0aPggPU06tPpX3khymwfUAEznwjMbzpAfP/AdFxI1+kH2fprmySohJ5pj5mTM0v3HGVcG4d/DZg3Ykfy6v4sCiZsgYp8vg6rGqMp2203JzY4YaLu4RtKKQ8OLeOXqUu5G+3Em/ebKJrWIlVlDO439zFx/BQOvyvNDdfT1MiVhgksKPB/fYX5E0ew6rKChfuOMr5NmS93LBGYmX7wVMBcH6pLokv237AyU0ImI2tEHas1p8JktME/o5cIdef5svoSkV31/pZtoAJmXhGYmX5uszPC9w/M6ovoOeckm2c0Js7ABMLOdcS003OW7j7KuLb/HjBvaszg7c3R5EvwvUa9WI9VjVGU6bqLExu6ZAxMQSDI4wHbly9g29n7fAjWoGavBexa3JXcqfy5sggvDq1byOo953j7IYhCDcdwdMc0rPVTBZSH8L9961i6aR8PnF3RLNaRzZsX07R0/FFm6X5EYGb6OVqQzcBUF7iZdfGll6668M0uuGSUXyL81NUhu8r1b+SXofs8g/nQtOqqAmYeEZiZfm6zM8IPAsxTbJ7RKOvAtInkxJxfmHniabraaVm25NCJedilYcAlumRVwHx3czRxHllAPWAKRIUF4PXuCYc2LmH9/tsoc1nh2H4o08b0oby1afwNEgjIo8Lwdnfh0v4NLFy+lxDjgpSu15mJk0bTqIwF8eubBBQxUvx9vLl7bhcL563lVbQRxSo1YNjEGXSta4+eOpauCMxMP0eJwFS5ZNU5dD0jqyunraWM8k9p9f1bZVHlk5lypbZM1SlnRumrk0Z2hcnOsiiiozEXgZnp5zY7I/w3gFlIzrNTBzj32id97QxL0H9oG/KksXIny8BURvHs0GqW7jnFlYcfKezYmNbNmtC0aX0crJKXviPIcL95lKWbd3L5xlN07WrQukUzmjZrROXiBdFJXGIIBL+/x8bVKzl69m8CDcvRslVLmjVvQs0KRTHWjZ8vUusjAlMtmVIGUgFzY6guGc1hZpfl9LWWUGYt0/QswtTQymh+Nq1yp37ByIwLNrOWZXbqlp1pqVOP1G32+Vmy0eQSgZnp5zY7I/w3gJlNi34ybWHKfVnRvD6nC/fh1zE9KGObD0M97X8eZKCUcnL2cCY/MuWPmaOo51AQEyM9NNM4xeDlmXWMWnqFThNn0cHRjlzGBlm7ueCLq2SjeH5kB7dlNrRq0YgCpmmY3dnZC3+QtBKBGZXGop/0IKLOIJnZMOoO4l8DTHXLpM7WGXXCqFsndcqVnWmll5+6eWRnG6hcsiIwv+1gIQJTDf2zbGEKSmJilehmdLOAICCTK9DS0szwnjuFQg5oxm04z8rn5s5fGDj9OBFKAWlEMMGhkRjmK0AuHQ3QLMTiq1foah0s7sNMQ1wVMDeF6qICZna57L4mnX8bRF+C1ZfKkthTM3JPqgPDf9ONrE7b/JttoHLJmn2Nhem8HR7aQ89an/vFvV/Coyfg/A4cu0MhX1i0BdoOBmtrKGkFQhS4PAdFHnCwUx1fFv+EhD2ENU9gbF+4Og3Ce0Nnh+RrabIySH3Hcb5rYMoDn3Pw4ktsS9elqoNF0uZn2afrHLoRSoXqtSlhpcY+zK+0MJVRfvzv+g0CcKBVo+JJc4SKkLccu/gQs0LVqVOlUMIc43fc2oDP2xtcf/ABFXb/+dGnSqvW2BvJcDm1lpHLbzJz205q28ZfFfVf/6iAuTkbgamulZISJNlpsaQEQnqnD2Ulv8TTeNIrt7r1VjecuqDNCVd5ZvNOHT494KaVrgqYppkF5sdLsPF/xJ29+XgPxNSFalYJpzcYQt8REPMAFv4OleaB9X1YfQYaNIAIZ/CoAzu6w/mD4OUCDwxg3WTiBjshGpb1AM96UCAcPv4Nt/WhdQ3IUwL6twfdrL3Yf69jzXcNzK8RTTx8/SvUU1m8nptp/csjlu1cSymzNI9k+IoMfsyoicCMzq5FP6pBTOUx0NBCIhGQKJSgqRnnss8aLAQkgoKo2+v4sGoRoe8+opnHgTx9F2PbqQkamhpxZxVLBAEh4DHea8bz8fINZDF6GFTrTpFRv5HbPl+K/AWECC/89s7i/Z49REk10C3WiMKjVmJV2S4+nKrcghLZuyO8XDQTn2dvEXQLYOk0hzL9e6GrrxOXZ9rWpQBRfnw89CvPt28lIgz0i9Sn+KjVFHO0j5+SiIurOmtZIOrlAW5OG05gmB31Dt6lYJ6U59MKCFJv3PfN5tGuXYRLJRgWbUS5UasoUcUuLq3ExXUoYvG7uIjbG1bi4x2CnmUlSg1ZRZVmVdFW3Q8an20W2+DzuBlZ1ZnJR54AzAGZud4r2g/cAuDjBeh3Bg4vB8OE3iXRAhs7ODMflu0E49pQswRInaFGP9i/FWatgpK54h9Y/yMw/Q2snQyqUz7fHIZ6y+HGQfB+B7p6qlP34ZUz2NaCWiVUzrCf6iMC86dqzmyqjCDj3f4ZnKEDg5yqkXBbUjYl/uMmowLmllBdYtS8DzMj64NofwKmN4JO+8lbNAbfhTPR7rSWfNWsszZgK8KJODiCd+tOoVulPaal7FB8ekjQ5b/Rrjuf4hOHom+gicL7Bq5TuxMoLUq+Go7o6EmRPjtHmK8l9ov2YlHMIq6RJHJfPOa0xOOxHPNaTTDIpUHM2yv4PfDGevJBijZzRJMYwq8s4MG0uWhVcCJf+RJoRLzH73/niLUZgOO83zA1+fzg9SRIyP15v6AtL26Ekr92C0zyaBPleg2vG68oNP4QFdrVR1sTFEFv8DqxkpdHDyMNjkKuWZT6KYAZN/zL/XD+rRVPH8RgVaspJrk1kL67isc9T0pMOkiVFjXiTvqRKELw2taDy3ufYrTl/aQAACAASURBVO7YBgu7fER73cX14lXydt1CoyHdMNKNx1xmYJZT4VMCVzWHaez/hkwBU1WwT89g9GgoNwU6xd/lGlc7s7yQzww8bsLgYRClukzbCoKD4NpVGLQKWpcFY8P4N56UwFQEw6KxsOotPN4NcxbBwjVgEgA9+8DoA1Azg8NTfsChQATmD9hoYpG/jQILMwnMuIFcGUHsrbPEBIYnDcKJgyvycMIPz0OoMBJTezOiHl1Dma86ueu0waisfbqWTtrWp4DgdYJXg3qgsB9H8T+mYWCiixAbQtif3XDe/ZJCf1zDupYtYQfa47zBG/uNp8hfNH/cWbKKj7dwmdCaULuVVP+9N5oSAcWjMdwcfRjLcTsp1rZ+3FmyQoQb7tMccZN2pebqpejHvsR5ans+eNak5vb15M5jBMpows5M4+b8DeQffZvKTuXirLvPASQgfzaDs8M3U2DIVir1aIWmBghST1xnV+WpTzOarFxPrtw6hB4dz7lVNygzdRaRR+fw1kWDBp8BU0D2eDwHR+2nyOgdVOvQKKmsz6c78iSsMx1XL8fUSBu561b29RqCcdPlNJk4DCMDLYRof9xXNuLcVX0aLTpOiTIWGcIyPVd11jwD6sFZBUyjzALT7w6MmgLXPkKXjpBw9RnhgWBRDSb2hTfnwKkvVGwA1rVB/x4cdQHbguCrA8d3Erd9ICUwJbHw4QF0mwen9sHiX6DxKijtDIP2wb6VyZbst3lccyTXnxaYOaKWmOh/WgEVMLemsDDVcrfJPxI8w4mQV5/S0E6JMuQjSu28aBsmH/Vk2GwxVkM6xAHkS5bLZ/kLciJPTOHlgmXkmvke+xbxe0VVA7jSZxePWg/CsNd6SgxrhVf/AnzMNxPHRTPQ0kxw/8oj8F7TiTf7wih//gZ5jKX4jS/EC6/KVFhyiDyF4q0FVXoRV0dyZ/J5Su6/R77QMzyY0Btlj+fU7VsyLk/VjzL4Cje6tEFmP5yayxdgoCv53C2rjMB7dnluP8mN45LzWBdPvkkk8tEUzg7bT5nNVylZ1grp09vE2FQlj3EgTya05cVTRRwwrfJoxaepDMd9YmGuuZel0ZKj2Ngl35sZcn0MxyacxnHPHRwKG+GzrSdHNp6g8lI3HGsXSAKj8sMadnSchd2EvTR0aqq2halWH0i26b7KzauawzTMLDDdDsFjMzh2AJZthDwJSH9/Fw7ch/HDYMMYOPcYBh8A9/mw+QKM3A22t+GwOWzo/k8LUzWHGesJDUbAiSNwdDy86w9NH8M5HVjQ46ccK0Rg/pTNKlYqJxRQAXNbAjAz566TI3e5g1yqOvE7AYL6VhjY5yN4WRNCbZZg360GyOSgpZW07SijPD6zcpSRBG0ewrstZ7HZ60VBe73kwTnWmdctyiCtOYvy45rxqnVtlJ03UvGXfikukI4lcM9Ynq/cic0OH+yLeOPcrixBVp2puHgbJqbJbtWYVzu5N2gwRn+4UEzYzb0pC7DY9JFyZeMXh8WVW+bJi14V8dSuQfUVh8ljnuqmEJk7j3s54qlRhdqrj5DXPPnCa5n3Cf7u6oT+lLs0aFkuuR7yT3HAfP5UQcODd7FOnMOUveNGh/J45W9LkyU7yJviPszIN3s43X8Apr+9pHldE57P7cz1c29odNCVktbJ1+hJoh9yokU1ojpspptKFzUhl5VFUWkttlJll9HWJBUwDTILTFXCcn/oOwTKNwajhBL7u0OkBfz2C7y6Def+AofFUCkEXv0PNv0NJavBsH6QN+HyhZQWZkpgbl8NzifhZTFQnASTutCiMlgVQr1TVHLiac2ZNEVg5oyuYqo/oQKJwJSlmMP8kgWYPDCGEzzUFv/XycDEejjF/5xFxOY++AY4UWJaY0K3TCTEaCh2PSp8flB6OvNpnw3WijB8V/TGbe9Lip1+Sd78KeYNFV64d7bGx24clcbX4lmbHhgM+5My/Z2SgCkR5IQfm/p/9s4DKoprjeO/pYNUAQEFGzbsvfdeY2+Jid3EWGKPUWNMsZdYY9SYGKOJLcYaSyxRY69YEQUUQUB6X9gy78zuAguCLFgQ38w57zzD3rn3u/87c3/zfbdxbdESii2JoGrNAK50bEpKjVHUWbScIlYZJ46k+u/nysj3UI++S1WrjVycvY2Ku/0pX1J38o5orzoC/9GVuRVTmUbLDuFWQtvppmuSfIuzfVoT7diR5j9swsE6Y9MNVfh/nP6gGUmD/qPbR00ydlXSAfOmt4q2+sBMusqhzs1J8BpMx6WrsdfZKpaX8uhvjozoQuqoW/TvUZSLM3pz5b9kuh+8QinHjEOxZcoAjvcsS2DDlQybOS7bnZyy+4B5WWDm9FGU3exZEZiW+QXm8EnQ/xNIW1Tw9B7cTYYZY8FUBT+MA6eRsHEkuLaFUcOgZmmwMiP9VHtVEsQooKit9m9pHuaY5nDivrZ1kxPA2BIcisPkWeBh8U71BBIw36nmlCrzOhUQgflLrDn6wDTME4knYngVhJ67KNalPqlnVxL4YwBlf12MYt8XPNptRfnFXQiZMRiTUSco2dBNU408rfFTxhK6fBD+2/yodPgmzk56MFCH8qi/G09LTKDO5IZ49xyGzZhNVB3SRwNMTactKInbN4trCxfiNC+ManX9uNyxFYpao6m7aCnWuplfYtrUgENcGdUZxdCbVLP9iYtz9lJl3wM8i+tOJRBtV0cTMLYiN8K9NMAs7mGVGZiJ1znTtx0xzt1o+cNG7ItogSxeqoiLnB7UkIQ+p+gxonnGx4MyhGtTuiMCs50+MBMucqBLK+RVRtBx6XLs9I4TSwn8hyPD25M8+DoD+jlx8YveXDmrpuehC5R0yIC0TBXEyd4e+NX6nlFfTUi3JU9t8Ipm1ubkgYrAtMgPMA15KVKTQWYufuloohyGXWpISIYiRd7ZdZdZdZCAadiTIaWSFEAE5qY8ADMDpvFEDC2LvPosHBpWQnF7D89OWFB+6zJkN9fxYMavOPSvRMwpGeVWrsPCOiM8mVtYNt1rU8UTtnoYD3+7QoV993EpbqbnmT3iQc8yRFSZRt3JrfDu0hPzERupOXJgRvhXUBCz63OuLV2J2+pIqlR5xLVODUmsPIR6i1djXSQDLqkPdnNxVF+MJt+nqtkvXJj5M57bH+FVVhvi1NRbFYbviKrck9eg8fcHcXXV+01MI7/HuX4teGbXhpZrtuBoq11/IN6rDD3JiQ/aoBx1ga7962cC5lUdMNvrAVMmv8nhLo2IKfcBnZaupah1Rl7J/nv5e3hPZBPv0aeTPVdm9eH8qUi67fPGs5hWZ429Cl8Ov1eR0NY/MGzq6Fwn/RgWWcjwqA37sNK+ZDm1uQhM89cFTOn9NkgBCZgGySQlkhSARXkEZkbnF0/EYAdC74ghWbE7FKD0RKrsWIpp4jUeDe5GTFASjmM3U2pQN4zE5Q86wQ0GplpO9Oax3P1hKx6/RFC6ShG98OdFbrRugrrrPGpM6Ipvr2oktltNw0mfaMrS2KlOIeyX0dxce4RKf/pTukQ4vgMrEGjbhQaLf8e+aAZckrzX8N/IL3Fbe4eyKTs5P20q9kvCadhQO9lGk2PKfS71bkS4cyearfgVh6xLS5Sh3Pm4NncTvGi+8hBuLtpwrvi/lEe/8Xf/cbgsPEezlpUzIKIMQQSmt7cKEZgldWOYMmUwVwZV4o5lWzot2YGrbjxUzCvh9o/sHjaD0qtv0qquLfcX9ePQXxdo/XsINT21h7Jr7E08ydY2nbEc8TN9Rgx85cDMCsL8eK7iOkwzCZgF2hVJwCxQ+aXCC5MCi4/4sinGTBOSzTPQ9MN1agWqqCcoFc5Y2IUTOrE1YcFFKbPiX4qWhpTgKMzcSmJsmhGmzB2calLPL+Xa5zOwfv8o1UaJy0BENqtRXprF2fFrcB23k0rvNyP0q4r4+Hei6c9rsdStOUT+DL9vWvLwVhNa/LkBG7NU4n5swJm9ZtRatBv3aiW0Hqug4Nmm9lzYakTjbftwiD/DxSl9iav0Cx2+6YOZsXZjBIXvrxz9+BMsW6yh+ezhWOgWsGfUQ0HMr+05uDmMenMP4NWgrHaoTFASuaMLf6+Lo8XGfZQp45xp0o8IzBveKjrsvEip9LBzKhHrG7N7N7RcuAevGu5ayAoKgjd3YO9vAu9t3UcpFytij0xk06y1VJ12jjZ96mGiKVNF4r+j+GnWMep/tZum7evkq33z6nWK6XObZaufRqEJyT5gWCcvLHPbbrMwvViFyFYJmIWosSRTC1aB9ecCWXU7ltQ61bKdlJNTh6n1uOJI8b9KkvdZErzPIQ8MhMoLcSt3iMCV2xCsiuI25yCutULxn/ETrp+vxcYt87hfVkjr/7dGmcR7+I9uRkhibSrN3YRLRTdU4Vfxmz2Qpw8dqbrhKC6lbUm6sIBrXyzE8oNt1BraHlNjBYnHv+TKtxuwHXOAun0ba9ZNCpEHOT+wD4qG39Loy8lYmqhIubWRC5MnITT7lubTP8NUEDcf6MW1Y2FUn3+QSo0rIpOH4Pv9B3jveUiNjTfwquaYvvWoPviJ+ofjA7uSVHM67b75CmszAbnPVo5/9jGKWlPp8NVszTrJ9HoqQ7iiA2ZHHTDTfhMi/2bfwN7IG8yh++xpWJuoSLr9MwcmTUDd5Gt6zZiEpZkxQvwVjg6sR6DTB3Seu5qSxW1JfXKcI1MH8kTWgh7Lf6Oka5bxVr0waX4+lPID0jSd9MtLSUrCKvIBw7tUxVzc0UG63rgCEjDfuORSgYVVgTthCXy48j+Se3bQzBLM3esTvRw5iWu64f/7WTCzwMjcAvMqnSnaoTcW8oM8XroH28l/4pQ8l8cXPSk32JGA1Xcos+Q3bOwzJl/ktOQgcwcuoArazq1Ro4mJFjBzL4463B+VzBX3L09RsXUpjUcjyEMJWj6M+wdOgJkzZubxJMeqsW0+jvozv8LKRns6jQyByH2TuLZ8A0nyIlg5GSOPjMGsZHNqz91G8bL2mm3r1OEnuDCiP0/DUzBzdkMW/4gUlRMlxuylSb96ml3U0q7MmglEHZ/F6fkriU2wwNrFguTISEydatJo4X48Kzpq4Ht79SfcPnNbHN0kKSIUZaoSC5dSmmPvrEp3oMW3qyhma0TogSn8s2wdcclFsHE2ITEqGosSTWkzbzuenmnrPAVS/dbz55hphMYaY1PcEXnEE9Qm7jSae5pGDYtn2s0tNw/QoGfgJSYD6ZcviwvHQRnBwLaVcj2kobC+Y2+73RIw3/YWkux7axRQCwLDV53mSskKqNxd02eYvtCzRIXq5p/EBoJ5KS+sPCtiamWKEPQH98euxHbwt7h1aY1Rsj9ha8YQevISNj034jmqFyYmBkI5S4esDLlKxOljJEXEYmTjjn2DbjhV1G63J14aaKaEE3v+AFG+fihVZliVrodLk9aa3YEy1UeZQMKt44RdvUxqqjFmLpVxad4Ne2erTF62EPeApycPEh0cDmYOFK3dkRI1KmOi230hR7Cokom7d5Kgi+eRp8gwc66Ie/MeOLlox2BRxBB0/DdC/DI2fkirh/izmUMFKvb8CFtxZqwykejbx3l05RLyVGMsXbwo2bwbzs5F0jdx0NRNUJP46Bz+Z/8lJlaOmUNpPBr3wKO0U95mJhsAwkzAMyB9dp6l5m/KVPyvX+aTrlUo527/1rwT/2+GSMD8f2txqb4vpUBYbDIDN90gvHZNBCvtpJGcgPlCkKoSUUQmYurojJG42464IXpSJIqIaIydSmNWJPNC/6zh15fxbPRPE8nP5JO81jev6fOjqSFlvK58DSk7a5q86G4iU3P36nVaVbLjvSae6RO1XupBlm7OlwISMPMlm3TT/6sC4qkZR68EsuxyGGEVKqK2s0FmlL/NuvPSab4MIPXv1Ydl1r+ntWluYcg0LzUtvSG2FURdc7LrbbQlq6ZpNgoKOeGP/HEyS2Fsr1r/r6/dW1NvCZhvTVNIhhQWBZQqNVd9n/HHhUC8BUuKuDpiYm6GoFane5tpHoU+VPT/9tyEnSzhuuxglDVPfbAZUp5+KDO7f2eakKNnz4vszq4e2aXPzgvLSZvc6m6Idi9Kk51WhuSZtQ65aW5Ie+u3g3568Xz4iIhokmOjaFbFmXZ1S1HEImNjiMLyrrxrdkrAfNdaVKrPG1FA9DQVSjU+gVGcuxNCbGIKCvE8ywK8sna+BWiKVLROgfy2iQjHGp7ONKxSHDNTo/QNJiRhC1YBCZgFq79UuqSApICkgKRAIVFAAmYhaSjJTEkBSQFJAUmBglVAAmbB6i+VLikgKSApIClQSBSQgFlIGkoyU1JAUkBSQFKgYBWQgFmw+kulSwpICkgKSAoUEgUkYBaShpLMlBSQFJAUkBQoWAUkYBas/lLphVABAYhSqLn3LImkZEV6DfKyhCAvadMKyGkdpSES5qW8vKQVy85L+tzS5va7fl3fdFpDyzM0nSF1EffL9XQpgq2VtAbTkOf8daeRgPm6FZbyf6cUEPeTXXTlGQf3XyXO3BKluXaj8uzAkdOidEMAmJd7cys7uw48L/nndn9e8spqa17zftH9L2PHi+D1Km3Mra2e+12tRhEfR4/GZRjRSXs2qHQVnAISMAtOe6nkQqZAqlpg1ukgdl5/SmitqihtiqSDUn+nmLQdcwz5m5jBi7Zq0999Rz/fl8k7r+XlZmNuvxtahzRYvEi/rLbnJe/s6p3bNnkv87uhtmWXTl9TVaqCJ7fvU7mInPE9a2BtKXmbBdV1SMAsKOWlcgudAkeeJDBhwzketW2GskjGxut5BVBeOtKsEMnrf2cFqyFQMgTGuXXyealjduVlZ+eLQJpbvV4V1A2tV272GJpPunerVhPq40vPCuZ0alCm0L0774rBEjDflZaU6vHaFVhwMoBV/kmE16zy3CklhnaAOXXc2W14ntsm6LmdkZlXkOdmm6F1NDSdfnn6/9avV9oxyfp5vup65wX+edU0P3nnpIUiMRH3aD9GdqmKiUnWnYRf++MvFaA5Gk7cFFO6JAUkBXJVYN5hX5bHmhFbrnS2h0cb4inl5iG+vHcnIITdIdn7KsrYRGSWjph7NcGqrDtGuszFg6Fl8kjkt84iD3qKWmWCqUsFitRogLmNhXg2tubS/J8ykdQHl0j0vY9KIcPYviTWNZph5WStSacFgoAQF0DctQvII2LA2BrL8vWx96qAsbFR7lqp5cjvHiHi3jOs6nTGuWyJzOdX6mxRR/vx7MK/pKTY4tqhN0UstdBIh5gyicSHl4i874NSIcPE3oOi1Zth72yjZ6vOZkFBsv9Zgq75YFmuMe41qmGiE+hFoW9DPMe8trGh3q9KLscp3Fczlmlprn8sd66PrpTgFSkgAfMVCSll8+4rMO/wfVbGmhPzAmDmF3g5eSK5jVtm7pwFhEd/EDJtJsmh8Rg7O6OOfQqWHtiN3Y1r+wpacCSHEL12HM/+/gc1thibJaFIMsGq+SeUnjIDi/RDpAUS9k8j8MdfSY4zwszBBEVcMuaeLSg1fT2O5ZzET26E0GM8mDyG6OAIjGwdkclDURm7UvSjTXgNaIJ48kZO4VRSo4jYNQuf37aQGC5QfOZ+avdsmSm9CGR12ElufTuWJ9d8Ecxr0GjnRVydTPRgLBB1cDpX1/5CXKwRFg4mpMQlY1W2KbWmb8SjvFPGB4OgIurkIi6tXcGzgEhc+i2h3cTxmJtqWy83zbMLc78KzzMnzzzNJrVcjoMGmF5YmUvjmAXR40jALAjVpTILpQJpwIzTATO3zjUnzyE/E0lyD9kKkHSf8JFNiU2sjOu8bdhXdkMdcY1nXwwg+pE9Hj+dxK5kEVLOL+LR9G8w7b+Lsh93wsREScrJmfjNWoflpMN49mqIkUyAqMP49O2OssHXeH39BeamKpR3f+Le6InQ7juqfj4BU+EZT+f2xu+YP6XnnqBkcy+MUkIJXjKQh/vu4/nLHUpVcdCA+rl6C3JCl3Xg3t9BOA0cSPS6FTjM2E8dHTA1+glqkq/+wH/jv8CoWnPMI32JirTVANPNyUSXp2jrEU72ew953dm0/XYWlqYqFHd/5vin46HV17T7YjLmZsbIhFSif+/LP+uv4Ni1J4k71mHWdwntdcA0NJz8Mulyey5y+l0Epr0EzALtOyRgFqj8UuGFSQERmKtizUkDZkGGYJ/rsAU1yotLeTRtBhYDDuHxSVuMNYRSo748m/tjV2E/7k9KvN+EmDmVCH7QDq9N6zE312EsJZzQb1oRcrsJVXf8iKWZguQNDbn9pzGei3dTrLqHzvtSErupA3e3yqjy+15sEs5wd0pfksqtp/68gZgaa0O0Kt/fuDxqFGat1lJz1hDE9YTPeWZCLCFLJ0OLybh7PeJ0m37YTN9PXX0PU1ASd3g1/sFFKd+9OU/m9uO+t4rGOy9SPM3DFCH4UxOO7lRTf+FflKtVMt3WZ5s7cuw3Na237KWEiw0yIZHgBYOIqTOFig3gnw4tkfVaQgcDPczcPpIMiTAYGoLNWpYYkrWTgFmgXYYEzAKVXyq8MCmQBsz41xCSNaQjfmFnLMhJ3DyO4DW/UfSncFyq22SEK5MuENCuKerO8yk7oTPBvasjb70SrymfIksbt1PLidk0Gv+1/1Bylx8uJcIJer8iz4p0pNLiP7BxMkvPL8V7Nbc+/grHNbcpnrKT29OmYr0glKpNHTLCmSk+3OnbmGjHztRa8Su2tsbPjWUaoUaQp2BkboEs6TD/tu6HbVZgIkBqCoKJOcbqUO5M6a4BZhN9YCqDuP1hZXzNWtNiyQ6KOWttFa+k22s5MmIm7itv0qi+O4jjrclJGFlYIZNf4GCr5tBrCR2zAWZ+wWYINPMyGSgtbRowh0sh2QLrNiRgFpj0UsGFTQERmKtjzUnIJiRb4J2rKoGY1UMJ+e0yxfc+wKGEqd5kmEcE9ypDXOVpVJjcGr8uPTAbsZFyIwcik2k9P5mgIOHPz/FdsgLH1dGUrfoIn44NkFcegtei1VhZZwAv9cFu7o7qg2yyL55mm7g18yc8tj2mjKd5OqiMVGE8GlkV/+Qa1Pr+II6u2t/S/vfcesrEQ5xsrfUw62cZw0z/mFCGcHtKd3y8VTTdeZESOg8T+S1Od2lIbLkPaLl0LQ7W2rm1Ylkp/ns5Prwnson36PpeRc3f08tOPs9+HTA7vaaQbG7h17yEdkVg2oT7IgGz4HoOCZgFp71UciFTQATmGj1gFmRI9rmOWBlL1PJBhGzzo9Shm9g5ayfEaMChDiW0vxsR7hOoNKkhD3sOw2rMJsoO6YORbkqsTFCStG8WPgsXYj8vjPJ1/bndsSXKWqOpsmgpFpYZs10VAYe4O6ozyqG3KG/7E7fm/IXn3od4lDDNgKI6muCxFfEJ96LmskMU87B68WSaxEOc0HmYuQHznreKZvrATLjIsS6tkFcZQeuly7HVzZ4V658aeJSTwzsgH3ydnoNqps++1YAq+Tx7WzXXhGRFYFpkmfST34+grNGC3P7bUI9UBKa1BMwC7TUkYBao/FLhhUmB+TpgJpYrnclTyY8Xkd/OOMfOVRVH1PIPCfnDB4+Ddyjqol12oAGDMpin/dyJLDMRr8lNefDeICxG/0K5Yf0w1gNmwp4Z3Fu0mKKLI6hQy5/bHZqRWnMUVRYtx8pKC0zxUvod4Naobqg/uUOFIhvxnr0Dz7/8KOWh3SZQ48GpInky2ov7sZWpvewQLiUsM+xJA7n+jNTEQxxr3Q+76ftp0LNlprTpXpgyhFtTuiMCs4UOmJo6Jl7hn84tSK48hNZLV2Gns1W8T/7oECeGd0Yx6iY9+1dL9y41NuqAKYZkO08cj2U2wNT3AHOfeKX7QNHbX/dVzJ5Na0cRmEUkYBZolyEBs0DllwovTAqIwPwhi4eZl5CaIZ5EfuCrsUGdROz6jwnceBi37U9wKWuR4WGm3CGgSzWSm8ym0qQO+HdrgbrfOiqPGaIXkk0l5vcJ3F+xheK/hlLaM5gHPaoT49GPqos2Ym2XsYQj5e5mvEd9jNVcX8oIW/CevpBiPz3Fq6rWi9R08IrH3B9Uh2CzJtRdvouijnrepx5Q0sO0iYf4RwfMhvqzZPXhqgzh5pTu3NUB0z0tJJv6kAu9ahLs2oM2SzfhZJfxsZB0fytHho/A9tu7tG9VJvM4avJ59uhCsl1fQUj2lX8E6X1QiHmLs2QtJWAWaJchAbNA5ZcKL0wKiMBcG2uO6GHqj8ele3LZeE76v70MMPXLyzYfQYl8/xc8XLAMuy/9KdWpVLo3xdNfud3jE6w+/BHP0Z0JGe7BM+dZ1F44EyPd7FWZMoHQVT3x35lM1cOncbBJIGJKWe4/qUPVxbsoWipjElHiidFcmXGSCtsu4BR3EO8pQ1B/cIsmgytlACnyOOcH9EBVcSwNls7DylxrdU66yRIPcVQHzEa5APOOt4qWOy+SDkwhnsBp5TgdUI02S3bjUdo2vayYU2PY9/kxGvx+jsplHTOHhZPP85ceMMWQbFZts9r8KsLwhuSZnR0iMC0kYBZolyEBs0DllwovTAos0AEz6QUhWX0v401v4UbwHnyHf4C64nTKzZ+OhaUJKONJ2NgHn613cf/2NCValCV+53v4rHlGuS1HcHK31YBV/ewKDz5rTUzJVTRYOAQTGaiuj+P8uL2U+OIPynZujDiVRpAHEzi1GgEJH9B4zfdYKO5yZ3pPQp60pNHWtdjZmWEkpBJ3cCbn5q+i2JiL1H2/pmbzgrQr2zBl4iGOtO6H/fT9NH5BSFb0MG97q2i18yIeThmepPLGBLaP+ZOKn/9OvW5NdbY+5fa0qlyJHUC/H1ZgZ50xezZtDHO3DpjddGOYL/oQetUh2bx6pEoJmAXeXUjALPAmkAwoLAqIwPwx1pw0YObm9eXmSeS1w8zRO0sLcarjSfz9Y/w3HsOq5VDsq5ZBGXSeyP37MW4ymwqfj8PCyhhV8BkCWwXlzgAAIABJREFUvnifqNR6uHVojrl5IokXthL5uBiei7bhWtFV64mpwnj8ZUce37HErUtvrGwF5Hf2EnzqMR6f/0H5TiJEU4g/Npdrc+Zj1uhjiterAvEPCDm0nVTXD6i3YD4OtnrjqfphxrgbPD76H0q1OJ31NndX/oJlu4/xrFkBZJY4NOmFSzFTIq/8TWTgM2SqWJ78tZ6QYCUVhn+Og7URpnaeeLTsgJVJBLdmd+TGLXMqdOmDrT0k3NmLz78BVJ76Ow26NMVYXEKT+JAHhw6TohbDxv5cW7ECWY0eVG/dChNjU+yrtaWsl+dznmZ+PEtDIgrZhfRzei5EYJpLHmaBdhcSMAtUfqnwwqSACMx1OmCmdYZv15FRAjJFPImnfiR4/Qrin0RgVLQSTu9/jUfPLpha6ZaaqJWogs/z9McZhJy5hFJpiVWdfpQZPROnSiU1azO1HbmAOuo+oX98R8DOXaSkmmDu2Zoyn8zDvb4XJqbiUhMBmTKZ5Ns78Vk5lzCfx2DuimvP6Xh9OBgbh8yzY/U/ItQBi/l74EySxT8KagSVCoyMkRmJqtpRbtEZGtaz4sa3vblzwltcQYmgUopLKZEZm2riu5alO9J27W5cHIxRRfvi98d3XNuxk8RUE6zKtqLmJ/Pxqu+l2eVHU0zINrb0/Ih4XZlqsUyZEUZG4o4LFpQZ9RM9h/V7bs1orh8rWcYb87ObU3YTjPT/Jk76MZWAWaBdhgTMApVfKrwwKZAGTLkuJPsiDzM37zG333PyPHLzavPr1eTF09GHwXPrKbOZ0JNbXXPzxAuLFtmNO74MOLPWW/QwTSRgFmiXIQGzQOWXCi9MCiw64su6aFOSy2vPI3wV8MoNJtnBwhAoGpJvbnXIKQ8RAnnxuHKqw6uYYGOoFrm1VX61yC1fQ+0zZPlJqjwZi4gHDO1UGQsz6bSSgug7JGAWhOpSmYVSgS2Xgph7MYy4xnUydrTR1SQvUHgZr+NFENPv9HMDgKH2Zk2XZrshHXxuNmS1N695FrQWhsAwL557biFZZWIClrEBjOhSFaO0s9oK5ZtUeI2WgFl4206y/A0rEJuYytAV/+Jdpy6pjuIJHGljfbqzI/MwjmWo55gVOrn99+vqxMV8DQm/5gcQ2dmcF9jmF/45ecmvCsSGePmG1F3Mx0SdSuAdb95r4E59L7c3/ORLxaUpIAFTehYkBfKgwIPgGL7efw8fJzeS3VzAVP9MxudDlXnxogxJmxdg5uRx5pZHdrB6EeANgVtO3qMhNuaWvz50suZnyL0vCg1nZ19ueRryuyFtrdFcAEV8FL4+fnSo5ULHBqUxNdFOYJKuN6+ABMw3r7lUYiFXICpOzo5/73PlXigxCSmFvDaS+W+zAmLo1au0I4PaeVHe3eFtNvX/wjYJmP8XzSxVUlJAUkBSQFLgZRWQgPmyCkr3SwpICkgKSAr8XyggAfP/opmlSkoKSApICkgKvKwCEjBfVkHpfkkBSQFJAUmB/wsFJGD+XzSzVElJAUkBSQFJgZdV4OWAeQE49rImSPdLCkgKSApICvxfKWABjADsC1etXw6YqeIpA4WrwpK1kgKSApICkgIFrIC4yNRKbzeMAjbH0OJfDpiGliKlkxSQFJAUkBSQFCjkCkjALOQNKJkvKSApICkgKfBmFJCA+WZ0lkqRFJAUkBSQFCjkCkjALOQNKJlfcAqoBYHYVDVxyQpUKjWohddqTNqep6+1kFwyfxtsyMnEt9m2vLaZmakx9lamWOoOvs7r/VL616OABMzXo6uU6zuuQLQStt4I5dr9UG7LZSQYGSOoMyqt33ln7cizbhYu3pVT+pzuTStJf1N0fckNyS+vNhpiZ3bQyms52eljSNl5TfMibfNqg37ZeW2z7NJbosTDQk2lEnZ0a+CBjaXZO/5GFY7qScAsHO0kWfkWKfAgQcnUXbfwCYnnScNaKC0tkemdT5iXkzmydrR5PTnjVadPsz3NrrT89f+e3b+zs0PMI7f7DEmT05FhWT8WcjtPM2tZ+sd76UMrJ5uz2pFVI/3fX0ZHMR9BLSCoVEQ/fIRzXCizBtXD1UGcVipdBamABMyCVF8qu9ApEKcUGPvnHY4lGhFezQuMMs7EzAkyhnT4ry6NgBATiDLgIepEOTIzG0w8KmPm6oRMlnb8mACp8Sge30UZEYWgMsLYoQTmZSpiYmmWnk5TH5Uc5VNfUoODUCtlGFs7Y1amCua2lpp02joLkBSG3M8HZVwiGFlgWrwiVu7FMTLWoiM7mKX/XUhFEXiNxCcxmJWrh7WrY7agVSeEkOBzC6XSCtvajTE3M0r3zDX6qeSkPPUlKTgIlcZWJ6zLVMVKZ2smqAtKFKF3ifYLwtTNi6JlSmsOZX5dHyD5bl8x7B8UgtXTAOYOqkNRW3EBo3QVlAISMAtKeancQqnAlFNB7LwdTlidaqhzOAvzRZ5HXjrOvHfeAgQfIOrbOSQ/CARrW4TEWIxca2D7yUbsm5QW+Q7ycBK2ziJq7x6UicYYmchRUxSr9mNx+/hTTK214T8RhMnHFxC2YQPJT+MxtjZBlWqMRc2uuI2bj01J8RBtAcLPEzx3KjF3fRFMi0BKNDIHLxw++oGSXWtrysyx3opY4o4s5dGvPxIXkEyxmfup3LOlrvy0ULUAERcJWDGNoH8vojKpSs2dF3F2MtFLJxB3ciE+69cTExSPqY0JylRjbKp3ptL4hRQrJdqqA7ygIv7CBu5uWELIzcc49VtCk4njMTXN+eMnL+32qto/7YNCEASiAwIpGRfMlx81wNxUOg+zoDoPCZgFpbxUbqFT4GGCkl5fHcCvZwdtGFZv7DGn8GCu3pVOhZzCnIZDU0CW8oiYUQ2ICy+B07y92NT0QB12noiJA0iMKIHrryexdjVHcfUHnk4aj9B5B6Wm9MbERIHi0Dgezd6G9Tf/4t6xphaECed43LMZyVVmUH7Rd5ibqVBc/54HH8/ErM9SPCd9ignRRMzvzeODV3Cdcxb39jWQyYMI+a43QUefUma7D65li+h5oxnjtTIhlcg1Xbn/2yVsB44gees6bGfsp6oOmBrtBDWpt37m6sefovSohUVqOPGxDtTSA6YRAkLCea72bEqc1+c0XTIfS9HWGys4M+oLzHstovHkcZiaGoGgIGHPYE7P30uRDn1QHv4d875aYJqbatV+k3DMLWStb0v8jesMaVCMxlWKI0ujf6F7iwq3wRIwC3f7Sda/QQV+uPyUReefEtKk7hvtVPXH2vQ79MwhRjWqayt5Omkapj3+xPWzbojRUBkqVP9N49GUn7GduJdifRuQML8qodcbUmbLJswtjLVhSHkY4bObEeHfhfK/L8PcVEnKlhY82JyM+8K/cKxdWgcTBfHrmuO3pygVtuzEKvEcflP6kOS2hOrLRmBiLIZfBZR3fuLWmLGYtf8Vr8/7Y2Isez7MKsQS+s0QVM1n4l4vnKtt+lFk+n6q6HuYgpLE/Qvxu2tO2cG9CF84gABvlQaYxZxMtLYLChK3tubMpjiqLfiLUnXL6kKrCiI2tOD8n3Y0/W0nTs7WyIQEQuZ0IbLqdCq1s+Fcx1bQawnNDPQws37AGP5B8/IgTomJpab8CUM7VsZYF+p+g4+/VJT4MSWI/r50SQpICuSqwPwjvqyMMiG6grZDftnO0tD7c0qXyRsSUpBvGU/Y6k3Y/RCGYx37DBsTThPUvg10W4j7Z1141rcKyU2W4Tl9nGaykiZ/tZy4n0cStP4/iu++j6NbBM8+rECEaTvKLNmGtbN5uveVen0ZvqMX4PDjLYrJd/Fg2kQs5gRTsbVzhoeWfJsH/ZqRUKw7Xss3UsRGG0bMDH8VqugYjO2KYpR8mMuttcAUPcwMfUXvMRbB3BYTWRgPp3TXALO2DpgaD00Vgt+QSvjRgvpLduLoYp7eNsneKzjz8XeUWHOD6nVKaD4glBHhGDm4YJJ6gZOtmmuA2XzieMzegIdpaJtn5+mqk5MpHe7LyC5VsDTThqOl680qIAHzzeotlVaIFZh3+D4rY82JLVc6x0ks+iDNS7jtpQGsTiB+9TDCN1+k2J4H2LqbZXh0igCe9SpLYtXPKTW5DUFdumEybCMlR72PkS60JxMUJO36nEdLV2D/QzQelR8T0LE+8sqD8Vy0BgtrrScq/k/x4E8ejuyL0bQHeJhu4sGMDbj88Rj3clpQaaCgDOPpyKoEpdTA6/u/cXDJWBaRrS6Jh7jUuh/WOmBmO8tUGaIBpr+3ijo7L+KS5mGm3OZK54bElRtIg6U/YmedMcaX6reH8yN6YTTJh5bdKmQGdvL554D5MkDL7t5X+Qyo5XJKhvsyopMXVuamhfhNKrymS8AsvG0nWf6GFRCBuSrWnLhyaeHJF3uZL9v55ul+ZSyxywcRse0hboduYeOsC1eKAFOHENG/ONHuEygzuRGBPYZiMWYTHkP6aMbCNJATlCTvm0nAwkXYzn9GyTp+POzYElWtTyi7aBmWlhldvyrgbx6O7IJq+C1K22zk/pzdlNz7ENcSphnAVEcRNqYSAZFeVFp6CEcPqxd75ImHuKgDZvXnJv3oPFNlCA+mdMfPW0U9vZCsLOES57q0JKXKcBosXYGNzlaxXqmBR7k4vAMpQ27Q/oMazwHzhM7DbKHzMF/6w0X3TL6qfPSBi1yOuwTMN/zWZy7unQWm/9nNDB+ymkHHzzG8pBS+yGh2geSgyyz/9jv+OH6DKLkJJWu3ZdLML+hRvzQm0mSCHF/INGDGZwNMQ9cmZteR6oMxu1CcQeNmqjhil39I+B8+uP19B9tiesBUPSW8XwliSk2k7OQmPO7+ERaf/kLJoX0RZ+OkA3PPDPwXLcZ2cTilavnzoENzVDU/xnPR91hYZSzhUPkd4MGobqg+vkOZIj9x/6tdePzlR3EPrdejyU8VScinXgTEeFF56WGKuuc8SUqTPvEQ53XArJEDMI2UIdzXAbO+PjATL3O2c0vklYfSaOlKbKy0raEB5qPDnB/RCeUIb9oNqP4cMI/rgNlSD5j5boNXEKZ/UdkiMEtIwJSA+ToU8D2xlu5d5/PJHX8+K1NQwBQQR4hzn9GmTSe+4rnxSjvknHu6nDQNu7WPYf1HcibRjUY1KuJSJBmfm9e59cyZubv2MqGFR6bJGa+jbQprniIwV8eaIwLzVXkQL5NPprWN6iTi1o0k7OfjFNvxCIcyFhk2pt4juGsV5A1mUWZyB550bQ0D11H208GakKwGyEIqCX9MImDFLzj//IwS5YMI6FaTxDIDKL9oA1a2GUs4Un22cn/kcMy/8cWDzfhMX4bzL0GUqaz1IjX5KZ4Q8FEtQk0aUvX7v7BzMs1xE4M0YJ5r3Q+b6fvJCsz0cU8dMB96qxCB6ZoWkk315VqP2oSX6EXjpT9jb5vxsSD33caZ4YOx+uoezdumTQbSQT35PP+0ao6s1xL0gZkXz/5FmyUYAt68pBHkcopLwCzQ7uOd9TDfCmCqYjmyag2hlTrSvWUN7C1yWD+lTuH6/p2cTChO//eaUdxGG9rK7gq+dYr9F57Ruld3yjua5Zgu+7sV/DGpCUN/NWb13zv5sF4JzI0Ewm4eYFi/gZwpMR//o+NxkpZ5ZSufCMw1rxCYeemY06GhF/LL1NkKSlL3TCNw0Upsv3mEWzv3jGcj9A8evjcU8w/WUPLTLoQPKUW0xxwqzZuOsW6HIpkqgcjV/XiyLRLPv89hbxdP1ISyPH7WgHKLd2LvYZ3utSWfmsCdzw9Qcutlisbvx2fKcGTD71FjYLkMYEaf4mb/bijKfUy1ZQuxssjw+rKtd+IhRGCKY5g19Sb9ZKp3TsBUxxA0uQLXgmvSaMluXEtap9c9/r9JHJ+yl2q/XaRCeafMHzo6YIqTfloV8LISQ54FEZhuEjAlYGavgEDUyc9xbL+aMcsP0zrhV6Yt3IxftBHudd5j2cb19K5unz5pIWsemYBZ2ljci8SAK3vPLfnxcXr06MPNytvZ/6Ev0z77ipO+MTiUqs/ENVv5onOZ7EOZqkh+6VWdYftCKFatA7OXrmJ4G0/MxYXc+q6kOpnj84bSfvZ2rFyrMPrrlXw1rBW6yFKmtA//WUOP/uO4l2BD76nLWTJ1IB52uhmMubmnpPLfpqUcV9Rjxsi2pE0bUCU+ZdaI5iw43pg7gZupbPqM5bVcmKnqyoE9v9OqvI0B2r37SebrPMyEt3HSjzjRNXAbAcOGYVxzHiUXfIa4b7eAgpTNvXm44SLFvvwP1/YVSNzaBv8NKjz3H8PGRjuZR4j348nYmkTZLqXmqo8xkYHq4mCuTzxDiXl/UbxFda2HKCQSNrUkAU97U2fDGsxTb3F/Wg8in/Wk7s4VWGnm9qiRn/iaq7PnYjf0PNWH18dY7wswp0k/Z3UeZq1Ms2T1ttfTAfOBt4oGOy/iptu4QCxRdWko+z87SaXv/qJK65o6rzmRR5+X4vKT7nRevxY724yZvhpzks9zVBeSba0DpiHgykuaVznpRyUBs8A7mbfaw0w4PwubJgspW6099ZrVp0f7ephE3GTtt99wz74rO/b+StOSltmKmAmYJRPZNXUoU3Zfy1Fwk+I9OPzvcspls8dxavApuvfoxfGY5nSv40ir97pSyjKO/RuWsvFwBPNO32Ry08zbeaUXpErixrGdbN6+h39PnyXKuhb9B/alfetm1K1WDtu0dXDqFIKuH2PTlm0cPXmWmxH29B70Pt06tKZR3WoUS/M6BSURDy+zc+tm9h47y6UHKTTv3o9eXdvSvEl9Sjlqx4ryciU/u8XoHs3ZYz0Xv0Of4kg0f3zYnh+UTVm+9DvqeBTJS3bvbFoRmD/EmiMCM5N394oWuxs0VvmicTJVLAk/DuTpn95Y95yKbfUyqIPOEvHbRvD6lFLfzsHS2hjl438ImvYB8VbdKd63PWamSSSdWkX4VSNKLNqNSzV3bf2UQQRNakVYiCclBg3BwkYg5cYWgnZfw3nCZsr2aosxcuL2TOfu4h+w6vQlbk2qIUt4SOi2VSQat6XqqvXYO+iNp+prlfiQyMu3UInDFvKr3J29BMteM/BsWA0wo0i15tg5mJDgc4GEZzHIVFEEbZrP00cqKk5djL2tMSbWxXGsUQ8zoxDuTm7Fw+DSVPpwGDY2kOi9hTu7LlPqs83U6d0eY2MZMnkwoRcuoRDLTPXh+pezoOFgarzXFRNjE6zK1sGlVInX0r75eWb0gSt6mC6Sh1mg/ctbDczES7OxbvAd1bpN4s/N8yhvb6YZa7m1qBk1Fsn5cfteRrXVdl4v9jAFnt715v6z+JzFNitG/UZVKJJpWpo2ueLpaS0w7xZn86XT9PWyxwg1wYe/o0rvr2n02XH+mtcSixxJJaCSx/PE35eLJ/awdsUGbqfYU7VuUwZ9MpUP21XSeJ2ab3NFMs+C/Ll1+SQbV63h2MNkynpV573BE5kwqAXWugXLgqAiJvQxPjcvsGPDGnae9sO+VDla9h7NxBG98HTK/kPiOQEEOScW96PPgodM/+swU1uURCZuHRb2lBjBAmdnRyxMshGlQB/bgik8DZiJBgLTUE8kr5N+cup4NXu6ykOJ3/c9EX/8RnJEPEbWHth2nUCxAR9h4Wip9RJVKSju/U3YxnlEX72LWjDFrFJHXId9gVO9ahjr2lvMTxV0kWdb5hNy6B+UalNMStTFddBMirduhqmVOHQgIEuNIu7URgJ//ZGYx8/A1A77Np9QZvBY7Nwdsl2Co/FqHy3j9KBZpGjCPyrUKalgYoaxsTHI7Ck5/yTV61rhM68fD094i3egVqRoNiY3MtPuZWteuhON1mzH0d4YRfAl/LfMx/fvo6SqTTEvXgfPQTMp36Y5VhpbQR26gwN9h5CgOVlGhUos09gEYxNTkFniPmIdbcXZw/mcwGNom+cHniIwi0nALJiXX1fq2w/MhgvpN/0Pfv6uVzrMYv7ugUO/uyz9fQ+T3qucOzBfctKPFpi9+S9pFLevz6WkLpaZdGsN7o0nUP39rexb2w9bQ7miiufs1gWM+3Il15UD8fVfT3lttCjzpU7mwYnNTJo8kwNPanHW7yCNHbJxgQUlITeP8u3kT1l7zoQl2/5i8nviV/oLLkFAIY/iv3Xj6TLtMF0/X8VPswdgK24fJl3ZKiACc22sOWnAfJXhtvx0oAVdvj5UcrNFrN+Ltv9LA01Op3zkpaz8wu5tbwNxHaazBMwC7Z3efmA2WsSgOfvZMKtdugcXd7g3dn1usXTrX0zqXuWNAfOs0SwenP2MYrpJMcm31+LeeDzVBmxh34/9cwemIJAY+Ziz/xzg4OFDHDjhTZE6kziycxJuWdYhq+RRXD35NwcOHeLgoRNEF+vF30dWUMk6y4xfVRK+l09w4OBBDuzbxy15NVZt+pEBjbL3vNPEUiUGsO7LCcz+3ZduY+bw9YTeeNhkhM4K9Kl8SwtfoAfMlw6f5tODyU+nbghADDnSKjuYGepRZZdOzM/Q+w2pt6F5GZrOkDJfNo0huqe1nwhMJwmYBdo7FBJgHmDDrLb5B2apFE79OJ9VJ3xyFNvEpQVLl4+jRDYbaKR5mCIwH579DOd8AFMZH8iBDYtZtG43d4OiKdFiCF9O/ZgWNcrj4mClPUVCs0NZNOf3rOe7eT9wJTAK8/JtmTp9Ct2bVsGjmB3Guok9glqJ73/bmTdnEUdvPkblUInhU75iSJe6lHQpiuULTjRQxd5m9nsdWOPnzLRVG/msa22K6LYFK9Cn8S0vPA2YSTksKzGkIzakgzUkn6wQNCTf/KR5HcsmXjZPQ/XJa31fV755tUPfG9dvZxGYjhIwC7SX+P8AZskk9n8ziQXH7uUsdtG2bPnza8pkE/HMNzA1E3SusW/HRr5fv59oMydqNe7Kp5PH0rF68YzJOYKauJAHnD70B8tX/sLtKHM8qzRhxKSJDGhVFUu9MKk8NoTLx/9k3coVHLmbQolyten3yTiG92pBMevcPcTU2ABWjenPF0fj+WbDLiZ1q4KZFIU16CUUgfljrDnJBo5h5qejzC70aIiH+LrT5DXkmp09aX/LDUwvC9RXpXtO4HrdWucUfhbHMB0kYBr0rr6uRP8fwHxFY5h59jCV4azr1YI1SbXo36cbbVu1oEY5Vyz059hr3Mokjswbw4jdoQzo34sObVrSqGY5iohz+7NcvkfXMXzGr1Tq0IfObVvSrH41nIoYuq+kwLlfx9Jvygk+/GkvX3WrgG55XOZShFQCL57CV+VEnVrVcLAqqI0fXtdjn798RWCuywMwcwPDq+549ct7UWf/skDJCYY55asPyjehyZsow1AN9eFv6D05PReihykBM3/v7qu6SwKmAUq+jIeZEJeKeRFzzXE8aRtdP1ekoCY5KQVjM1NMjI21+3s+z0rNbYpUOSq1EaZmptpdWnJIl221VMFMqObBigcOVKpUnOcwaFaOhQd20rlYFCvqFme2qgt7d2+hZTlpHaaopwjM9TpgZoVTXuD3tnbor8Ou/HiLr8OOvLTPy4LNkLLyo4u4DtNe8jAN6LFfX5K3GpgpD3cyZPY+mvaZxqie1UgbZkvyXsawZU/4cNxkutTVrhl7zhN7hVvjKaPvsXTJMu4b9WL5153SJ/ekPvmHT2dvomTjsUwd3gi9/alfX4u9TM7KUH74bAKnI3PKxJlPVy2nuWMCf097n6n/mbL29y00L6vd5eX//RKBuSEbYBrawWdNZ+h9b7ID1/dMs/7bEBBk9SYNDcPmJe+86lEYdc9ODxGYdhIwC7QbequB+TLKvBVb471MBQr4XtWz3fQZdoA5m9ZRw8nQkG8BG/2ai08Dplxv0s/LeJqvp+MXSL1/kPC/tpP4NAIjuzLYtx+FS9OammiEtiMWEOIDiNq3gcjrt1AqzLCo1Bq3nh9h42Kbnk5jX0oUMac2E3riOCnJRpi518Gt52icPJ0z5acKPU/gjk1E+QeBqROOLT6kdPvWmJplHAuWXX1JjSP67FYCjh4iORHMi9fAo8dYSlR0yZS/OuIqD7dvJPThYwSZHU7NPqBixw5YWupt+C4WoIojfP833DwRgNvgBVSrUz77mbjqZGLOrefSjmPYNR9OvR7dMTXRbUSve47yGnrOa3sakl7/+UoD5nDpeK/X/KbnnL0EzAKT/i0uWJBz6cvGLBdm8uM3vbGV9pbVNJYIzJ9izUl5RZN+kIcTMbMdsr7bcSwdQ+jSH7CbsBrbEtoQeG4TbZ7r0AUlimvzuTfma1KtS1GkgieqkBskP43F7uNjVBrcFBNjGepYXwJn9yHo8mMsSlTC3CqOxEePMCrdk2qL12NXTLdvrJDKs3V9uffrMWSO5bF2MSEp8D5KilNx/hE86pRC3HRS4buZCx8NJdGqBDZly2OU4EtcYCRFuv9K0yn9MNcbi89ks5BK2NaPuLhmHziUx7aEBUmBPsiTrKg2/zReTcpp8k8N+JMTHw0kxqQYtmXKYyr3I+pxBEU6rKLTzBFYavIXUEXew2flMK4cu4mQYkqFuSdo3qFOlk0IBAR5NI93TObMpu0kxSlw67eErnp7yeamu37bvE7POOszII5h2oT7km9gqlJAIe72YJaxnietG1KrIEUORuZoZgEmJ4O5FZn2NMyuyxJUIE8FCwtITdRs/qDZk/EdvSRgvqMNK1Xr1SuwMI/A1HgHQgpKv9uoEuUagzJ5pKkxxKwbg9B8Lo5etsT+tZJU18G49WqPRYlieh6Wti4v7pwFhMiz+I3sSoL1e5SbtwJ7d3vU8QGELR7AozMJeK44iWu1YiQeGc+d+ftxnr6HMu1rYmKsIvXmJu5Mn4LQeQt1xnTBSCYg+K/m4rDZWPVZQdVPPsLMRI0q6Dh3J/UlxmM8jebOxkz1mIdf9eLhdWtqrtyBe+USyBQxhP46mqsbj1B2/jWqtCytWTaVOTQqoH68keNDJmLeaSGNJ47G3FRAFXKG65NBan26AAAgAElEQVTfI8R+CG0WLMLGLJJ7C/pw7YScRiv34Fm9JEZCEiHbJnD6h12U/vIyjTp4YkQCdz5vzIPoKlToUYu7c+bi9t0JWnaok1k7QU7I9004edaWiu935tHCGZj2WUKXieOxMNWd3JKr1oa0x8ulyS5cL3qYLwXMK9+Dd10Y2izz19idY/D3GYg1ha4fgOkVmLsZOn8AJStD26oQdAsOn4IUS2jVFaq6aSsYfhyW+8GXw+H05xDYF4Y1yJz/q38VCyzHdxaYKQlRBD4Ox6F8BZzM8jIzpsDaQir4LVdABOZGnYdpcChWEUz01K5E33n6fO0ENerEKDC3x8jUGEGhQGZiinW31XiM64e4C6LBHoygIuXY19ye8x22Y69TYUANHaQE1A9XcWXgDBxGbqL88A6EfubOY8Uo6q9ZiHnatoeKGJ4s6YLfUUfqHtyLvaWc6O8qcu1Kaaov3o1LhbSTPtTE7v+AiwsfUHPnCRxjjnNlygDkrY/RelIzjUMihnzVT/dz6sOByGrOpsmCac/DSJATsawh//4D9RYeokx1N90Hgpr4kyM4POsS9X4+ioflA85+1oHIunvpNaODZlN4Tf7PTnB0ZD+Sio2m05pvsTaNI3jXNoq0HIit8A9/dR2Gy7daYGYaRxWSeLpxAbQdQ3FnP/a2aYF4Wkm317T5ek7tl59JP0q5HOu8epiPtsOX+0CthntHQVYfKhXVPotGtvDFArB/CitnQ9V5IPsNFl2C6aMg8B+43gC2vg+Hd4DSE0xvw8Yn8Mc3YJIEM7uBqqe4cS9E3ILrKmhaE9zqwKxRvP0TO/LW6byzwMybDFJqSYHcFUgDZqpuDDN3ry/Ny1AjxD5DrRAyAGhSBNMiELm4DQkVVlO2T31Qaw5PTZ9NbTAsxWLUyUT/PJoH6//EfXMYHpW0Z1NqbEy5wd32dUhp8w3VJ3bCt3t9Urr9QN3PRiLT7ZhhJKQQ/tt4bq/+k7K/P6FMqVB8+lQhzLk7tRdvxs4h4zxL+Z2NXBoxAYdlPpRV/sHlz2fjuDKM2nVt9M7g9Md7YD1CrFvRaPk2HB0y5mRrYKF8wq2h9fFTVKfJqgO4OGfkn/pkF8f6D8ZuzkVqu1zg+KfjsF8USKsmzhl1Ujzh6qgW+MSWoc36w5TQjbOLdVY9+5PdOmC2yuph6oe6k8+zW3dayXs6D9PwNn01uxTlZacfEZhF8grMlCgIjoRb22G2L2z9CqzSngwjcHOHY9/Dgp/Avi20qAAx3uDRGm5cgc+/gbK2uidJgLg70GcZ7N4At3+Bbhvhwg64fQNKlwYjJZw+Dl49oEU5eMeisxIwc+8npRSSAhoFRGD+HGtOGjANn+WaRNy3HYj2V6YrKXMbQKlvRhL/40DCU0ZQcWIbko5tIcmqPcWaGnZAdabOVhVP2Moh+G+9Qfn9PhRz0242rrFRGUhAn1I8qzCF2pNbcKtrXyw+/plqwwdkwFlQErt7OjeWLMNleRRVqgdwtUMjkqsNp86iVVjrTiUQy0x9uIfLo3rC+PtUsfiZS7M2U37XIyqU1u76oSlXFc7DjytzN6EaDb//Gzc3i4zfxH/J73CubysiHdrRYs1mHHTHjGnMDTvFqQ9akjr0PE09T3B07AoqbnlArUq2GXVSReE7pSHn/axoueo8ZUtlnNIjAvNPHTBb6zzMbEGYfJ5dugOkRWCa60Kyhrdr7hGAl80r66Qfy7wCU6y43xkYPR3aTIMWLmmfUeBSEkq5QshlGDIMwqpCD3dINQbvM/D+YuhUBYraa0Os4uH1JzfCEVOY3Rm+nw5rfeHSVpg9F75bA0XDYMBI+HIn1H73TjmSgCnBQFLAQAVEYP6iB0z9TvjFHWM8kcO9UHfejHP7OqReXMeTTSF4/rqIlF2TCfynNBWXdCZ0VjeU3Y9Rtl0pw0Oxad2fMpbQ7z8gYHsAlQ574+Sk3fVJY5c6jMABrgQX/4w6kxrg3WskNmM3UXVwb+2aXzGNoCR+/5dcW7AAp7mhVKvrx6VOrVHW+pS6i5ZQRLdmSkyreHSYKyM7kTrkJtVtf+Li1/uoss+XssX1Zqyqo3k8riLXn3nRaOkhipe0ygzMxGuc7tueWOf3aPnDT9gXMUr3HlURFzkzqCHxvf+lecWjHJ20mWo771GtTMbB0DJ1HP4z6nP6linNV5yjXDmb9ElSSh0wXb89gSHAFEOy3V8xMPMTcs3NuxXHMC3yCszgf+D9z8BHAb26gqXuSY0NA6cG8N04uLUHBgyHzr3AsS2Y7YNfHoCrKdwBbp8BF2NI9IUx8+CLZVDeDhIeQqfJsHc7fP8pNFoOtW7C6P2wczHpRzAZ+H4VhmQSMAtDK0k2vhUKiMDclAcPM6PTjCdiWAUULVfj1KoGiiubCd4ZT7ktS+HiCh7OPYLLuKaEb7xMqfU7sLY3z/um5Kp4QlcOxm/rTSruv6fxMNPLVwbi16cUYeWnUHdyc7y79cfy45+pPrx/+t7EIjBFD/PakmW4fh9J1eoBXOnYmORqI6i3aGW6hyl2t6kP93JJ9DDH3aOq5c9cmLWFCrsCqFjaTM8D1HqYtxOq0VjnYWb6qEi+zX/9WhPh0I6WazZTVOdhaoAcdpp/P2hBytBzNC97gsPjVlFpqy+1K2b2MO9Pacg5PytarTqHZ6mMELToYe7sOgwRmG2zCcmmf0gkn2enLiTb4y2b9JMdPMWQbJ6B+fQ4+FjCpk2wbB046VrB/yLsuAyTP4EN0+CkN3y4BaJ/gj3/QZsvoOgF8KkKczpD8BWY/hV8sAI6VdB+iaUGQusxsG83HJgK3h9Ch2tw3h6+6vtWvLOv2ggJmK9aUSm/d1aBRTpgKrKMYebmGciIJ2KwM+HPSmBia4WQGInCcgCVty/FJOoU/sM/Qi6osWo7F88xH2EkHnScdUZtbjM31clE/jwan/V/Ueq3EEpW1AJE0z3Kr3OrfV1S2n5DrYmduNe9PqnvraX++BGaMUxNOnUKz34bx83Vu/H84wnlSoVyt08VQor1oP7izdjbZ3isybd/4uzISTguu0d55R+c//wrnFeHUbe21gPUlJnqx7X+9Qm2bU2z5X9oxjAzAVMRhPewejxQ1qDFqv24OGWEkFMDd3JowFDs51ygnstFjn46jqKLH9OmsXOGl6oI5MLIltyPK0O79Ydx17tf9DDTgNnmuWUlemOPyefZoQNmzwICZtbIxIsiFSIwzfLqYWpi3OEweAjYe0HaMbkxIWBXBxZ8BiG+sOt7qLgIGsTBhQPwwyFo/yEM6wFWiTBlCPweAI08wcgEvtoElSO1wFy/CHzPwtMSELgTnFtD6xpQsTJYvVuDmBIw39nuXarYq1YgDZjKPE/6yTJBRBwLUitAMEEmiyZqakMCfSwovew0jhXtQKlCZmKi3fowY8Qpl3+rkP/zFdfnzMP+s9tU6VtZewKOIC4PWcF/A2biNGITlUd2JGhscfyEcbRY/R2mugPJZYpYApZ25P7fRWly5CAOlslEfF2Oi9crUG/JblzL6Q6CFgSiDw7gzPwH1Nt1CqfYf7gweQDydv/R4bP62lmygoA6dB9HB72PcY1ZtFj0BfrbEWs9Xznhi+tx9IQJjRYdoVzVYun2xp8awp4ZV2j8yz+UtvTl3/EdiGh4lIGft9DMkhXrpA4/zsGR/Ul0/pjua+dho9tbQ/xZBOaOrsNwy8HDTB/71QFT6LWEXhPHY6nbSizrx4rhbZD7mGbWjytD1nym2aPINzAjYNyXMHwS2OtqE3QbLj+DCSPBVAUbpoDDIPj+AyjXH76cAuXSJvvk8CYpnkCXyTC0Lhz3zZyoSDGYPBtKaseu35VLAua70pJSPV67AmtOP+ZH/2RSq1XKxxijHGVEIIpgf1IC7yP3vUqq4ye4VrpIwFdzUZq747HwEE7lnxK0ai9OQ2dQxCnLRJksXmbWzlYdeYZ7o7oSb9uPyvOWYO9qi5DwiJCl/bl/KoFKy07gXtOV+CNjuLbgKO5z9uLZzAsTIxUpt3/nxhfjUbX9jaafddOAT+2/gn+Hf4vtwDXUHt4PUyMB5dNT3JzcnQjX8bRaMAcL1SPufNULnxvONPrhd9zLF0OE79PNYzj/0yHKfXuFWm3Lpq/D1IeP+vF6Dg6ZinX3ZTQbOwxzYwFl6HmuTO1EoPUQOi9chJ15FDcX9ObSCRmtftxFeS83jFRJBO2YxLE1Oyn9xQVadamgW86ifQREYG7XAbNdLpN+tuk8TBGYaeswXycgc4PxizzO1ORkrCIfMKxTZczNXvGBCIoUkIlfHQKYGOoVqiFZt2lBmuGv/S0s2AIkYBas/lLphUiBMwExjN9yjeTOrQ33/IQU5NsnELT/PKrkONTxMchcamPXohfWzuE8W78B4w7fUlS5nojEPlQcasP92YcotXg7tk56s04N8TSFVOQXF+A9dT4ql5rYViyDKvgacb4hFB31F1UHtdJs/6aOuYffnP4E3IzHrkJV/sfeeUBHUbV/+Nn03kgoIRBCaKF3pDeRLlUQQenYPukoCHZFOojSRAEFlF6lKggo0qS3kEYSIAkJ6W2TLfM/s7tJNnGT3TRC+M+e850PM3du+d2Z95n3vc3GJonkwJuoPXrTcsEaXCvrxgrVaTxa+yrXd1zEpkZTHN1lpN6/RkpSBRrN349vy5qYoSLj7mb+mjSeVLcmuNWtjSzxHnEBYdj3WUXnqSOws8qZ0JMLGOp0Hm4ey9mNJ7Cu1gyXylakhF4j4bE5zecfo1G7upjL1MgDd3F80kjiHepTsU4dzNNDiL4Xgl3XBfT/YBL2Vmaoo/ZwZsVW0tUgyMMJ/+cK1vU7UaWyG5i5UGviYhr4uiHE/8PpRUtJVonrT54QevoMZlUb4lW7DubmNnj2fI+23V7ICf2aonsBaQoTcs3rfeaFqzolHvuUh4zt3RCzrAN0y9H78zxUVQLm89CLUhueigIqlZrenx/jUecOCE4OmhmmBRk5rQeoJPPwXKKug33zrji36YyNiw3q4O+5PfYjbPt9is97kzBPukLYx6+R+CgGm+afUeejKVgVcZlDhv9eQjd8R3xoFBYejajy6od4d2ycDXnNCoHUECJ/WcCDv86TqbDDseVQar/+Ns4V7TXpsrxXITOO2GOrCNyzi7R0C+xqd6fWuA+p7OOiSZMFBHX0We6uXcijOyFg64XXgOnU7/ciVrqNEfLzrFAkEfPnOm5s30pSihn2vp2oP+5jatRyy5m0JNY37hLX1n1NyI0A1JaVqN5vCi1e7oOtjdbTEsJXsWfmarT7KeXd+c0Jv4/20bZRJVQxh9j97vuk/CeNeJc11Yd/Se8hfQofQcgz5pyli34UwJh3WeCzJKh54n+NPi2r0rJe1tKQp/LYS4XoKSABU3ocJAUKocBZ/2hmnQgnqVljzZ6cRQ7fycNIOBuEQ7suWNmaIxNUKMPOE/f3ZWw7jsbZ2znfvWSzDG9eA2zMQ9Gva95lD0Vuh7HJSEXw0Ipbl8LoUNyynsb94n66UfeDcRGSeGdgE6wsTQ2ZFuLBlpKapIAETJNkkhJJCmgVUAsCG477sy44HXmrZtk75RTHeyjsvcVZ41ecewuCQ3HBYQrknkYZptRDTFNaOv6nfEEgISKMhIgHfDm+nQTLMjZEEjDLuAOk4sufAhmZSn49FcjhgHjCvH2wdHbAzEIbGtQ36nn/Oz+Dn6VA3vBdQcZb32jnV44pht1QGcbKLaxnm9W+gj4M8pZZ1HoZA15+WhvrG1PqXlB/59XA0HOS62+CGnm6nIwnEViq05nQrxEVnLLWhJS/d+Z5qbEEzOelJ6V2PFUFBEEg4EE8V4JjufM4lTSVgErc4FrvZ2zioLHr+kbW1MYZy9PYdVPLNDUfY/mZko8paQqjuz7YTNHVlPJNSWNMC/262FiY4elmTe2qLjSt5YGdjXQmrSl9VdppJGCWtsJS/pICkgKSApICz4UCEjCfi26UGiEpICkgKSApUNoKSMAsbYWl/CUFJAUkBSQFngsFJGA+F90oNUJSQFJAUkBSoLQVkIBZ2gpL+UsKSApICkgKPBcKSMB8LrpRaoSkgKSApICkQGkrIAGztBWW8n/uFBAPG0lWqIlLV6BU5l5KYqixhVlyYEysksxLv6zSylcsoyTzLsm88mpdGnkXN09xy1gXe0vsrMyzt2I09oxI10tPAQmYpaetlPNzqIC408+vd2M5e+k+wYIVGSohu5WGjKP+34xdzwsXQ/fmZ4Dz/r0w5RpLW1C99K+ZUreC6mkIrqZoYKzcgtpXmPoY6z9jeZnaPv104qkxTmYK2tR25+V2NTRHvkm/slNAAmbZaS+VXA4V+Pp2Apv2XOFBh9YoHO01LRBNWJYZy/p3cf4m5lnQ1msllbd+OcbOZTR0vaht1i/XWB3026q/2bshfUpCs6Jon989hjTLT8csLQ21Qa1UEnj+Cm2qWDBzWAskZpad4ZCAWXbaSyWXMwUuxcgZvfI0YV3akumiPVz3WTLchgCWF+glARVDwC4pLQzlk/cjxFg7TQF5UcBo6odKSWmhXx5qNQ8vX2NM24p0bOwlQbOMbIcEzDISXiq2/Cmw9O9wVtyMJ6p1k2yvMq9x1geUqQbW1HSlYYj1YZS37iX936aAzJBHWRhAl4SHb6xPjfWxseum9nfedPLEZHzTQhnbuwEW5vq+avl7l8prjSVglteek+r91BWYfyyAFQlWJNaqka93WViDXfLGVYDMVISUZNRKNeZmFsjsnTG3sSHrzGEzBFArUackImRkgCBDZmWHhYMTZuZm2ek0gBZUqNOSENLSECc7ySxssHBwxtzSQuPlaOEiIFPKUSUnISiUIDPH3NYRS3s7zUQVo4AQ1KhTY1GkKbBwrICVrXWuMzmz71eko0hKQK02x9rNAwtzA3mL9U2NI1PMy8kda5ucI9hyedeCGpU8EUVyGma2ztg42GePD+aFdtaD9rSjCXnLU8nleDwJYHwvP2ytpb1ln7oBEIdeBHEXaeknKSApYFSB+Ufv8U2itQaYhfWWigLSwodPBYQnF4lfM5+kf86jVpuB2gyrRn1wG/8lzvUraSGXmUja8e+I3raB9EeJIFMhc6mL6+DpVB4yCEtbSx3kBDIubyZy40oSbgaDeA6jdUWcuo2l2qi3sa8oHqItICTe5fGG+USd+pOMNCUytRKrWt2pMuYrvF6orQFwftBEmUrKv9sJ3fglEZdjqDL3IC0GddH0Rc49AiTdI3zLV9zbtZsMwY8Xdl6girtF7nwVySRc2Ir/pgWEX4un5lcneaFni1wHZ2vyFdSk+v/G3U1fcvfEVSoOW0KPaZOxttT2akFetyHvs/D9ZNqYd96IglouxzUmgAm9/bCTgGn0fS2NBBIwS0NVKc/nUgERmCsTrUnSeZiF8UQKAmZew1hkGCsiSPigGzG3BCpMX49Lk+qoo84R/cU00s3bUn3NdhzcrVDc2kz49Ikomi+gxlsvY2WZifyPeYR9fx63r3+neic/LWTSrxMyqiNJrq9Se84HWNuoUd5Yy71P1uEwdjV1J76OhSyJJ6vHcG/LYTze3YF3tybI0sN5uPJdIm/b4PfzX1T2sskHmApit07i9o8HsOzYn4zDu6nwYV5gqlEE7OXfOVNJUjthlZlESlpF2uYBpgwFj34cw5XNR7Hp0Ju0owfx/OokbXXAzNFfScqJOZxc+BNC/RdQnT2C/Ss5wDRFe2P9Zey6UY9bbxKZPoxFYLpIwCxT2yIBs0zllwovTwqIwPxWB8z8xtUMQdRUA2lqOoMGWRAQbq/j/ntTsOy+kepzXsPcXPRkVCiOvU3gp7up8P4xqgxsQtLKloQf96Xuzp3Y2ZlruyA9gojZrXkcN5EmGz/GylxN5oHeXF8eQY2Fe6jSpo7O+8okbmkz/M/Up+lPm7FLu8jdWYNJtPqA1utnYWMhlqlGceVbLk6did3AfTSb2gcLXTw4VxuFBEKndiej4yL8emXyV/dhOM4+SMtBXXIAKyhI2jWHf0+k0WTONJ4sH8m96yra7byAp7v2DFINVIR47kztjfLFpTRsE8XRfuNw/+Ik7fU8TE3ZQgphM5oQWvMj2rzmy599uiEbvISXpk3GJo+HaQx8xq4be0ZM7e+sdGJI1lkCZpmaDAmYZSq/VHh5UkAE5ncFALMwBtBY6C/vdaOej5BJ+rZpPPhmPS7LHlGlnUdO2DjhGEG9+2M+aCk1JvcjakRtkpsspP7H0zHLApkqnbj1YwjdcB2fAzdx94gnakItHim6UHfJdlwqaw8vFuuRfvFLbr63hiobrlEpbS+3Z72L1axQmvatmgO61CvcHNaNFM/hNFuxGgd7cwNeZiaZ4Q+xquqDufwop7oNwykPMEX4KqMfoXLyxNYimtszB2iA2V4HzBzNM8l4GIlVleoQu4fD/cbhYQiYKJEH3sPCpz5WivMc6toJBi+hVz4h2dIMwRrr47xAzgLmeCkkW2ZmQwJmmUkvFVzeFMgCZkoxQrJF8UpMArE6lcRV44n86SxV9gbjVk1vsosimIcDa5HcZDZ1ZvYgpE8fLMb8QO03R2ZPykFQkLJzFoHLVuG+Nh4fvzACerckte7r1F+8BjsHLfDEnyJgJ7cnvor5nCB8LX7i5pzVeG4Nx7eOTTZUZcpIQsc3JlTZjKbLf6NCxdyTb7Lyyg45ph7RAFP0MFvpeZi5gKWM1ADT/7qKDnmAqZ9OHb2b3/qNo6IeMP9Tngj/9HMc1AGztw6YRj9MdBoUNG5prI/zu25sLFQMyTrGBCABs+wshwTMstNeKrmcKSACc1WiNSIwjYXbjBlNkyCYz6YIBj0TVSLxy18nclsA1Y/cwsVDG67UlKOKIGp4VWKrT6Xu9HYEDRyD7bsb8R3zSs7MUEFJ6v65+C9chNvCaGo1D+FWr84om75F/cXLsLPVmnMxP8X9Q9yZ2A/lhFvUdvyBm5/spua+YKp7ZU0WAtRxPHq3Hvdi/Wi67AgVvew09+tvPpBrXDf1CCd1HmZr/ZCsvgY6YN69rqLjzgtU1YVk844PK6N3c0jnYXbMG5LVzy/9HAe6dtKEZEVglnRItqSfAaUEzDK3GBIwy7wLpAqUFwW+NgJMUyFYkoY0B4qJxC1/nYhtAXgfvoVLRe0MUs11VQSROmDWm96ewIGjsX1nI7XGGgam66IYajcLzgVMW1uz7I8ERcghbk/qh2riLWo7/MiNT3bhmweYMnUcD9+ph3+cH82WHaGSHjD1gZ+tReoRTuiA2SaPh5ndDmUkN2cOQARmJx0wDWmuit7NQZ2HaQowxZBsnyIA09T+NjWdsedCDMnaSx5mmZoLCZhlKr9UeHlSQATmap2HWVZr8vSNaq5t1tSpxK+ewMNNZ6i6JwT36tbZuxChCCT85Tokt/gQv+k9COrbC/PR66n35qicdZKCgsQdM7m3bC0V18fhWzeMu31bkFp7FA0XrcXeMWcMMuPedm5MHIXVR0H4mm3i+pzv8NwSTp06tjlLOJSPCBzblDB1C1qsOIi7R473adA7Tz3CH92G4Tz7IC/ogKnfVs2/lZHcmDmAO9dVdNYB0+BWctG72d9vHJW+OEmnni1yPG3dw5Z9T/o59ulCsv30QrKmhGXzizCUxHORHzjFkKytBMwyNRkSMMtUfqnw8qSACMw1idakmhCSzc+r0PeuCuN55A075s1HHINM3zWDkKVrcF38kGodK+WEjZ/s527fYVgO+4Za/+vLo1G+xPt9RdNPZ2KePeknjei1IwnaHEK9g5fxqJBA1Nu1CEnpSMPF23H1tMvOL+2fuVyetgXvn65QOXUf12a9hcWUENoMqJZTZtJ5Lg3rSbr3G7Re/g2OdjkhXYPtTj3CcR0w2+YTkhXHRUVg3r6uosvOC3gVEJLNAmZnIyHZvbqQrAhMQyFZY7obgut/+qaQazvzey7EkKwEzLK1GBIwy1Z/qfRypMACI8AsjNdRFENcsOcjoA7YxL233sai42pqfTQOS3GJhwjSPaO5vfQ4leecoFq/hiR+356APRVouPsATg66ZSUpYdyf3pIo1SzafP++ZlmJ4vchnP/iLjW/3kv19tq1mTIhjajP6nPnZnte2LgBe/llbswazBPl23Tc9An2ltqNAeT/LOKv2fNwGnaMNu92x0LneuU7sSX1CMe6DcNl9kH0gZlLUx0wb11X0VUHTP3rWXmLIdm9Og+zi6GNC7LWOaafQwSmGJLtX4LAzNtP+XmMxib55M1HBKaN5GGWqcWQgFmm8kuFlycFsoCZpudhmuolmprOmHEt8LrqCXGfvciDc8l4vPMdHs18UD08xYNFH5Hh3I86367H0cUCRcAeAqe/TlrN2dR9ZzDWlnJSDr1P8K5wvJYcpUZrXy0cFUHcG9uGx2Z9aPDB+9jZqpFfXMGtFftwn7SehqOHYC5LJXbjJK6s30WlsZuo1aMZspRggr+dRtSDGrT8+TBVKmq3cfvPR0JmHKkRjzVb7pF+hr/HTMNx4hqavdgaGeZYVfLGzsaMjCcPyUyVI1PFcHfRuwT6q3hhxQ4qu5pjZuWIfeWqWKhiSY6I0eSljjvG8bfn4T55E23aNxD388O2Ug3sbC1BmUTyw0eIp7KZZVzj2OjXkfWYRbfRr2NlYY61axUcdRvrG4Kxsb+VxIdQfn0sjmFaScAsU5MhAbNM5ZcKL08KiMBcl2iNPjD1QWBKuNVYmvyMpWmGWNxC7g4xP35JzO8nycxUIzO3w771cDzHf4hLDRcttJQppPy1gYebV5MYEiXuLItFlRZUHj6Lan16YCkeVqwBnID8zj7CNywl6uINBAsLzJx8qNjnbWq+Mgp7V3EHHwFSQ4n6dSH3D/9GSkK6Zi6sQ5OB+I77FK9GVfOdGasOW8nxcZ+Srha90gwyU9KQWdtjaWUFMhdqfnGUVi3suLlwJHdO3QRUKNNSUavUWNg7a9aQ2tboRT6+gU0AACAASURBVJflP+Mev4zd4xeQLoCglpOZmo7MxgErS9HldaXB0r9p16wKQtRuto+cSLJ47reQSUZKKjJLGyxtbJDJbKkxbhX9Rw0q8taHxvrXlPHRgoBpKQGzTE2GBMwylV8qvDwpkAXM9GKMYZpiMIsb2kWZgZCRjuhGyczMMbO2w8zSIvdRZIIKQZ6GoFRqNl83s7DC3MYWmVnOhubaEKwaIVOOOjMDmbj5urklFjZ2yMRN2vW3cFMrUGnyUyOTmWFmZYullQirAjZfV8lRpIqANbR/q0yzgbuFhQwhPQWVUmXYSzWzwMrOATNBzEueC3RZz5Y4v9fczgkrMS6sziQzJTWfMsHc2h4r65w1o6Z9qOTeK7ewoVZTow9iSNZCAmaZmgwJmGUqv1R4eVJg4bEAvo+3Iq12zjpMU42dsVCrqfmYms6Yp2rMEzJW33zXU+o6tCDQGMvb1DYW5cPCmC5FybM06msIuiIwrZ4EMlZzWol2na30e7oKSMB8unpLpZVjBTacC2fh9QRSWjX+7wkYet6WPiwMe08FnN5haKyvCH8rLShlGfKieFEFaWEM4KUBpcJ6j/nVoaT7OD8txHC0XUIIY/tI52GWlRmRgFlWykvlljsFYpMz6P/5ER4N6IlaM+alDTfqw0n/37nWSebxvIri6eTn/ZSU4c8bLs7bloLaamgyTGG0KGwbShOwxrxMYx8jhWm3yR8egkBCyC1a1XTixZbe5e7deV4qLAHzeelJqR1PRYE/rj9i+YUowqtVR+3qlAuahsYn8/M+CuOVZKU1Bon80plyv37ehsoxZezVUDkFfRgYK9PQ9YI0yC+/vHUoSPuC8jDlg8VQ3qb2m2GNZSgz0njy6CEVLDOY1L8xNlI49qm864YKkYBZZtJLBZdHBcTz1u+Gx7PrQhh3olJIkSvzbUaWATTWTmPp8rtu7D59gBVUh4LyMVZGca8XVEdjeT+N9plSRnHqaexeM5mM6u62vNi8Kq39KmNjJY1dGnufSvO6BMzSVFfKW1JAUkBSQFLguVFAAuZz05VSQyQFJAUkBSQFSlMBCZilqa6Ut6SApICkgKTAc6OABMznpiulhkgKSApICkgKlKYCEjBLU10pb0kBSQFJAUmB50YBCZjPTVdKDZEUkBSQFJAUKE0FJGCWprpS3pICkgKSApICz40CEjCfm66UGiIpICkgKSApUJoKFA+Y4pptRWlWT8pbUkBSQFJAUuC5VMBacxJcufoVD5g3gPPlqr1SZSUFJAUkBSQFyloBK2Aw4FTWFSlc+cUDphxIK1yBUmpJAUkBSQFJgf/nCoh7AoqwNC9fOhQPmOWrrVJtJQUkBSQFJAUkBYqsgATMIksn3SgpICkgKSAp8P9JAQmY/596W2qrpICkgKSApECRFZCAWWTppBslBbQKKAWBxAwVglp4JiQxdmRUaVeyrMs3tX2lWc/i5C2TgYO1BeZmxcnFVBWkdIVRQAJmYdSS0koK6ClwIyGTrWdDSQyOIElmjim8LKwJNCW9KWn0O64w6QuTVizD1PSmpsuqd2HSm5LWlDRFKdtUDQo8g1QGtmbg412BQa2r4V3RUXrvnhEFJGA+Ix0hVaN8KCAIkKpUM/96LHsPXCWhZnXi69REbW2VDQvRGGYZxOL8W3+JWn7/Lk7++vcaK6ukyjEln5Kui5hfYfqjtLU2RXdVWjoJD6N4cvser3Xy4bXOvthaS4dHl7WVkIBZ1j0glV+uFFAJAnNPhLLzbiyP69chw8VJY4wNGWR9w2sKKLLSmGrcTU2X5fUUJb2p95iarjh1MfXeLN2fhp6l1e6sfAWlkid3AmlsK2fmkMZYWZazdRjl6u02XlkJmMY1klJICmQr8GNIKov23iC8TTNUtjaavxcGhmL6vAa9KHnkX6aA6sY2En9aR0bYY2RudbEf8gEuL7Ula0hMhoAsMYCkLQtIOncJVaYNVk364zZ6CvZVXRDH0LJDi/IYUg6tJPbgfhSpZljUbI/76Hm4+FXRpNPWQ0D98ARR65eT6H8frCrh3GcKnkP6Y2mlNfAFaqRKJHHHFEJ238L1rdXUfLG1wfSK+8cJXPoJyclV8VuxDVdXi/9+qKjiid36P/wPBFBx2ib82jfITpNLd3UaiX8s4PL3e3HqPYvmo1/H0kJWKE+0sP1uKL0pwBVUKh5fv0O3yvBm/0bS21iGCkjALEPxpaLLlwJPMlR0XXiKhy0akVa5onEQ6JpnigdaVG80F4zUGShPzSV63mqo1gLrejVRR1wl404Q1sN/pfJb/bGwMkOIvc6TecNJDFRiU68xlrYpZARcQ2nXDq9FG3Go5qoFhyqZ+BWDiDp4B6taLbD2MCfz/hXk0ZZU/uwglTr4IUOJ4upaAt+egtKzBQ516yBLCSTljj/m7RfgN/ctrG3M8vlIUKN8cIGIddN5ePE+6rhUPOYepMGgLnrgEhDSYki5sJGAFfNJjs5AsGlAs50X8HDXhii1+qrJDP2b0FVTuX/tEep4OdW+Okmzni3y9JOAEBdI+NYPuXv4NJkxCbgNW0L7aZOxsix5YJbUx5EIzZgzfzPvlYb4eVcoXy/Oc1RbCZjPUWdKTSldBTbfesJnh/x50L09Mp0bVhJeRn4emCneR075AkSf4PHEwSg9XqfSVwuwqeQAaRGkfDuCx0ci8VhyCtcWnsgPjuPhsvO4fbWfCm3rYGamRhWwl4gPJqBo+wO+s4ZgLhNQ351P4FvfYDdmLdXeGIy5uRoh5hIRs3qT4DgRv0VfYakM4uFHg4m+602tNT/j4uOBmTKZxB1TCfhuFx4fXaJm7zp63miO9yoTUoiY1ZLHGZ2pNqoFoe/NwHGOFpjZmghK0o5+zKUFe6gy7h2Up9cTdd9KA8yK+sAUkgme2orH5i9Rc0At/Gd9RIUvTtI8LzCFdKK/asZ1fz9qj36J0HmTMR+yhA56wDRVd/1+K8o9Rj3vPKF+eUwML5jFMPJFP8ykGbSl+7Lnk7sEzDKRXSq0PCrw9e+BfBMtI6Ferf94l4YmipQmTP9jbAUVyiPziPhyIbYz71J5UF1daFWABz8QOmgKtuN+oMqbfYl/szKxNjOp/c1nmJtray5TJhG3YgCRe83wPf4H9nbpJM+tQah/Q3wW78HJ1yU7/Jp+fAL3Pr6I9+6/cY4/TtDMEShfvkijt5trwr5iiFaIOcbtEUMR6s+k/tJPsr23XGARkkn87Tdsug3BVjjBpe7DsJ99kIZ5gJl+4Tjp1dpRwSON4PcHcv+6iuY6DzN7Qo+QRPyx37Hv9DKWKQc4028cbjpg5i4zjdit32PZ7y1crK7yZ7dOMHgJnaZNxlLnYZYk/EoyL1VaGjWfBDKpbwOsraQJQGVhQyRgloXqUpnlUoH5R++xMtGaxFo1TBq3LJEwawHjf7nH5NJJ/fEtor/fj+vWSNzq2ObUMeMGEb2aoej8KdWn9yJyQFtUA9dS473xGk9FY9SFTFK2TCb82+14bImgsk8EjwY3IrHyIHwX/4SdS074U3FnIwET3sN+kT9V1L8Q8MHnuKyOomYzh5wyFfe5/1pLYm0747diB05uBsYb9duWeoSL3YbhoAOmwY8NZSRBMwcQcl1Fi50XqORuOE919G5O6YDZomeL/Mcl089xsmsnZIOX0LGIHmZJhVxNAasgl1MtJoCJvf2ws7Ysl+9Qea+0BMzy3oNS/Z+aAiIwvy0EMI15mHmNpClGM980qmSSVo4mZusNKv92F8fKljnwUj0gZmh1kmrNwGdGJ8L7v4rVmxuoPn64JrSsqaegJHXvbEIXL8V5WRzVm4QQ3Ks9ikYT8F28Ehs7s2zwqIL3EzhxIML//PG23UDAR1vw3H2fqt56S2tUMUS+1YCw5Ab4LTuCm2fuCVL/aUfqES7ogNlIN4b5nzTKSAJ1wGxpBJh/6oDZ0gAws/PVAVP0MDuX0hhmYZ+BgsK0yOV4xQQwQQLmU3vn8xb03AIz4OQaBvT7mrduhzDFRwpfGHrCBEFF7D8LaNBhHvavzeXc+s+pZFfODqh7iq9OFjCTdR6mKWNQBaUxtt5QvNdkL1WZSOLykcRsv0+Vo9dxdLfIuVf9mNhXKxPnOYWa09sQNngitv/bRLXRQzDLGosVlKQf/IiQBQtw+ioK75YhBPTuirrZO9RatARrWy0wxf8pQo8SPLE3yjE3qOH0A/c+O0D1AwFU8dSDtDqe6PfqEhzth9/SI7hXt8vuKYPtTj3CeR0wm+Sa9KO3ZEcHzKDrKlrrgGlIX1X0bk72G6cZw2z1n0k/epqmn+NEV21IVgSmdSlO+snbl0XxTNUSMJ/i2264KAmYpdoFAuJC96wJIvkXpU0nmoasKf35pRU0CY2nM9osQSAl/B8mvzKczZceUU0CplHJRGB+l2iNCMziwNJUT9LUdJq6iB7mt2N4vOUqVQ7ew7mKNmSngZwyjMdDapBUdxY1Z3QmrN9QrCZtwHvCq7mAmbr7A+4vWYHLyli8G90nsFdbMhuOp/aildja5ywPUQTtI2DiYGRT7+FtvQH/eT9Rded9qvmIJwLrylRF83BSA8LTGlN/2SHcqtgUHMZOPcI/3YbhOPsgIjD19c0CtUwZyb2ZA9AHpiEPTgTmCT1gZt+v6+Hse9LP8YcOmF2LGJI15kHm95yY2rf66cSQrKfkYRp9T0szgQTM0lRXGcsvs2YT1nIkEwd1wN0uH09Xnc6ZDd+yK8GHqeMH4OOaE9rKW72Qc/v48dgDhr41kaaVtUaoKD9BrWTHl68waavAYLP9nG4ueZjGdBSBuSofYJb5pB+1nLRN7/Bo7Q4q/BSNh59dzthd+r+E9XgBVc8v8JnWh0cDW5DZdxV1pkxCppttKVNnkPjTu4SuPojn9jAqV3vMw+F+xLq9TO3Fm3FwzfEeM26u4+7E93H65i6eim34fzAXpxXR1G2l3cJNA5HMIAJeaUOc64s0WrEVRxfteGO+oNABUxzDbKoHzFyemA6YgddVtNELyWblmZVWH5itjYxh/l7KwDQVjKZ8gIkepgRMY29p6V5/hoEpEH9qNm49vmXsJ1tokbKXH/ec4mFsGuZVWvLh4hVMeKketuaGkZErJFtDRlJ0BI+TxBOvDf9klo5U966MlYHs5GEnGTBoKFd9f2Rj3xt8891Wbj5IQG1blVdmLeOziV2oYOhGVQL7pg5i2u5byF3qMW7qHEa82JQaVStqNlfO/qnlXPhhLqPn/0Kc0om+E97n3Ve7U9OrMi721tlegJg+/NyvvPPubP4JTqTVsBnMnDSExrW8qeBsh4WpU80FNQm3fqLXS5/RbfVWvBZ0YEktPWCqolnRrBJzVf34bd8vdK0t7WUpav+1zsNMKcKkn9LYbi13nmoUp74kdN5n2L15Ea9RLbQzVgUB1Z0FBIydj9NbW6g65kXiZ3oTlfQG9dYswcpSG2oVMuOIXtCDiDO++P22A3sbOSmLGuL/VxVqLd5DhXoeWhgKKpJ3D+LOtzHU2/E7jkkn8Z8xHHm7Q7R8vxvipFszsczwnVweOwaLVvNp/NVUxMe9QHikHuGszsMUgSmm/U/YMg8wKxcw6ed3nYf5gi4kaxBI6ec4rgNmtyJ6mMbC6kX1QA3VVwRmFcnDLF0iGsn9GQYmpJyfh2O7BXj69WD46GG83KkhFokBfD/rbY6ou7Bt31a61zJszHMBs3oKv05+jam7Lucrh3mVwZy6uIY6Vv9NkvnoNAMGDuGPSD+Gvfwiw4f2oLJ1KsfWfcGXW+/w/m83+ax3lVzjTTkwzCD46hmOHTvKb3t3cz22Au27dqfXwEH07dqSig7aL3fUCp4EX+XY8aMc2r+Xo1eSad2tBy/17c/Aft3xqWCtm82oIjEigL9OHufwoQPsPRmET8sO9HipD4NfeZlGVR0N1yO7QgKZUf/wTq8+3Goyjx3fTuC3Hm55gJnIgWmv87OyFZ98NINGVXLGn8r0aS3jwkVgih6mqcA0ZiyL633kvV9IuETkmy+RatELr/nf4VDdDSHBnycLXiX6Enh9dwI3P3fkf35AyOe/4DRtN179WmFhpiLj0neEzPsM86E7qDuxh3ZXoIcbuT16Ghb9llLnvXFYmqtRhhwgaMYbpNd9n8aff4iV+iEPPh9M2Hlzaq/YReXG1ZBlxBK9fgL3tpyj+tLL1GzvpbfLUD7gTD3C3zpgNi9gDNN/5gBED/OFnRcoCJjH+43D/YuTtDEy6UcEpjB4Cd11Y5imeHr6aUq6DwsqXwzJVpKAWaZW4JkGZurFj3Fo8xWtX53H7h8+xkscRxGUhKzthu+ceFZv38fbPX0NCpjbwzRDnpxESqYyf7FlVri4OWFhwMNURJxhwMDB/Olfkz13/qJXVRFeamJOL6JO33m0fPMw+5e+hF2+8VEBQaUkPS2Fu3/v4PMPPuZoUCoetVrx1rxlzHylGTa6ewW1ioz0VKKDz7J4zmw2/hmIjXs1hry3kEXTXsbZQvtNK45lKjPSSIy6zcYFH7P8l1OkmNvTYeRHLJ43gQaVHQy2VVDG88uMkYxZE8WOu38xsKaaNS845QamJm85CsywsrKSjhnSKSkCc3WiNanFHMMsrFHOL/1/jLWgQu2/mtCJ08i0rIp1bR/Uj66TGaPEefbfVBvYWNOXstT7RH0+jMgz/lhVroWlTSLyhxGY13+DOl9/g52bbkmKoCBh8xiC1u4Bp5rYVDQj42Ewaqt61Fp6mIr1K2nWXKrC93Jr5FCSzSpj61MTWeI90qLScRqzm6YTe2JhbngHHSJ+5dpH3yBXibsKxZJ0NwjzKnVxrOACZq5UmbyO2n7WhG38gLDz/siETFLD7pGRpsShdlPN2k7rat1o/P4XOCVt4ezHa8hQgaCIIf7efSyq+uHk6ojMrAI1Zm2inp8HxJ7g7w/mkiqaAnUisXf8MXPzwrlKVczMbKk85GNa9+tq8hZ5xQFmfuAV/25oUpDoYUrALFNeihEb7XSTZ/GnAeYLCxk+ZzsbvhhI1gTOhMODcB12m6W/7GP6y/WNA7OYs2S1wBzC3/J3uHP5M7x0S6DSbq7Cq91UGo/YyoG1w3AydYKpKoUL25fw3tzlXMocTkDI99TWzpfI/VPLCTmzlRkzPmT//cb8HXyIdq4GXGBBxePbf/DVzHdZdQYWbdvLjJcN7TkpEPznWoZNXESz+adYO8wbC5JZ3SYPMJ/Fh+EZqJMIzDVPEZhFmUkpyqQK+Z243VtIf/gEM7c6OPV9C9eWdTVGONvApz0g8bfvif/3GkqlLTYNe1FxwAjsKmhhmWXMUSSQ+tdWon8/RobcAusaL1BxyFs4eznlyk8de4XIbetJCHoANpVx7T6Wql3aYmGRsxwlr8ctRO3k5tebUOj1bc43pz0VJyzFt4414b98QcS1kP88AWJay0otqT/5YxyTtnFx4S+58spuAw54vbuKOnXcIe4U5z5bjP7gTE6ZVrj3mUrLnp2zyypqHxiLLpj60aRfvghMD8nDLFNL8OwDs+0iRn16kPXzemR7YUlHh+A89CZLt+5l+oAGTw2YZ83mEXh2ChV1Bwak31qDV7vJNHp1CwfWDjcOTPGg4Yjb7Pt5PduOnOFqYCx1+n7C7rXj8cgzH0iZFsXxX3/gpz1HuXQtALsm4zmw6wtq5p04pEzi3yPb2PDLbs78c4k4t+6s/XEFLzev+h9dhLR7TOvZlyv1p3Fw9bs4a9ohAdPUN3BBIYFpqvdhajpTjWyWsS6tfAtbD/30eetUGnU1td2mpivJ9hYnL5UETFNf1VJLV06A+Rvr571YdGBWT+fQ/Ol8/tuNfIW0qNKbrTs/pYaBDTSyPEwRmEFnp+BRKGAKqMVw7JNAti2bx2ff7SdKaUeLV2aw9LPJvFDTTTe+IyCGY+VJjzm5dSmz5qwgUG6DT8cRzP/6Mwa08sJS84aL6dQoMtK58fuPfDD1E04/SKdS/S68P385k3rX1xw++9+fivANvfCedIH6TZrh5a5dSA4KQs/8yX1nH9o1rE2n0Sv5+PW6SCtX/6tgFjDTSnDST3EmAz3NCSfG4FLYupSm52asLmLPmry+Vc/bNqSBsbJKytMU8xE9zAqSh1lqMDQl4/8fwPTO4OyGb9n8b2j+mji15JP5E6higBRFBqaQQfCp3fy4bQc7jlzFsWYzunbvxbARQ2lTyz1nSYigJOrWGbb8upUde/4g0d6X9h27M+S14bzYvCbWunFLjT8YeZe9W35k6687uJNSiTYduvLysGH069wMV1vzApaZqIn5cxkfbQ/Ko4GC23s2cN25OYM6t6Rp39m8N8hHAqaBJ0UE5tpEa7KAWVhvwZB3Vdg8Sip9WdTFVG+ypGCWX3nG4F+SkDOmc2HqIgLTTQKmKVwrtTT/P4BZQmOYhfYwldF8178Lvzr3ZcqEYbRpXBdPd0cs8y7/UKdy+PN3mXxKzfT3xtG9VQNqeLljbWCZiP/RNbz91QG6jv0fAzo2wde7Cg66MweL9pQYCMmq5dw7vpdrSk+6dm5HRUdp30pRWxGY6/SAWZqG1RQwFsbYlnRdC1t2SXqUxiBkinYllaawOpiSXr9u+ulFYLpKwCyamSuhuyRgmiBk0T1MFfIMARsbIwFOQU2mQo2lpbnRXYFUSgXIzLNPmTCh+kaSGACmtA7ToGYiML9PtCZdN0vWWDiuuEbZWP4lDcGC6lucupQkLPOGU0vaGy0o/7LYnEK/TBGYLhIwi2/yipHDMw3MzIjTLN50jkadhtOnvU/2ko+M4F0s2R3DiwOH0qaOdkF13l9J7iWrSg5n567dPJR14O03WmGve4oVMZf5dtNxKjYYwCu962OdM92uGF3ytG/N4PLGJZx3bc+Yvp2xFwdK1alc/H4eU38JZeFPW+joY/+0K/VMlicCc70eMI0ByxRvoqA0ZX1/cYCfNxxaGLCVdbuLW35+HmJx8xUn/ThLwCxT2/BMA7M4ypQkMItTj/J6rypiMy9POsPCn9fQ0E2aAiT2YxYw5SW0+XppA9cU4BXXiBsqo6geZVHvM6ajKTqUFuQMla3vxRam7lnAHC+dVlJmZlUCZplJ/wwXLGRwa/UYfhEmMPft7uj23X6GK/x0qiYC84dEa0oMmPIYnsztAUO34+GbStTir7EbswrXBhWz910tHNAESA0nfs8yInfvID0uFZltRZx7vI3XyEk4VHbUbO4vU6WTfn0/jzYuJPZGECqVGVa+nak6+kM8O7bSDA1oDb1AZugZHv28kEcnz6BUmWNesSGewz/Au3dPbB2skckEkD8m7vfvCf5lIwmPYsHMDueOo6kzZgYeNSvqDpXW9lFuQAgoHl0gZPMCgo7+QabKDEt3P6oNnUW9fv1wcLLR5f+EJ6d+5PbWH4gOf4wgWOHW9nUajp2JV13tLkJiXeVhf+G/eSH3/jitzcujIbWGf0DDPr1w1NRVrIGAkBREwC8LuHFgP0kpmVg4VKNa3ym0HDaSCu72BdTXyPZ+BZxdmh8YC/ORIALTKSYACZhP5303VIoEzLLTXiq5nCmQBcwME5eVaIykOg3F9b/ITEjLvSGA2HZFEklbPkRo8wGudVxIPbULZaXeuPfsi32d6lq46TQyZHD/c035hLgVwwg9HIjrK7Op0KgGqsgLRG5chbLGaOp9vQgHZwuUQQe59/4YUtxH4DOkO1ZWclL/WcvDU/FUX7Af7xY+WrBlBBPwXncikxpRc9Ro7Bwh485OgjafwON/m2g4vC/mpBK3YwaXV2zAdeDnVG/bEFlaKA+3LSdW3pJWq7ZQ0UPvnEz9zRMy73N7eg+Co2rg98abODqbI7+3j5s/7qHihB9oM2YYVuYZPDnwMae/Xopzn8+o06kJFooownYu5VFcPTqu3kG1Staaul6a/CKBCfVp+vpYnBwh7c4uLm8+TrV3NtJpxMvaHYcUkdz9rCfnL6upO2IaXj4eZISf4t91a7HpPI+esz/AxT5ntrkxD7BwHzTFA64ITEcJmGVqNZ5bYJapqlLhz6UCC4/e48dEa0Rg6ofVCvy3Ipwnb3Ug7voDkzVxGPwT3rPfwFJv4M/ohBNBQB3yMzcmvoll6+X4ffU2oqMoQ4l892tcXvYnXvPO4NOrLnEbO3B7iz3NDhzF2UELByE1nKBpTYmQfUbHNf/TrPlVnhnK6Q9vUHvBXmp2bKirv5yoT325fuclOm1Yi738KldnDeJx4mi6b1+AnaVYphr52QWcnP0xLiNP0+7NdphnHVSd9QEgCGSeG8+BGcfxm7ebRn3a6D4QMohcUItTF9rQa+1G3GwecmFuL4JCBjBo30qcrMQ1lALpV9Zw6P2pWPc+Rt/pXVD+NZxf51ym5Vd7adKlsW6dpZyQz305cfNFhv24DldHa5R3FrFh9Fyqj/yFl6YMw0ojrIK4DZ34ZWsKXb8+RJPW1bP7qjiTnUoCpnkn/dgXBZhZm7kZOjswv43ejJ8z+N/n2dg9Jr8Bz25CCZjPbt9INXvGFNAHZt5JLQV7gCpUD+6i0myaqvMyrDyw8XQgbmkPknxW4Dv8BVCqkZmbaWZKF9rYCgpSd8/kztJVuH8Vjm83z5zF+U/2crXvq1gPX4nf//oR/noNon2/oM2XH2SfcCNTpRK5diT+P4fR6NAlKrkl8ejdmtxLaEezxTup4GWfHU5N+WcO56f9Sq3Nl/FMOcClWZMwf+seHV6pmb1dnpB0jnPDepHmPYZ2K5bjpLebhgYC6gTCPmjGv4GVabvsGF41nbLzT7/5FUcnrKH2qjPUcb7J6XeHonj9Gv1fb5CzHV/KVU6P68tji5fouW4psbPrcO5JS15csptq1bT7KIsaJp6fx74pm2m26RLN6jnycO1r7N90jDbfhtG6tUd2merHP7Hl5clUmbKVnq/1K/goskJ4/YXuxwLyVsrlFAmYe1eDZ29o45PzRqnkcPVvuPgvJDvD0MEQdQy2XYOXekK1+tCkcX1XbQAAIABJREFUmlbElMfw52Xo0Zvs3WP8D8JlO3i1C2z/GnxGwwu69M/Ye1uS1ZGAWZJqSnk91wqIwNyQaE1moSf9pJAwoxmxgVpgan5e46i1cgbJ379OdOIo6r7fnZQdi0h2GEHV/vVz7/ta0DmSWQZWncqTtRMJ3vgnNXaG4llD7zDnzHsEvOxHUssPaTKjJ3f7vYhs5Pc0ffuNbDjLBAVx22dwY/l6vH54Qt26D7jRrxmJNUfQfNF6HJ20nqgIO/m9X7k4cTS2HwdS1+xnLs5ZgdfGhzSsr9u0XayT8hF3xzQhhNa0XbEfD3fdqTzZ52UG8+9r7Xlk3ZaO3+3E3TXnvExFxBFOvvYyFtMu0sbrL/545xO81obQtplrzoeE8jE332vPtUh3uq5cT8ibbYnyGkLPpRtwd8o57Do9cAeHxo/Cbt5d+nd35tonr3D2jzB67fGntqc2VKyBWsYNDvVrRlLfdYyaOiEbuCUJvOyPJb2xzrz5F1SeCEw7Uz3MC5tg8yXxlAa48DtUbwdVdAcymLnB7PfhyTX4dDyM+gXCNsLmB/DeELi2FaxmwqKXtB1+bClM2gX//gMe4iz6JJgxCKx7gioa7p4BhTc08obmvWFYNwyeYvEcWAcJmM9BJ0pNeDoKZAFTqQvJiqWatlwimdjxDVAP2kWlvq3JPLuS8LX3qfnTYjL3vk/Yb+7UWdKXyA+HwqhT+HTS7gNsbPwsVxpVEo9XvE7Ir/7UPXwbj4paAGnSqCIIHVaVSO9ptJjRnhsD3sD+nY00GvtK9rpfM0FJ4v4PubpwMR6LYmjYPIRLPTuR2fRNWixejoOtWXZbM0N+499J/VFOvE0jhx+48Mku6u0LpraXHhTVsYS848eNOD/aLjuKp5dt7jalXeevV14kwb0PnVdtxNUhZ5N2Vcw/nB7ZntQRf9G59h8cm/o9Dbbfo6lvzlF+MnUCQR+04e+7VnRe8B3+7/YhrcFYei1ZiYvulAax/RlhRzk6vjeZ468zfEgFLswZwr9nMxl4+CLV3Sxy+k8VxslBNQhtvYIJ86YYPC2kUP1hYv8VJuQrAtPWVGAmRUJUIlxbBTvs4bNxkLX/iMwSPOzg15WwfCU0GAkvtYM7e6BhDzgcCJuWgqsZJN2G6Z/CAzvY8hNUUMIfn8FbN+Hw1+D/AKpXFE8Mh+NHodcEaFQ194vxdF7Pp1KKBMynIrNUyPOggAjMjYnWKAoz6UfT8GRix9Yio/V83Do0QHl9B5GHBGpvXYbs6ioCP95FhTFNiTsQTc1Vm7ATB+pMMLi5vBFlIpErRhGyLQi/Izdx98jx2FBFEjrck4hqU2kxoy3XB47F8d1NNBwzVHM4uXbyqJLk/XO5vHAR7guiadwimIu9uqBo+hYtFy/TADOrTpkhh7k0qS/K8Tdp5PgjFz7dQ4P9QfhW1Vpk7WSnOO6/W49rsX60XXoEz2p2uT8AUq9xRgSmRz+6rt6Ai70+MM9zelRbUoaf1gJz2gYabfensa9DTh7qRIJnt+HMHUs6z1+J/3t9SW8wnl5LvtEAM0ubjLDjHJ3QE/nYa4wYWoHzGmCqGHzkAtVdczxRmeoBJwdXJ6TFciZ+PNVkYJaGB5pfniIwbUwFpqCEK/vhjTkwbTW0dNe9gmbg5QuulnDvMHQdAa3HaK+nJ8PNCPhoPtSvAlZJMHc6dJwMu3+EZd+D6gp8+DVcNoP9k2HwajgpeqR3oW4/+OMO1NV+HD2PPwmYz2OvSm0qFQUWHb3HJr2QrOnGMpknoysQHWKHmZUFgkKOuuIkGuxYikXSBULHDiE5PhPnkavxGT8UM92WiIXyaNQpRH83nsCfz1F7XxBVvPTCjYoQAgb6EtdkNi1mdOdGn35YjfuBZpNG5oyXCgrid77P1WXf4bkmjgZ+YVzp3YpkvzdovWg1jg45cMkI2MWFScOx+CCIBhYbOffhOmr+GkaDWtoN/TX1VkbiP74x/opmtF/xG5Ur5pkpm3GPc8M7EenYha7fbaWCs15INuoPTrzWE+GdC3TwPs3Rd77Gd1MQrRu45ABTFcOtqe24FO5Et+XrCZzUiVjfV+m9dB0VdBOZxLqkB+/l0PihmM/yZ2hPZ/79aCj//BlNv/03qV1JzyPOvMuhlxsQ02MN42a8Wfgx5CxvPgdLJn30mPJhlJVGnCVrZSowz22Ceevg4gMYNwLtrioChN2Dvp/A601g1xcwYRn0fw1694MLS+GsCqpYQ2oNGFsHHrWAaQ1h0lxY+j04p8GTG/DqN3DwWxjSHeafB/stMDgUbszXlVUqr2CZZyoBs8y7QKpAeVEgC5imepj5rrFTq1CnxqJWOWJpG0v0jE5E3neixorTuPlaoYxPxcLFDTNxApAp45diGiGTxF+ncOubDXh+F4VvK9eccGPiH1zu2QezQYtpMrkvQa/WI771UtrNmZx9OLhMnU7E+nHc/PFfGu27TfVKcQSPq00Q3Wm9eDsVKoqHpuvmgFxawN//+wbvH67jnb6Hc7MmY/fRQzq+mLN+VEi9xrlXuhLvOYROK9bhqgOu2NcaXVQxBExuwZXHPnRacRQvr5zxT/m9Vfz2xqd4Lz9LI9er/PHu61hMD6RfP+8cPdLvcnrsS4QLbeizdiWR0xtwWdmB3kt24lUpB9xJVxax++1l1Ft3lQ6NHQn+5lUObDtD5w0PadkgZ6KREL+Pn3uNwvWdnxg4eojpuuuB0tAHVGHWWRrra4VcjnVMAONM2bjgxmHItIfXv4Tzx8FZzF0N+1dBYhsYWAm+XAmhR2DCTji5GM6HwOQlEPUzJPQHu9Ow87R4IjcEhUH9UXB0KXATXvoSDv8MX3aCGhtA/h2opsKMuuXldS5SPSVgFkk26ab/jwosPxHMD5ECSr9ahfZAyExB8fAu8oCrpPlfJeP+PVQ1PqRynT8JW7QOtU1FPL88TKWGkYR99Qse7y3CsVKecb8Cw7QCiuuruTJlOjZ9f6Xx9MFYiMtKBCXy39/j3Cfb8ZrxG3WGtCR6aXNunW1I261bcbTTLStJe0TAnHaERo+g288LsLVUkrbzJf5cG0vjhXup0bKmFiJCBhErWnPxRA26bN6GU9p5LswcSqzr5/Ra+S62FmIaNRnXVnFsygwc+22j08zBmuUbuYGiJOXAK+xfepOmn+2nUecG2mUlQgZR69pzbJ8LPdbvoIptGH+/34v7zOLVdTOxF5etCAIZdzezf9rbmLX5noGfDEe+tzfbVkfR4eu9NG5TS+vdCRncX9mGQ8er8crP2/CsYEvq2Y/4YepC6r5zjJdGd9cs3REnPMXvHcrGb+7Q8fP9vNBZeyi9MYA9zTRiXTLT07F9Esi4PvWxsTJh962MIKjfC14bo5vdKsDtC9B1LrxeHx5FwvIRMOoEVI6By/tg9x3oOBTG9gGbrD1Ao2H8h7B0vXbSj/wmvPgpfP8lXN4O6fXh+A6Y+CH4uoO3F7nWRD1HxkIC5nPUmVJTSleB/bdj+PhQABnd25tkULVjg+mkrR5IyJZTCIJac5apVf3+VBg0CWeHv7j/0Vps/7ebivLPCffvjN/b7gR+cRrvJb/i6KYNGZo8k1IZQfg7zbgfXonaX+3Dq7kPqocnuDVjFPGJDWi69QjuFayQ39zIlSnjUXb6mbbzRmJjkUHizje4sPgkVReepknXBppCZfLrXBrclFjvmXRZsQh7KyVpZz/l1LRlOL+2knaTJ2BJEg+WDuHc7n+oM/c0Tfu1hNT73PxkAHfPZNB27w18vWy0+eVtS8Zt/hrSkIeV3qT/d6twshFIu7iYA//7GMf+8+kxewZ2FumErRvN8Q17qTPzNB2HtsdcGcP1L/ty8UgcHXfdppG3jWaW67EhTXhYbRrDv1mKs5WSlH8+Z9vUxbi9uoKBU97EykIGilD+HuHDFXV3+i3+hdo13UkP2MGOdycg9xzC4G9/pLJeeDgLinnhWJKeo6ngVaWnYhcfzLg+DbEw158ulM9zLwKz6WjYtA4cdCHZP7eB4wAY3UqcEgWT24HPm/D9UugxCWZMgGpO6A7p1WYszrRVKsFC/BrSAbPLLBjSBG5EaEO9KjWYm0Od9vDeeHB5Pk84koBZujZWyv05UiBZrqTvZ0d50qc72GlDiMaNnQrFP2uICwTbui2wb9AcK0crhLCf8X9zAfbDP6faa4MxS71LxOLxPLnqj92LK6k99Q0sRQNfqCUIAkLMKQK/mE3MrWCws0ednopV9bZUn/ID1ZtW0kIrM47onZ8TtHM7aYkqzMwzUVt5UrHfNBqOHYONbRaoBZLOruTWmu+IDY3Fwt4ClWCHS6uhNPrfp7hXESfhCAgJ17jz9TRCr91GKbOGzCQsKrXA5801NO5Sr4AJNALJl9dzaeUyIoIeY+FojUpliWvjfrSauhDPamLIVNzK7jbXF0/H/9JVMgUrZIpEzN2bUWfcCl7o1UK3BEcg7p/v+Hv1SiLux2LpaIFSbUvFFkNo/97nVPXMmjAkoIg4xInPPyL4bjgyB1vUGUocfTrQdvpa6vu5Fzjhx+SPF5OeDVOeH20acbOGhJC7tPV1oGvznI0Viv16ZaSBmTWYy8DMBAhrClRBWibY2uZ8zRW7IuUjAwmY5aOfpFo+IwrsvxDGp1fiyWzRCJn4RV3U0J0ilvSgaKx962JhZaYJY6pig0kNDMO6TjtsK+SZVWrqWKY4UpX0kNSQQBSpcsxsnLGtXh87j5wJM9pJOSnIw+6SFhOLIJhj6VoNhxq1sNYdRZftDaozyIwMIuXhA5QqGRaOlXD0qY+tg96kIlEEeQzJwf6kJaYgM7fDrmpdnD0raSYwFeQlo1aQGR1EQngYSqUMCwcPnH0aYu9olQtcZMaREHSHlMRkZDIb7Dzr4Fa1SranpZ2Zm0laVCDxDx6g0tXV1ac+Dnp11Xr9ApnxocSFBiOXKzG3dcW1RkNcXHM2ZzDtY8gw8Ar3kWNa6Ff+JIKEB/eZM6o1djbPp/f2jLziBVZDAmZ56CWpjs+MAmq1wCfbrnLYrjKZnpWhgIk5hVljVxrjZfmVr8V8ludiupdTnDoa00LrReX8SrOs4uRd2HuNtdt4fgKy9CSuXLjMkjfb4+yg3ZBC+pWNAhIwy0Z3qdRyqoA4nPM4PpWtJwPYHStD5etNhrOLZszHVK+kpNOZ6uXmHXcztR6m5l+o8VZd/5fUPabU0dT2mprOlDKLmkYMwcoU6YSHPcJBmciAdjVo4JO1lrKcvjzPQbUlYD4HnSg14ekrIM9UcjUohp9Ph3DjURJOTjaI3qf+L8vwGqqdoWsFpc8yvMZaml8exvIubv5Z9Srpcgqroan6FzadsXYVp56GtFcoVDjbmvNS86q81LoGzvZW2bsyGXsGpOulp4AEzNLTVsr5/4kCIjyT0zI1kwmln6RASShgbWmOo72VZicm6ffsKCAB89npC6kmkgKSApICkgLPsAISMJ/hzpGqJikgKSApICnw7CggAfPZ6QupJpICkgKSApICz7ACEjCf4c6RqiYpICkgKSAp8OwoIAHz2ekLqSaSApICkgKSAs+wAhIwn+HOkaomKSApICkgKfDsKCAB89npC6km5UABcenI7cRM1v4dRmx4DGYpqYWudWksFPj/nGehO6CAG541Hc3MzKnt7c6IzjXxruhQkk2V8iqCAhIwiyCadMv/TwXEZZYXHqczactVYlxdSarhhdLWJt+9UvPuGKO/q42oYNZ/F5RO/578TsjQzytvvkXJOysP8f8NlWlouzdD9TSWT367/JhSZ1PvzU+Pwupf0BZ2xdU/b976+QkqFXERj3kcEMwHL9elXUPP7APG/3++hWXbagmYZau/VHo5UiAwWcmr3/1FSAM/UjwraY46Kgz0DIGgJAx3fsa8oCOoigql/CCqr4OpeRcWNIa29jOlLFM+IoylMfbxYCrAi1rfjNQ0Hl+/zsx+tWkobZFXZlZDAmaZSS8VXN4U+OZiBCvOPuBhx9bZ25QVFhTGgGPsuqmGuaTyKUx5RdHCmActQrKwHyV5ofSsaWGsPvldT09IpK78AWN7N5C8zDIyHhIwy0h4qdjyp8D8YwGsiLcksbaPpvIFAaKoRtFYnoWFUmGAV1D41dR8iuLtGtIybzsNQfBZ16KknwFVejoVYwOZ0Ls+NlYW5e8Feg5qLAHzOehEqQlPR4H5R+/xTaI1ibVqGAVmUcBRGCjlD2wBVdDvJB3eR0ZUHGaO1bHr+gbObRqKB6roIC9ASjjJxzaTfPMuKoUl1rU74tZnGLYejmKkOefklYx40v7ZQezff6FIl2FZtQkV+ozFuUYFvXQCQvS/PN7/K8lhkWDhhmP7YVTp0gFLS3ODY7y5YKJKIfnkckL/DMZl0Pv4tKpv8B5lxAWCf1lPapoHtad+iauTNm99LVAlE39sCQF/P8Bj+DzqNKlpuK/UcpIv/cyN/adxfGEUjfr2wtI8/xC7sQ+kwvRdUeGvkstxiwlgQm8/7KylMzGfzlufuxQJmGWhulRmuVRABOZKHTCfSU9QUKO+vYSw8bNRWHhgXccXdcR1FLEKHKb+Q/XXWmgPdE65z+NPBhP91y3MPWpjZZeEPDwK8wYjqbN4DXYV7LSQEVQkbBxOyNp9qO29sa1sQcaD+wh2vtRc9AeVmnhqgKUO/ZXrr44k1cwF2xq1kKXcIy0qHYcRu2k+tT+WeodI54aFgJAaQcSa0dzccQrUtlSde5AWg7rogVAAtQpV6C4uTB1NdEQm5o7NabvzAlXcLfTO0BQgOYygb0Zy+cB5UDvg+9VJ2vVskf2saT1oAZkyg8jdUzizagPpaVB52BJemjYZa0tt7YyN/ZZVyFcEpqsEzDK1HRIwy1R+qfDypEAWMJNN8DCLYngNTQjJ69nk/98CsvgLRE7sTZr1S3jOX42DtxskBRL39QgeX8ig6rencKtfgfQ/ZhD65Q6cpu3Fq38rzM1VKK6uI2TOh8gGbafepJ6YyQSEsPXcHjMLy5eXUee98VhaqFGFHyZo6muk1Z5Bk8/nYakKJ/zTwYT9a07d5Xuo0rg6MkUc0T9M4u5Pp6i+5Cq1OlTTeLe5PEENkNN4+EkH7gdXptrI7oR/8ikuHx6k5aAuOWkFFWmnF3Dmo7W49R0Otw4T9ciWdjpgZn+4CKnc+7A9wRHe+AxsQ9D8hVT6UgvMXB83gpzH33blrxPgM7wfESs+xXJoDjBNmZRjqjdZ0s+AWi7HWQJmmZoMCZhlKr9UeHlSQATmt4nW5AVmfoaxsJ6KqYbYYLhXUKH880tCP/4cuzcvUm1UC13IVEDwX8a9Nz7BcdJmvMb2IG56dSJTx9BgzRIsLc203lxmPI8X9+bRyarU/20XDjYZJC+oj/8/Vam9eDcV6lXUeX1qUvYO59bycOpt/wPnpBPcnvkqGR0O03pWN8zNRA9NQP1wL5feGIVZyy9oNn86NhZaFOWGVxIxm9di2WUsFdz+5VT3YTjN1gIzu42CkpQzO3hi6YdXY3eC5g3h3nUV7XdewNPdQi9dIo9+2Yhdl9f5P/bOAjqqow3DT9yVkEAIETQ4wd1aXIJbobgWKVKgUCju7i1OseJW3N1dAhECBGIkELeV/9zdTbKEJLuB0JD+d8/pKdmdO/LOvfPc75tvZqwMznG0RW/yTjtDTRUwU8qWxxL4x+9I6w+lQIEAjn5fF52282mssjDV6/cJ4LMYgJSV+0Kbe0WwMAVg9hFdsjk2bIjAzDHpxYJzmwICMJergPklcNP22ixZKLI4ojcMJuCPXeTdFIJ9CdNUmMTfxb9RJZK+n0aRkU155VmJpBYrKTG8Pzoq009XnsD7zUPxXb4Ppx2vcXQJ4lX7kryza0WJeX9hYaOcMxPqnvBoLQ/7jcRq0VMKJu3g0djfsFoSQsnKFqlATPTFq3MVQiwa4LFkO9bWanBTuT0/glPMUc42UAKzcpt66a//lATyaLQnXvel1EoLTDVXqjRkD0da9MZu2hlqf+KSTXW5EneVw/XrQNv5NP1Cl+zXCkBSv1cEYFqKwMzRYUMEZo7KLxaemxQQgLkiwojoNC7ZLIFNg5WivQs21VpTXCON4sOyngRuuUuBQ8+wyW+QCi/JK962d+F9sdG4j6qHT4v2GPVfT5G+nRXLYxSDsmDJ7R3Ls/mLyLM4nMJlX/CkSXUSSveh5NxlmJqpLFEgyWc/j/u3geHPKGK8gYcTNuG8yx83N0NFdyqsJWkIrwaUwie6DOUXHcE+v3EKcNNbT4kaMKt8NIepFoAkCeTxaE+e3pdSOw0wPwJLyB7+UVmYycBMF2hxVzlYv47CwkwGZkYvM59Yx6obV9NctjaWo6Y+T3YTC8C0EIGZo0OGCMwclV8sPDcpMEtlYcZ8RWBqM4eWLqAlEYQv+oHAv1/gcuw+1nbKZQeKAV0WTFDnfIQ6DqfEyGp4t+2L6ZCNFO7RDl0hJFYFzNhDv/F09hysZwRTrJIvD5vWR+oxmJJz52NikgpMif8xnvRrSlLPBxSzWsuDyQcoctCbgo6pVqiO7D1vhxbnaUgJyi84ioNzqsWbbhtjjnJaZWFWVXfJqr9gSAJ5qAJmnV3XKaDeRrV0kpA9HG7RG3uVhZmhpnFXOaACZrMRwzBWBf2k6/JWyz8rrtbstDwl8fGYi8DM0SFDBGaOyi8WnpsUEIC5UmVhautWzWjw/RzLI1OYSiMJX9KDt9se4nz4KTb51C3M17xp70xY0VGUHFWH5y07YzxgPcX6dErZgEFXLiFq7ziezl9InoXvKFruBY+b1CShTF9KzVuKmamyxkIdknwO8rC/J/IhXhQzWcf9iVtx2/MCVxfDVKtWGsrLASV5Hl2aiguPYu+Y/haCKfCJOcqpBh2xGncIdWB+pJ8KmE/uS6mrAmZ6QBJcsgdVwKyrcsmq55OifdxV9qtcsi3Scclmp+cgbd99DnQFC9NUBGaODhkiMHNUfrHw3KSAAMxVKmBqAt7nuPDSA6K27jodWRyR6wbx6s/9OGwNJF8xE7U5zHv4Nq5IYoMpuI9oil/rakg8V1FqaB/lMhOFFZpA+JZhPF+2m4LbAnB2DcS3XWneObShzLxNWKjNQcY/Wse9fj9jtcALF8k27o2dgu3KIMp4mKcsB9FN9ONxl8oEmden8uId2NikzmGm286Yo5xUAbO6epSsCtIKHVTAfHxfSj0NwDzQojcO086QVWBm5UVIUx9r+l1b929yPgIwTURg5uiQIQIzR+UXC89NCiQDM/ZfdMlqPejKpSQcn4j3tNlYjnyGW7uiqcD0X879DmOw7L2eQgOaETzIgbcGo6m4ZCr6eip8SSIJXNiMFwfNKHfyGFbG8byf5MqjR6UpPX8PdoWtU2AYfewHbk15RKm9l8jz/jh3R3Umqfktag8pr0ijeJkIPszFrp3QKT2OqvN/w8RAw767MUc5rgJmDRUwP3kpkQTyYLQnAjDr77qOUyYu2f0qYNZLGyWr7lqNu8o+lYXZMhtcstnhfs3M8hRcssYiMHN0yBCBmaPyi4XnJgVmqyxMAZgfRXhmEsjzNd16aS0UQs/i17818Xm6UWjmbMzzmiOPCSBsSUf8T4bjMv8s+So6EnOkH0/nXcJx1kGcqhZBT0dGktcevMb2I6n2RiqOboPAUZn3XG70m49Vj9W4/9gGfV05suBrPB/dlHc2g6k2dxpGUj+eT2qD/0NnKv75Fw7CDkCSKEK3DePWqv04/36Tsk2Kqu0ypOzxT6yrNMBMFz6SQO6P9uTRfSkNVMDMyCW7TwXM+um4ZFOuibvKHhUwW6mAqWn+UhsvgLbz0FkFrABMIxGYOTpkiMDMUfnFwnOTAgIw/4gwQgj60eSS1WbQ1Gbw1dolqwjcSSDhwhS8Jy5Fx6U65u5uSANuE/XQB/Mft1G0V1PFukt5+ENeTupE4HMdrMqUw8gokhivmySZ1aXE7D+xKaC0JnVk0QQu64D3wceYulfFLI8Ocb43iAo2oci0/bhWK4YOUhLvr+XmT4NJdKyBbcli6EQ+J/zBE4zqz6XqL70xM0qd/1SHhDz0OA9WbydBCjpJr3h9/AKGZRqQz8URdCzI13kChd0MeX1wKQGP/JHLYgm7eYaI9xLy1WuFmbEuRg6VKNVjEBbRR7mxejcJMpDF+eF/+gomHk1wLGAHula4dJ9MMTcb5B9ucn3ZCmKkgCQYv+PH0XWugHOp0ujpGeHQoB8Va1f6COpfex5aUx8n/y4A01AEZo4OGSIwc1R+sfDcpEAyMOMysTAzc6kltzUZtumdK6l+vbbnTqYd0BMf/83b1fOJ8A1Ez7489j2m4VjfI9VdKsAw2ofgjb/z9swlkiRmmFftilvfn7FwUM5DpuSZEEb4Pwvw27GNuFgDTNwbU2jQNBwK26TkJ6SVBp/n+eIpBD70Rm7qjGOH8ZRo3QRDA71PLMrkdslereDUwFnEq4RJfoFQ/mmJ68QDVPIw5dHC3nhdevzRrZKc1rhgfWrP3YDd+yXsG7woJa+P7ysrSsw8RfXy+ZEH72NXr6Gkf+y3Ec7dF9K8i2e6e9lqO7/5te4BYQ5TXwRmjg4ZIjBzVH6x8NykwJwT3vzx3oDPAaYm91taK0MbCzW73L1fkk9m7dIm35xs9+dajp9b5y+9BxQu2TAfejZ2x8RIPK0kJ8YOEZg5obpYZq5UYOlZP5a/TCK6TPGPt3hTs5Aym9tMC0FtgJLVaz4nT23BkXbA1wbqX2qVqV+fmRv8a7Y7u/LWVueMgBwfG4v5e196NyuJgb7Schc//64CIjD/Xb3F0nKxAo/eRNBr3S2CGtYBQ+Ui/Zw8QzKr86ifYxmlBdZ/6YVAk8X3uS8E2QVY9XyE/Xnjgl7iZinBs1YRxT7B4uffV0AE5r+vuVhiLlVAJpPz15nnLPGLJ7x0CeRGyoX66iD6Uih9qYtT20E+bZ01wTfd7ey0OET7W4OSpv7RBnbZkYe2/SSk00NTW921AAAgAElEQVRK6OtXJIYHMqydB3msTHLpE5T7qy0CM/f3odiCf1EBAZr/XH/B6qNPscpng6GGuaSMDAH1AVNT9TMzJjQZGl9ybVqopq3nl5SdnLemtmeUTpOuyflqmy6jenyJftpem1k6uRzeBIVTzs2WER0rKlyxonWpzV3zddKIwPw6uoq5/scViIpN5GVQJLHxkv94S8Xm5aQCOrpQwM6cfLZmil2ZxE/OKiACM2f1F0sXFRAVEBUQFcglCojAzCUdJVZTVEBUQFRAVCBnFRCBmbP6i6WLCogKiAqICuQSBURg5pKOEqspKiAqICogKpCzCojAzFn9xdJFBUQFRAVEBXKJAiIwc0lHidUUFRAVEBUQFchZBb4MmLeACznbALF0UQFRAVEBUYFcpoAR0A2wyl31/jJgvgX8c1eDxdqKCogKiAqICuSwAsLe8WUB4xyuRxaL/zJgZrEwMbmogKiAqICogKhAblVABGZu7Tmx3qICogKiAqIC/6oCIjD/VbnFwkQFRAVEBUQFcqsCIjBza8+J9RYVEBUQFRAV+FcVEIH5r8otFvZfUUA4RSIkToLPuxguvIzgVUQC0iRphs1Lu222pm20tTllQ1MeQmW0ySe50umlVf8uO07f0FRnbcvLrG1pf/s32qVtfbRpv7DHehF7Myo6W2JnaYSthRE64hEl38TQIQLzm+gGsRK5SYE4mZw9zz+w84IP9zAm3twMqbERwrlL6R3bldGZmWlBlXx2ZHrfqw/IWckvo+vS+z75u7RtSAuxjKCWfGZm2nzSlpXe9erfpc0nszZklHdmGmXUvoz67nP0UO/LjNqbma5JsbFIYuPIK4ujbcV81C9fAEN9vdz0mPwn6yoC8z/ZrWKjvpYCcrmc1beCWHXCixeVy5NgbQWCSaCCZUYDdVa+z+ww5/SglpW80w7k2l6rbbrMoKspj6/R7qzkqU1a9fZpak960Ez+TuO1ggtDLkeWmETI3Ye0LGpGj8YlvtZtLearpQIiMLUUSkwmKiAocCE4jr7bHhDgUQqJhflHFqXGQVDNRaoNuDKy2DK/Vo48IgDJSz9ksQlgYI5BgeIYOuRR+GeV18ohKRrJq2dIwt4jl+mib50fQ+ci6JkYKvifYrlJE5AG+ZD49i1yqQ46ZnkwdimBgYWx4iDj5PzkcaEkvPBGEhUDusYY5CuMaQFHdHSVVnem2siTkATcI+ZNJIZuHlg42KaUr36dPCaYaO8nSJJMsCxXBUND3U/zlieS8Ooe0YHRGBephKWd5UdphIwVusolSEKe8eHFWwwcimHt4oyequEa66tqT3b0tzaQlkskvLx8i6F1HfmuQkHRPZuDQ5EIzBwUXyw6dykQLZHTdNllnhZ0IcrVSWFVamPxZcfAmt4g/mm+cnh7lPAZk4nzegFmFshjI9FzrIDlwDVYV3dRwjAhlOhtkwnfv4ekaB109ROQ6dhh1ngo+foNwNDcUNUuOfFn5xG05k9iAyLQM9NDKjHAxMOT/EOmY1HQGh0dOfJ31wicNY7wR0+R65lAYgQ6eUph++NynJt5KA3wjKCZFEHkySX4b1pJhG8M9hMOUbJNvTTp5cjDbuK/dCwBZ68g0StN+V3XyWun/7ELPCGc8KML8N6yhnD/BArOOINH44rpQFVK1I31PF0zlzf3/LHrOJ+aI4ZhaKBdf36OlanNPZBZvokxscTdvsnEzuVxy5/LtsfJXY95prUVgfkf6kyxKV9Xgb+fhjP57zv4tfxeUZC6BZjev7+2pfJxmXLkia/40K8ykSH5yTPzEJYeBZEHXyH0587EhBfEcdNZzBwMSbyzmrcjfkLe5G9cx3RAXz+JxCOD8Z+0C4vp5ynQuJwChDox1/BvXYO4Er9SbP5MDA2lSO4u4Hn/iRh2XEiREYPQ4wNhs9vhf+gaDpOvUrBxeXTjA3g7tQ0Bp4IptNMLBzdTNWs01XrVkSfybmVLnm28gkWXfsRvX4PV+EOUalMv9UVELiPp0QZu9R9IUoFymEjCiYqwwUMFzBQN5IkELmzMgx23senQg5hdm8k7/QwVVMBMgZE8iaiDPTk/fS8mjdojO7EDow7zqaUCpjZ9pt732qT/kjTqfRz7Nohaxu/54Xt30cr8uo96hrmLwMwh4cVic58Cc8++YPHLRMLLFM8WV+znuVzVgKOSUDEgy2VI7yzj7chfMPTcTb6fW6GnKECK9OIv+P+yAasRB7HvUIWo2WUIul0Ft62bMDZWBZLEBxM6sRbv/FtRbNt8jPQlxG+th/fGWJzm7iVPBTeVpZZE5Ora+B60o/iWnZhGX8H3l/bE2M+j7OJ+GOgpXb6Sx2t4OHgoRk02U2JMRwz00rHe5B8InPwj0joTKVj1Hbe+64jZuEOUVlmYCsjJJUQfmoXPA0OK9OlAyJzOvLgvpcKu69jbCfurJbtY3/Nycl/4bhLO7j5caNEb22lKYH7kBZBHEzipCWGlx+He2JorTepD2/nUVgOmNl6DjNKktSS1sSy1TSOJjaVomA/9mpfCUBBa/PzrCojA/NclFwvMrQrMPPaMpRFGRBRxzRZgarI8sjT4yhOI3zqMoGUbsVoRhF0lm9QlJVHnCWj8PbScg9Pw5oR2LEVsjQUUHjcM3eQJS1k8kev6ErDmCo57vbDLH0bwj0V5p9+QQvN2YG4v7JatdK0m3FnA88FzsF39kLzxu/EeMwLj3wMo/p19qvsz7hHeHWsTbd+aEovXYmah94lrVIC5LPw9etZ50Ik7xs0GSmCWUbcwkSOL+oDc2AoDnWC8R3sqgFlRBcxkDXWQIHkfgZ6VLbzbyzkVMCumBabwAhESjG6e/OglXuNc/TrI286njpYWpnqfqEMzI+hpkyYzYH40hxsfT8HQ5/RrWgJTI4Pc+hjl6nqLwMzV3SdW/t9UIBmYUUVcP7ZasjEIRB2iGbl80wWtLJqo5b0J3Xwd+/3eWDkZpkI96QXBbQsRU3osrqO+43Xzluj3XodL/64prj1deRIxu8fgv2Ap1is/ULCkPy+aViG+RA8Kz12BibkSeMJH4r0H734d0B3jg7PBBp6P/xOH7a8oWMQotUxJEG/6lSEgoRwlFh3BxiF5XjSDAKCYo1xv0BHzcYcoqwJmivWoKldXEsjz0Z743ZdSadd1HFRzmMn1Sk4vCdmTAsxK6c1hJt80cVc5W7+OwsIUgGn0GXOYX2KNftI+tZs5vWAguQqYfUVg/puP/Udl/WeBGfbiJtu3XaLS4OFUs1EfenJM62+kYDmxId6cPXmGh35BxEv1yeNcgnoNG1DKySYlQvIbqew3VQ0BmMsijIhUWZjautIyGlSz9XppBBGLuhO6w5v8Rx9ikVcZEKMoQxbIu06OfHD6GbdR1XnVuhfGP22kYM/2CmAqXboS4g5OwG/OXCxnheBS0RfvJvWQegyk8NyFGJsoI1IVwHxxBJ9+zZH2eYirxTqeT95LwQM+5C9goFZmOME/ueMXVoISC46Sp6Bp5lZ5zFGuqQEzvZcCHRUwfe9LqawGzLT6ykL2cKZFb/JMO0MyMNO19OKucloFzHpfOegnO+4BAZhOoc8RgZlzw8J/FpjPz6zCs8UsBj72Y7ibcq5D/EDUy6sM69ObPVdfUahibQoYhHP7yhNwb8rmveto5GYpypSBAgIwl2cDMLVZSpBlmEojiVjcnZDtXjgeeYyFvRowpW8J7ViADy4jKDyqJv6eP2I8eAPOvTp8BMzY/ePxmzsPy3mhuHr44d24DpLyAygydxHGpqnAlPr+w/P+LZANeIyr2Vqe/b6bgvt8cSyodBMqYCcNI3BwCV68L0HJhcfI42SiEZhXG3TEQmVhpgWmQjMVMH3uS6miBTCFOczKakE/n+ged5VTKmDWz8IcZrrwVd0zqS5i5RdZdbtndo0AzAIiMHN0fBKB+TXllyfw+rEX8dZOuOS3xVAV+PBJkXIp7169IEhiiptzPkwNUgentGljwgN5FRqPo4szlsapbjLtmiHjyDxPOkzy4fdzlxld1VYR6Rn6cCcdmnbjWd2/8P6rE+aiQZ6unMnAjM6mOcxsDfqRxRC1uj9BG05jv8sfG1fjlChenUQv3rQoSVzV33Ab1YiAFt8h7/oHhQf1QDd5aYw8kajtI3mxZAN514fgVDQAv5bliXHrQtG5azC1TJ2DTPTayrN+vTGc4k1Bnc14jVtI3g0BuJVUWpEK2Ce9xr+HB4G61Si9eB82dmowTQMXxZ8xRxGAKbhky6sH/ahFIwsW5rPRnnjfl1J113XyqYJ+0kJJGrKH06o5zKqfzGGqQUwNmIKFKbhks/yikk5b0nOrawKnNnCVxcfjKAJTu6HuK6X6hoEpJ8ZrN8MWnqFB5xGUSLjCrqNXCInRwca1PJ179qCimpsnrT7ZaWEmvnvK8hUrCXAcyLDqwezath+v4FjM8hSiYbf+NC9r99ESg5S6SEL5o10dFgcXpM53Tej8QzdqlbBHNVWSWmVZLMdnDqb/Dm9q1a1H607daVXLHaN0wPX8xGr6jlmNValqNGvfnU5NqmJroq0FHc/y9s6M8O5O0L0F5FGNDtKo14ztUYsFN5rx3G8VRfUjOTllBPtk5Rg2pD/uDrnslNev9LAIwFwRYUR2AVPTIKrt4K1IJ08iYf9YXs1diuW0lzh+XyA16Cd4B94te2LUdQXOg5sR2suV9wUn4z5zHPrJi/WlMYQt78CrHe8ofOQqNlaRhP1cmJch1Sg6fyfWTuYpFlPchRE8GnMI5603yBN1mKej+6DT14vynQunAvP9Be53akFSkf6UXTgXE+N0NhlQg40AzCsqYHqorcP8SANJIF6jPREsTE3APKVyyWoC5kmVhdlAy6CfjMCmbV+ld31GFmva+0MAZn4RmF/p6dYu228amFFXfsOyzgIqVW5KWPQHWrdvjOHrcyz96xTO1fqz58AySlmnH179ETBdYjkyYzRTDt/PUBUDx6Zs2TkZ13SCzxICzuHZuh3nDQZSP3Ev1rU6UtoyjB2bN/E4wI3tfrfp6JLOhYqtrcI5tHwCI+dsxj88iVLNh7Fk/njqF82TWhchnSSaBweXMXTcHC77RWNVujWLlsyka51iGCZHMgrjojQev8u7mDBqJDtvh6PvVI3fZs1laIca2Biqhz+k11Qpm4eWoMfhWvj7rMdFJV3ShxeM7FyN5YE/E3TnVxwIYbGHAxOkLTi8fxv1i1podzf9x1PNUgNm2oEvJ9ZhfjygypG/3IFf7z7oVZiFy6zhGAjvUfJE4v9qj88f17CfdJH8jYoRtaUBL9ZBkYOnsLBU3QRRvrz6qTzhFnMpv2wQerpyZNd+5M7IKzjN3EeBemWVAJZHEzLGBb/XbaiwdiXGiQ949ktrwt+1p9KuxZgYCvOhUuLPTuXWxOlY9bxM2b7VMt+8QLBKY45ySeWSrfBRlKzyplK0VQVMwcKslk7QT3IfCBbmyRa9sZt2BgGYGcIs7irHVcD8LgsuWU0vOpkBUBMwM7M0BZdsPhGYOTrKfMPAhJgbkzCvOo38VbqyZ/dqqhe0AFk0J4ZUoPk+S9btOsiPtRzTFfBjYMZzbuUc1lz1y1hsq+rMXTKEAulwL+ntBTxbt+XEQ2Om7znHqKZFMEDCk63jqNZnId9PvsGOcZXImFdy4sP8OL5rM9v3neLqTW/sqrekW6dW1K9di9KuedBXPdVJMaFcP/Y3G7cc4sqtR0icKtPlh/Y0rFubKqWcU+AplybgdWk/Gzbu4tzVm4ToOOHZrRtNG9Sharli2JimH3bue2EdfX6ciMxzHGM8PbDRT8Dr3HYWbbiB5/L9TGteGF15Av6XT/NUak/VSuWxNdPWgs3Re/mrFy4Ac6WahanJqshWl2s6O+V8Ur70A9ErO/Fm32Ms2o/DqqwbsoBLhG78E4oPwGXGNEW0q9T/OK/GdCPavB1OnRpjYBhHzLnFhF6TUWDePhzKFlQB6jWvf65HcEhxnHr0wdhcTuK9TbzaeZO8P2+icLtG6BJH5N6xPF6wGvPmU3CsXRadKB8Cty8iSl6PMivWYWOjNp+qNq8nj/Uj/PZjZHIg/hZPJszBpP1EClcvi46OIWYla2JprUe0901iQiJAGs7r9dMJ9JdSfOxCbCz10DPLj23Zihgm+hByxwupsAVrxCXuTF2G5Q8zKF6hCDo6RliUqYO1tTHEvyX41m2kMiDxKbfHj0enRk/KebbCQE8fU1cP8jrnT4W0mhWcbiBSmt8zA15WQJtePoKF6SAC86s/55kVkAuAOYtWP69l87wfsVJQRc67fS3J+6MPi7bv5+cW7pqB+YVBP0pgtuNiWFtuPlyNu6myHtF3l+FcZxTluv3NwRVtsdAw9yds3B0XEYT347uc3ruJ1TvPIin8E+dO/o5zGr5J4j/g9+Q+V07sZvXabbw0b8nxC2soa/lxQrkkhgCfp9w8f5R1K5dxObIEizaso1e9IunqIosP4+ifk+g/fCVReewx00siIiKJhsOXsOb3H7E3FeGY0QMjAHNVFoCpaYBMCzxNANaUn3BPEveW6P0LCfl7G/Hh0eiaFcCi2VAcuvTCxE4VqSqNJ+nxYYLXz+b93afIZAYYFG9E/p7jyFutPHr6yhtZsQHB6ysE/zWboOOnkcgM0HesQL6uv5L/+/oYmQlRsXJIeEfk2bW8/OtPIl6/A30LrOr3x63HMGycbdMNfBHaIvNfyMXuE0kQgCmXIE1IBH0j9IRTOXSscZ55hnKVTHk6sxM+ZwXvkOCxiUcuk6NrpNw9yNi1KdWW78A2fC5HeswgXj0vAyP09IS8bCm2+DqVKjoiD9rJoQ69iFGkkyJJSAA9A/QMhLYY49TvD77v0f4TqzSjvsnImswInJ/T58l5CRZmXhGYIjAzUkBhYVafS7ffD7FmYkOMVXdb5LF2WLV/yIKt+xjpWepfA+ZlnQl4X/kZe5UXK+7RKpxqDKNM5y0cXN0JS03BMnI5UmkiMZFh3D++nvGTl3NH1pEHj5dSWLlMLeUjl0mIjQrH/+Zhpk+exkG/Upx9spcq1p8kJD4mgjdeV1g9czwrz0iYtW0nw5qlp4uMG1vH0PGnNRTut5RlI1vjahzBqU2zGDlxKwXH7OPIhAaYqLmAc/Tu/MYKn62yMGO/xaCfdCwdTVv3CZd8lYjdLNRFfUIlu+ui3r5/s63pBf1kR12kIjBzfET49i1MAZiTD7Pmt+8/H5iuMnyvnuGyT0iGguuaF6KlZy2s0pkSTbYwL+v+hs/l4eT9DGDKEj7w5PpZjvxzhIMHDuGjU4iGjRrTvE0X2tQthpHqZUAmieXVo+scP3KEw4cOcS3QgJoNGtKkRXu6taqGuertXy6X8e7FPU4fO8rRfw5x5mEIRas0oGGTVnRp8z2ueUw/bavkJUM93DlYcjKPt49NiYaVJbxn+cgOjF4byhafW3RULQ/I8bvzG6uAAEzBwhSAmZEFoc332lqS2qbTpkxtLZ4vTadtXdLC8b/c1qy4ctPqp66T4JLNI1qYOToq/H8A0zmKjb1bMWjnrQzF1snXkdtemyih3AHso8+XATOJxyfWM23Wn1x46I2+Q1UGjx9Lx7plyWefBxMDPdWhFxLCHh1nxrT57L/wgHcJDvT4dQL92tTFtYADFsYGqnQyIv1vsGbBTNYduMGrcAMa9RvB8J6elC7khI25UcabD8RcoYFDXRJGbODytG6pbZTFsnPyAHpN383I6++YVtksR2/Kb7VwAZirMwBmzgf9fLqDzteAUGYDujblZbcVmZ41lxZQ6nXWpo7aQF+bfDS70D9dp5lZ2Z8NzFunwKwElCjw6aMV8QIOX4AqLcBZCv9cg8bNwUzDXrXhPnD/PdTxgFN/Q3FPcFVGUv+XP/8fwMymOcwsW5jScLZ2r81PZ2IoUq4WPX8aRfem5bFKu65EFsf5RUNoPuMoru7laN1jKMN6NsU+2exUuwP9zq6lY5+JfDAvSL22Axg9pAvudulYk+ndtUmvGFK+KH8XHMm9vdNxNFWurZPEvGHWwHZM3RXPNu+bdHDSJSYshCi5MbY2VhiqrNr/8oOgTdsEYP6hAqY2g2F2B/18Kay0HeS1Acbn1CU7YCmUmx35aNN/2qT5N+siANNGWwvzwxt4G6GY92X9NCjTGyo7qW5zA3CyhfVTYM56GLoZmjvAwtHw0hxs9aD0MJjUAHb+DmuuASbw4xzoUU4IV4btw+FVXfAsC3ung1FLaFEOLPNCPlvloer/wY8ITC069bMtTGk0N/fuJyR/eWpUdMcmo/WS8kS8L5/jdpQFtat74GilPJw3vc87v3tcehhKqWo1KGxvlsX7UsrFNUP4YeweXBt3oHmNsuQxTMDn5ml27L+G+4A17JzaCkves7N3C/6Q1GT+nMl4OGkJZC20zM1JBGD+mQVgahpwtQWYtuk+B3TJdfxaZXxJ/l+zTlnVSpu6ZGTJZvZ9VoArANNaW2B6nYDTzyHsOhwMhE4twURlNepaQNuWcP8YzBsL1ceCUQBceQ5DesLmv6DnAqifBJW7wu4zoHcYGhyB5xvh7SHouhhGjwB/b5DEgkQX3odC3S7QrDJktElLbh4AFFtICqGb3+gnJejnS+cwc8rClMuF9zvNZ9ep0ikerIxIqeqj5O7SlC6jLhXmSJ+e+ovfJs3h1L1XxMl0sS9ei6ETpzKkbXXMDfXQkSrXYf4mU67DrFdEXIcp6JkMzPgvnMPM6mCdUXptBnFtojszq09WBvS0Lwhfcm169VbPLyMIfUl7P0dP9Wu0Aaa2fZ+edkLQj9bAlMsgKRQ6VYUW/0BP95QDzxVjgwC564egWx9ouxiaOMD5XXDxA8xdDtVcQB4Hv9QH46FgdhLe/ghzCkHnVvC4GPzTEwZchOOzQDcIqpSDP3yhqlXq/MA3ypbPrdY3DczPbZRwXXbu9PMl9cit18qjLtO960qG/7GOyo7iTj/JwFwTYcS/BczsBo4mizc7wfm5c7pCHXK63Z9b9y/RN6Nr1esiWJhWoc/po81pJcFPYelUWHQPJvYjJWIyOgrq/Qi1nOH+Fqg7EErVgrLuYCoFITCycWOwdYK2DeDsbJhxHgys4Lcl4P4Ozt2EVadh/yxo0hW2XQCz41BhDTzbD1aalgvk1lHxG7cwv0RWEZhfoJ48kSfLmzP6fks2rBiKQzpzqV+Qe669VLAw12YBmGktlk8smMQIIrdMQqfmGCzyRvHhwEnM2w/A2EJ5NNfnWDzCnFXS86OEHtxF7NswdC1dsWrYB/sa5dR225Ejj/Yn/PA6wu49RpJkiHHxeuRv9QMWDpaK6YCUGYGEcCIubiXo7FkS4nUwLFCB/J4DyFPILiWdsBZTGnydgN2bCX/xBgzyYFv7B1wb1sNACGpT9Xi6bUqK5P2V7fifPEFcrBwjx3I4tRyEYzH7lPoq1l+G3cF310aCfV8h17HCrmZnijVqiLGJ8oQUBewT3hNyaSs+Z84QF6+DcQEPCrUagFPhvGp5KXciiri/F68jB3j/LhpD26I4NxtIMY/CCk/il1iNGvtcw4bsmb20CMC01BaYF9fAgxiYvx22rwVzoWZyOLMdLFtDJ1eY+jtcOgq9lsLzQ3DoFPSdB5K9cLMmrG8GDX6A9f+A7BB0vgZ3V4DsITSeAf+shxE1ofEhYDkcaQDrGqe+8eTaJz3jiosW5n+wU8UmfR0F5hx7hmBhJmh5vJfiPVtwtyclKP7/CTgS3vHu96bQagv25U0JndWJaKdFFB5UCz19/ZR5bG2sD2VZUiT3ZvNk4O8kmhbAtFhhpG/vEx8cjfXgs7h3r46eng7ySB9eTWrH6+u+GOUvjpFpJDH+r9Er0p6y81ZjmddcdeRXEiFrOvJk/VGwLoJ5Pn1iX3kj1SuI++wTOFcQdgSSI/HZwrVuPYg2csC8UFF0o54T+eYD5m23UmdUOwz0VEeIpQWnPIng7T24tnQvcstCWBYwIfb1MxISLSg76xIlahRCV8jffy+nu3cmXMcWS9ei6Mf78j7gPRbNVtHs114YCRuayJN4va4TF9YeUdTVOr8BUS+fk6TrSNXZpyhV0Vmx0bxwjFn01XHsG7mEBDMX8hTKR9ybR0SGxlLi1+vUa10eg+T9dbV4adG01vXzX3w+jaAVXLIW2gJT0DrBB8r3g5P7wVIFzH/+hMS60NIezt2GkzOg+1GwiAbTZ7DlMtyIgr8WgUUQfNccJuwB3Z3wawJcnQzSh9BoGhzcDDs6QPgIeLNZCd7ypqDYLCLllevrPIw5lOt/Fpih3pdZu+YkNcZOpG4eDSHSOSS+WGzuUkAApmBhJgNT3RrI0IqShBC5bDRRfqFKK0i9ybIEEp9fBfuKGNmaIY34gI6ZNeZ1f8G+4/fo6WbFypRD+FV8+zUjyrQFRWcuxaqgDfJIP4Lmdcb/cgxFlpwjX+m8RJ/4mccz92M3Zh+Fm1RAX09Kwv31PB43BlpupeKgZujqyJG/WMX13uMxbrOEsoN7YKgvQxJwkscjOhLh8jM1ZkzESPKK55Pb4nPHhPJLduFUygmdpPcEbRjE7fUnKTTnDqXruqQEp6UCRI7s1QbO9BiOQZNZ1Bz5E8YGciRvz3NnZGuC8vTiu1lzsDAM5+mc9tw5HUO1xQcoWt4FXXksb7YN4+LqvbhOukWNRm7I/VdzsPevmHkupP6Q3hjry0gKOMWlkR0IKTgUz+mTMTPRQxZ8jMNdmhNXejiNJk0nr50p0vAH3Jroyf3AojRZsAs3N+vPtO41H+eV1oLUBFx1F7UATPOsArNUY2jTBZKXy3ndhsaToV9VgagwrAbUXw0BZyDkA5gUhB7doIBwzJ8cfE7D5pOg4wC9BoKrKcQ/hAa/ws/twC8Q5Alw5SHUrAEuJaFVY83LUnLXo59S2/8sMHNpf4jV/oYVEIC5LsKIxKwE/cgTkb72RhqXlALMFLhKovmwsR+xhX/DqX7qzkz61sSubH4AACAASURBVM4Y2tt+5BpNz1L5CNLChuenp/Jo8nQsB9+mWJfyKveiHKn3Um53nYB1/00U692IwJ8L8jKhL1VXzlUsGVLkk/SB1/Oa4XMyL5X/2Y+VSTzvZ7hz54YLZefvJV8xOxVEZEQc7Mr1eT547DyLbcQpbo3uTHy9EzQYVVe1J7Ic2duDnO/eFV2P36kx6xdMVEupUtohjydsUXXOnpBRefYxCpXLn7LOOOpMH45NvEXl9cdxNvHm0s9NCKuwj7bjm2CgeImQIws+zYn+nYhxGEyz5eOJml+aY1fzUX/efgq551W5tGWEHu7GwdnPaLDjNIULmBG+qz875m+l3OQH1GrqrnLVykl6NJGNfddRavxOareqrTUwvyTIKDP3a0ZBP2ZZAaYsAZ69ApeCqW7S6PegawW2QuS7DHzugrETfAgFa3twsEMhcmYfWQzc84UCeSBe8nFKIzPIm0eMkv2GxzGxaqIC/4oCAjDXZxWYCqsyntgtvxL1VglNxUBp9x0O3RsRsaIN4SZjKNa/HpIAX2QmThjbKTeO0GR9fARRWRzv1w/i+Z97cNocjLO7cimQIk3CPR43qkjCd1MpO6Ipzz2rkNByJZWG90NHV+UulSfw7q9hPFy+h0LbXuPmEsSz9qUIyutJxXmbsbZJPc8y/vFarvUdSZ6FTyks2c71sZPIszSYSpWU0dSKMhP9uNu5MoEWDaixeDu2aTdglwTwsFdlfJLKUmvZYfLlTd0jOen1bk526on15Gt45LvG6UFDsZ77igY186bmn/Sam/3r8jzSje9W/MGrwR74Wjeh8fxt2Nsq5zWF/6K9NnC49zDs5z7i++pWeM3qwOnD92iw/TWl3YxTwRh3lT2N6sIP6+g4sHtKP2WpD7Rw4WbVRZs26MckK8D8V56K/69CRAvz/6u/xdZ+gQICMDdkAZip1kcUYT2diSnQA4uSzkheXOT9I1eKbZ1D3NYhvLlTieIzmhA6vSOxlTZQpF2JrAf9SKMIXtoTv633KHrIC4f8asEwklf4tXchpNhoKo6qx4MW7TEesJ6yfTqrHSAtIWLvOO7OX4jD4nBKlX3B7cbViS/Thwpzl2FhlnqoeaLPfm71b4N82DNKG6/n+m+bKbLbn+KuasFK0lB8B5TkcXQZqi86Qr78anASwBL/mMsd6hNm3ZC6KzdjY5F6QLUk+DznfqhHYu+r1Cp0hhNDllBsizcV3QU3oQrI0nCeja7GVV9T6s1bzfOB3xFZvDtNFqzExkyJGUH/+BeHOdqnJfIhj2nf0pabE9px40IkLQ/fxc1O7RQViQ8nPYvypvZyeo/7KUX/jAKAMrIO06bXBrgZ5ZX2e8ElqzUw4yIgWpg7B8xtQThUQS6FJ4/AvhAIL2Xvo8DKAoXvHwlcPQxOjaBgeuuu5eB7BhLKQom8anMLUnj7GkLDwcUdYiLhw0uw9YD8qn2v5Ylw6y6UqASJQfA+PvUp1LcA57wQ5gsvDcDDGd69hIBwZRorZyhsl5o+2B9ijMAtH/g+BsP84Kx2VGJyyriX8MoAijl+usQl5hVcjwd3A4g2UqbR8iMCU0uhxGSiAsnATMry5utRvOtTCnmb3dg3r0LS5aW8XP2CQpsWID87E9+lTyk4szVBvy4k35pTWOczyzowJREELfoBv79fUOLYfezslKfOKAZwWTCvOufjjeNwKo6syv22/bAYspHSPdp9BMyoQxO5PXs2djOCKFvJj+tN6yPxGEzlufMxNUk9ADrR/xi3+jUlsecDylqu5fqUA5Q+6I2bY6plh+w9L4cW525ICaovOIqjs+qklGTgxdzhfIdGROZtRb2Va7Ey002xqCXvrnOxWzWi2p2jTvETnBi5mbK7nlLGTRmMpGiXLBK/8VU4/9CAOjMW4TW8FfGl+tFkwSKs1Oqa8Ookx/s2Iq77Hbp0ysvVcW25fQXaHrtKQetUSCMN4Fz7gviUW0j/ySM+G5jawu9zls5I4uMx1tbC3DcaZp2Dd/4w5iIMLAGyRFi5GKp3gnI2MHsEfGgJc1qDnhwuTYCL1WBsq08jXWMeg0dV+H4eLBpIyubXJMGyIfDABDxdwLco+G6HXmvBw0TZWdIomDQdBkyGnb3gkh7YGoE0Eh45wOXlEH4LeneDqlPB+BjcMgSzAEjqANt7pg4+WyaBmSe09oAdK8GqJjTzSDM4SWBJfdBZAEOrpA0cgKNChG89qHYRYj2gY/XU682tSDlrMZ0hTwSmyAFRAS0VEIC5McKIzwFmWA9HPhjUx8TFHmngY6LfVaPEjoXovTmA96BR6LoaI8vTk+K/jUJfNYeUJfedwsLsgc/WBxQ/9DSNhfka3/bOBBcdReVRdbnXshOmA9ZTrk+nlI0ydOUSPuwdxx3BwlwURumyL7jVpAZxZfpSed5SLEzVLcwD3OjfGvlQL0qbrOfab1sotvsF7ioLUwENaSjeA0ryKLoMNRYewVG1ljelTXGPuNSxAe9sGlF/xSZsVRamcK0k+AJnf6hLQq8r1Cl0hmNDl+G+9TkVi1umAlMajtfoalzxMaX+vJU8G9SQqOI/0nTBcmxU+6AqLcx/ONKnBdKfHtGplS03xrfn+sUoPA/foZDKwlTUN8mX462LEFBrGX1/HfKvrQVND5xCfdKzTAVgGmkLzFA/iDCArW3AajpYvYYkCZw6BkVrw0/DwSYEdj+D4lHwxz7FlCYfgiDSCBp0gbGdQXjvCvOBmVOhYH94vwUKdYDO9cFIF0IvwaSVcPQiVK4HpV3hzDVwc4KQKJi+HELWwC/boepAKHwPJJXASReiwuFYNOyZAsEvwdhEaamuXQ5DloHePzAzCtb+qAxACr0Kw1fCzNXgZAjbV4BVLSUwdXRV2/HJ4dEu+HEv7J8Lhy5Crx/ATPWqFfMGfhoBw+fAku5w1h9K1od8QkONYMQ8KJvxRi0iMLUcLMVkogJz0wBTe6AlkXDjAAmRyk21FI+uWTGsqpVDVxJA8LA6BD6HAlOP41CjSKrVp2FO7KOAE1kcYesH8fTPfbj8FYhLcaVFp0gTf5eHjSsR/91UPEY05alnFRJbraLKsL7oJi+hkCUQ+tdQ7i/fS+HtrynqEsTj9qUItG9NlXmbsbFOtVjjHq3lcr8R5FnoRVHJdq6OnUze5UFUrqBmASb6crtzFd5Y1Kf24h3Y2aRerwwyes393lXwlpSn7rKD5LNLdSEnvtrFsc69FHOYlRyucXLwMGzmv+S76snBPML1r7jRrx5PI91otPIPXg72wMe6Gc0WbMVBbb40+ukG9vcehsO8RzSubsXjWR04eegBjf5+SRlX5YYcCp1ir7CzcX3kXdfSZZByDlNjoFUm/aOtpanpHlLvYwGYhtoC0/ssrD0H93fBL9vA7wmUdILd26BsU2hRG+6egrC80LwYrFgDFbpC5BEILgV964KRAQRcgumroGI3KB4EuiXh4AoIdYGRA6GIDGZNgeN+8HMzuBoEYflhbjNYtglGTgbLCBg/A/pOhhMTwPh70DsLN52ge3Oo5g6XdsDyc9CjOZzxh3mj4MN1+HkVuHtA7xYwpg28LgMtCsGzN+DzCAzzgYs9VGwBfVpBtDeMmQE9hPWkR+C0LkztAckLJc4tha4rYWBpiGsBsfuhyCAoawy2xaCM8vDwjD4iMEUOiApoqcC8495sfG+ApKjyeK8sba4urMOUSUEmRZ4QQcLdQ0TF1iZvGX/8BnQlVq8EhVaewNruNe8O3MSqSQfFBgbJH827z0iJO/E7d6fMxObnJ5Rq766MshXWgb5YysVO47Hru4GS/ZoS8FN+fHWGU2/ZNPT1kqNkI/Bf0BSvI9bUPH4EG5M4wiYX5tq94lSevxfHIjbKqsjlRBzpwvkZz6i85wJ5P5zg6qjOxDe5SpOhlZSRuXIhivUgJ37oim7ZCdSbN57kbZRTLap4QuZW4sRZQ2rOPU7h0nlT6ht1oTf7xl2nxsZTuJo859ywRoRVP0WXMXVS8393hsN9OxJj1x/P1ZOImFWMf24XovG8fRQqpjq0Wi4n9PgP7Jr6hEa7zlGsgBlhO3qzeeHfVJr+jLoN3ZTLXYRzar0msarnn5SdsJMGrepmqrt632sC3peCU73fFXOYYd70aFwCEyMNB73L4mBWX5gZDC83wYhfYPxqOLkSanSBMjZwZgMMOA9eexUvVbTyhPiyMH8R1CsKgafg+4kwbzM0dYPp1cDjELSwg10z4YEdjGoKR+7Dhwjo0A52/wbTvODEVPjrBEwaD3phMHIAXHkHpWVwKxoIgQ8m4OQKG/+B0sbwIVBpac5bBJGKmw2SdGDcn2B4EPYEw4tgWDsPjOWwfRlY1YbmFVT3ZhIs6Ae0gRENYPQQ6D4LyjmArrA2VAobh8PuOJg0CEqVgcntlC8ILoZQpDX0qCgCU8vxUEwmKpCpAttuBzL78hsSalZKd44r7RIDxd9yCZKHR4h8/JzEgKfEe98nISwGffsiGLs3QsdnM9FxxTDVvw+VplKodRLPRmym4LzdWOYzydJcpjzsAo/7tSTaujOlZs7FxsESWfRLAhd1wutsJO4LzlDQIz+RxwZxZ85pCk49QJFa7ujpyEh4vJ1744Yg+W4ztX5upZjGkfou4lyfGVj9sBKP3h0w1JUjCbzIg1EtCbEfRoM5kzGW+vP49zZ43XOgxqqtOBWxRycpgrdbhnDlzyMUnnqTig0Lf7zTjsoyk/qv5p9e4zBvvZA6P/XCSE+OJPgat35pwkvTHjSbMw9r43Duz27LjbP6NFi9kyLu+dGVxvFm1yhOrtiB65jrNGhZDPmLJfzdZyq2nVfwfd9OGOnKSQq8xMXRLXhp9xOdZ0/FwtQAadBBdnZpjaTieFpMmICdtTHSD0+5NaUZ114UpsWCXRQrogKu6m74EihqCvrJyotXUmw0JuG+9G1eGgN9DWvLhQCfo9Og53E4fwKClsGWIlDGD2p1gUouEPdYcc9xZQO8vgs7V8DJCGjTC4a1BSM5JAqeSqEsCUxLBqaaFRZ8UWnRhdtC3EPotR2S1sIWX2gyAEY0h9PzYNQeWLkPrk0Eo7oQeQIe5oNO7cGzGujGw6qfoMgIOL4QSveBsh9g1DrY9Dc460HcLei/E9ZkAMw4X1h/Hto3gQ0jQN4RhlaFJdug73BwMALJB/h1KgyfDcLhLb90ArtuSmBbFIZa7pnuVCRamCIkRAW0VCA4KoHmU48R07ElOrqpkZgZrcVTAjOR+C3deHU2EtNytbGoWBOT/PnRi77AyylTkTi0wHXCTIwi/8Fv5nR08+iRJG9B8TmzMDbRsoxk96E8kbirM7k/di6y/BWwcndDEnCHiGcB2PTZQ5nu32FgoIP8wxN8fu/Ei0dxWLuXwdgogmjvB0hsG1Fx9mry5FfNFcpiCFjVmQe7b2FaqALmdrrE+N0h+oM1pWccoEjlwuggJeHxJi4M7EecXQXyFC+KTuRz3nn5YtZkKfVGdMPEMDVg6COLSxZLwKaeXN50HhPXCljlMyLG/w7hb6DCjGOUrVVCAfP45zs5PqA7HyzKYO9eDP3YF4R4eWNcZzotxw3C3EgXHVkM3n905dzOG5i7VcA6ry5RL+4QHmZJzZkHKV+lCHqCyS2PJ/z0WPZO24hOgQo4uDkQ+/oOb58FUeqXYzRsUx0j1UkbmYHySy3H5LzTfcnKwB2cFOKPq7kEz1qFNR7SQGwQTJgBxePgdUuYWAdeRsGxbVAzDTBXdYENR6BRN6huDysXQru5UNVa7cnIAJjCmszhnhDnDL7msHM+hG6CSuPgz3PwQxlIDIUJs2DIOJjXDbyLweQfIdEX5jyFA1Mg9AR8txhOHwD5deg9CQq4QY0foU89JcRib2QOTKG2SZGw4le4XRqW9wULKfzRF+J/gGFNgCj4dTIMUwFzTEcwawsljMGqBDQsIwJTy/FQTCYqoFGB33bc5ZDEAol7YcX2X59tfUReJWD5WewGj8bU2hBdBez+xG/pZmx/3otjNSfFGJEpjDMYWOOf7sF/3VLCXwShn7cMjl0n4lKn3EdWsTzaj8CtM3h14SqJSWZYVu5A0R4/YS0cGaemgk5iGKHHlvF89y5i4vQxK/Y9Rfv8hmMhm5S6KRYlhFziycpZvHnsq9gtxqnNaEq3aIiBwcew/MSiSook+PRKHuzYQmS0LqaF61K67xRci9qmtF/QQBZ+g7srZ+D34BlSAwdcW46kYuvmmBinLg2RJ4YTcHw5t3f9TWScPhZFv6NC34kUKmTzsZZyGWG3NnFt0x8EBkZiUqAS5XpMpVxF14/KzC4oZpaPthaoPCGGR1evMq1vTeysVNGnmd2t51bBRTMY1x7i9MFcDk+fwN+7ofVApUv2r1mw4wY4lYPK7mBpBsln35rlhXp1wTzZks0AmIkf4MQOmLMC9KvD2NaweBF07A9HD8L0xWD3DsYvheGtYc4WCImFquVAGgjHjeH8FJg3AiyHQGdTOH8c1q6DODto0QVaNAB3F0i8qRmYZ1bAr/9Ar+YQ4AdeT+FlCNhXhY3zwTYpDTC7Q6v1UEu59lnTR7QwNSkk/i4qoKZAbLyE4VvvciO/KzIHtYX0n+G++xwYqg++n3t92sjMjPLJjrIysqS+BEaf225NdfmcOmkCXtoXqqyWIexqJE+Iw/vBfbrXL0TF4g7aPY/Bz0DHCfKaKd+6BEtw258Qbgdd24G1HO4+Vc7j+d+Bhz4QEatctyl8rF3BsyEYJ7dQBmdXg2N3KK4WRfr+NuzzgUbfQ8Q98EsCKxeoVRTuXgKL0hBzDk5FQ8+q8CwaXr+GYm4gi4C7CdCjJly+BVVqwK2d4G8C9b8Hqxi4fB4CdaBTBzAOhP2PoHVj0JfDnYtgXBhKJR+MjXIZzT0fMLEAaxtwLAAWunD1OpSpBsJS3hNnoHojsAKO7wb3tso5TC0+IjC1EElMIiqQrIBwHqnPmwgmbL2Fn0thxTZ5wtmknzOIf8416Q24ab/LbI2fJmhkV52S88moLhmBQxt4Z/Vabd2eWYVZZuk/Z51levkZJsVw+9otOtRxo75HQc2u2Mwe1eSjjz93Y3ThjE3hTle/Pm2e6n9ndNSyAGUh2kr4XfhPmN5ImzbdOspBJlcuIRHIrqhP8nISbceo5DxUx9Ik55d8k2jIRgSmtjqL6UQF1BSIjElk9eGHPIvT4Y2FDfEGhopnPr0BP3kgTL5cPY36dxl9n14a9c5IG62bduAV/k4vjXq91MeLtP9O7zd1yymj9mXW7qzkmVnd0tNUU97atE9d3/SsxIxeXDL7XlOfqetlpCNFLzGSkOAwejUtRSm3PFmDpQCTxASQCFBJ89EzBOPUrQjFB1t7BURgaq+VmFJU4CMFJFIZL4MiefMumkSJVPnCK35EBbJBAWG5Tx4rY4o62WheQpJeeXHBsGwhvIkHaTy8i4d8NpAUDbbtYFrTbKjl/18WIjD///pcbLGogKjAf12BqBcwdQdMHg1RN2DyfVg1CPwPwO9RsDl1g/n/uhTZ2T4RmNmpppiXqICogKjAt6CAAMwRk6BoOYh/CUcCoFNtCHsAj2rBgb7fQi1zXR1EYOa6LhMrLCogKiAqoEGBKD+Y8Cf0+RFiHsDSpzClK7w5BWvMPt7QXBRTawVEYGotlZhQVEBUQFQglyjw/hkMGQP5i0PCGzgbBC0qw4dn8LoZ/CNsISd+sqqACMysKiamFxUQFRAV+NYV8L8Ki/ZDl/YQ8QD+eAbjO8Lbc7DVDv5WOzLrW2/LN1Q/EZjfUGeIVREVEBUQFcgWBU4vhVt28EsX5bFYk+/ByoHgsw+mxcBm4cgs8ZNVBURgZlUxMf3/tQLCxgWh8VJev4vhbUQ8H2KTFHpoue5Z67Ta5qdNOm3SZKUN2uan6UbJSj6Zpc2ufJLrm935adIhM+2N9HVwsjWmgJ05NuZG2mSlTHN8GVi0huoFQVhicicMioRAzxnQbgb0q6J9XmLKFAVEYIo3g6hAFhTwipYw9eATrsToEGtuhlw39WDljBbEp92QIDv/zmiRfvIgnNlmCOktyNemDV9a5pfUTdtNHz5H46xqpQ66rGxukFnd0morvKDJ4uOwk0TRt1Ex3J1Vx6xpume/dFcfTfn/n/4uAvP/tOPFZmddgVgZVF9yjaC8doQXFzZfF3YJUw5x6gOmpm3RtNm6Tj3PtINx8t/qA2/yv79W3unVQajjl7Q1K21M3oheWy0yqq+6dmn10zbv7Gi31v0knKMqnAEeHYv/+fMsG1qXfLbabRSe9TtcvEKTAiIwNSkk/i4qoFJg45MwZu26h1+z+orjvdIDlqYBOS0kNEFD0+Cs7SCfFeBpPZirvSikBx9NbdX0uyYtPxd4X1sLTe3S9HtG7Xr/5i1VTSPp8l3xrG2TJz7B2aaACMxsk1LM6L+uwKxTviwJkhNeoki6x3plZSDOLhhoGnwz+/1rwjg7tFC3Kr+kndqANSe0yOo9IImNI3+4N32alcLIQMMB0v/1hzGH2icCM4eEF4vNfQrMPPaMxRFGRAgnlGiwrrQZpLMClfSOkfr0OzlIYkg8t4J3fy4l9mUIujbFsOg8BftOnhgYGygOmtCRS5AGXCVs1XjCL91AkmiEkUdb8g+ejHUpF3R1k8/5lCN770341im83bOHxDhdDN3qkG/gXPLVKIW+vp6QGTrSeBIe/o3/0pmEP/VHbpgXW8+xFO7VFzNr05TDLdLVTC5DFvWSkLXdeLjtAfkmHKJCm3ofnbWpOJlCmkDM3a3cmTKaiOhCVNt1nXx2+h+7hOVSpJEveL3qB27u9sJ1xhmqN66ouNE+0louRx4XTNCe0Zxd8jd2HefTcMQwDA3SP9/0c/rpa1j+8vh4bEKf07dpCUyNxM3Tc2IEEYGZE6qLZeZKBQRgLokwIlINmJ8Mxll0U2bXPKSiHtII4v7qR+CGsxjX6YZ5STekQbeI/OcAOlV+w3nCSIzM9JC9Psubcd2IllbCtkENDI1iib+zjwg/Sxzn7CRvSUclYJLe8nZCU4K9TLBt2AoTax0Snx8n9Pxz7EfvwLVFbXSJJ/rYVJ5MmYdRjd7kqVAC3Rg/3p3cQ4JtR8rMm4eVtcEn7mtlu6XE3tyM75/zCI83RfL0f+ydBXRURxuGn7gLMUiIQAgS3ArFpRSnuBTa4lCkUKR4gZbi7kULpbgVK9JCi0txCJAEIkjcXXb3/udmN2QTIrtBAv3vntPTsDt35J1757nfN9/MeFM8BzDF8yAV4fd4tnsx/n/9SWpMEuk6Zai39yqOdvpqMJQTd2kjXusXE5FuTpr3E9xUwMyusYJU32PcWz+fp89iSHvsTTEVMI3UgFnYF57CuKY1KUtsqEICZpGPGxIwi7wLpAp8KAqIwFyhAmZeLrw3Nf+n6SCaVZ6A8HQ/Twf3Bc8puMz+DkMzA5AlkLztc/w336b4j2dxaOpO4s52+G+IwW3LMaxdi6GjIyCE3eTZuBbEllhM1QUD0NMRUFz7mttjT1B80g5c2jVAV0eA5CBCptXkaURXaqxZhnGaF76TOhMW9Ck1f12BhbUJOkIaiaemc3PWMmyGXaJyn5roqRqUTR8hlidDPIkq/R1VvnTmetcBWE4+Qi2VhZkBbUFG3L7R/LPmBpV/+ImkXRPwe6hDfRUwX1pyQgz3BlYhptJUqncw5fwX32A/6wz1W9XKbq0KCQSOceGOvB8fj2jKjb7d0O2qtDCNDZSVfB3r8G1ao/KUFKwlC7NIhwsJmEUqv1T4h6SACMyVOSzMdzW4FugCFmSkHJrI0/nLsJjhT8nWrllnYIbuxKdDf4z7rMFteHvC+jsT6TidyvOmoqunckPKEwhf1YOnOyMpe+ISxSwTiBpTiifBdSi/aB/FXC1ewiTp3BjufXeUUruuYRt7jAff9UP4yovaX5bPKjPmLLd6dCC9zFBqLJuPiZEySEr9P0gi4dJVTD5qimHaCc4274HFpCN8lM0lKyfZ61/SnGtSzCwSr/Ed8b4jp8HeqzjZ6atZronEXLuFeY0G6EUf4I/2A7CbdYaGr7hkU4g5eRTDJl2wEK5ytFljdLosotWYUahbmDnnTHPzBBTYJ6qbW9t0eb2MiRamVbgPAyWXbJENGxIwi0x6qeAPTQERmKtijYhXuWRzDqoFDbKaWo3aDrAZ6RVJxK0fQtCmkxTf9Qy7MsZZMEl7wLN2lUmu9z0eY1sR2KEpQs91lBvRLyPaUmnJpRG3cyyPl2+hxC9huHg850nHasS59sBzwSbMrJRwEv9Le/gb9wcPwuQnH9z4jfuTFmC/IYhyVUyzrLP0Zzz5qgYv9OtRfdkBbGyVc2452/byhSPxOP8074FlDmBmSy8L5r4KmA1fAWZW3vKw/RxrPyDDwhSBmafVl3yZI80aQ5dFtM4BTE36Kq98C+q/gu6T/IBpKQGzSIcNCZhFKr9U+IekgAjM1SpgFjTovXPLUx5H9LKvCNn5AOc/HmDtkAU45C8I6eFMVKkxlB/XkMeffYHx8F8o078HupnrSAUZSb9P4dGChRRbGIFHDT8etGpEevUheC5Yholp1jIaud9RvAZ3QP71A8qabeLe9N2UPvgEVxfDLDgpInkxzBOfmIpUX3Ic+5ImGV2d53rKxOP8nQOYmdB66cZVAfPRHTmN1ICZE265ATNXCKmAKVqYIjC1dcm+a7e86JK1kIBZpEOGBMwilV8q/ENSYK7KwkwoIEr2XQ+kGXCWxRK17AuCdj3B7fhdrOzVIkgVIYT0dCTc+Vs8x36Mb+cBmI7YQpl+3V6u59MVZCQensaj+fOxnhNK2dp+3G/dFHmNYVRcsBgTEyW2xLJk/sfxGtIWWf97lLXcyL2Zv1PmkC+uJdWCexTRvBhZnkfhnhnAdHAxfQnLXPVJPM4ZFTDrqrlkc1qY98Z35OEdOY33XqVkNpds1vaEirD9HFFZmI1ziZJ9CeDkyxxSuWTbqizMd913Pj+8oAAAIABJREFUeZWXm5UqAtNcAmaRDhkSMItUfqnwD0kBEZhrYo3IBKYmg11BbtuCftfYNShPIHpVf15s+xfnQz7YlDTMWnKR7s/zLu7EVJqI57hmPG7fCYOBGyk3uLeaSzad+H0TebR4BXaro/CoFMCD1nVJrtiPygtXYWqml+WS9d3PvcE90PvOhzIGv3B36kZcdgVSpoxRlstVHor/oMo8Sa1GraXHsC+u3Ac1+xymWoBN4nFON++B1aQj5AfMuypgNskDmGL+ooV5uP0AHGadIROYuQVj6SZf5neVS7ZdLi5ZTbUvqA8L+l3T+VERmGYSMIt0yJCAWaTyS4V/SApkAjPJo1S2wV8dnOp/57Z2Ut1Vq21Ebc6BN9tAK6SS8Os3BKz5FfsN4ThVtchyjyZewqdFE4QOcyn3bTuedq1MYrMVVB0//OWaSxQpRG7+Gt91Zyh9wJeSjhEEflGOYNPWVF64EytbpbtV/KTcXsHNIT/isO4+Lil7uT1hHObzwqjewDojTUa7Uh5yu2sDYoq356Nlv2BtmbXQPtd2Jx7nTxUw63Vu+gpcM8qWBSNamF535DRVA2ZO97cIzEPtB1BcBcw85xSTL3NQZWGKwBRdsnkCXW0bwIKs0Ld1D4jANJGAWaRDhgTMIpVfKvxDUmDeCW/WxhqRmAOYec1XqgMuX9i95lIG5QCtIP3aMny+m4hx92OUGd4SfZFMgpz0S5O4P24DtqMO4NarPlGzKuL/sBnVtmzAxFg1N5kSytMZjXnu/Qm196zB1DCdxM0NuLlboPyCAzhWc1ECU0gnamMz7uwzpdaO37FIuMCd8d2JL72WRnN7Y5Sxl4GA7OFmzg8fjnHz9dSd2hdD8Xu1U11egVjicU4174H1pCOIwMzVupMFc0cFzGZ7r+Kcj0v2oAqYTXO4ZLPVQQVMMeinQwFBP5r0nyZpNLUm83LJGkvALNIhQwJmkcovFf4hKZAJTNHC1NRdl9sA+ToblucVmZmRZ7IvwcPqEx5TEdfZ27GtWBIh9ApPp/Yh8qkjHptPYeNsRuq/S3g0YQb63XZQ8ev2GOilk3RiPF6zt2M5/jgVO9ZR7s4Tc5q7PduSUnM6NX+YgrGBnLRbq7g5dgr6n86l1oRv0BcieD6/K14n/Cn70wnKNqmETvIL/Bb24tGx51T+9TbuFazRFXcYUnV2rm1QAVN0ydYvAJj378hprgEwRZdsswKAeUDlkv2skC7ZwkKyMPeAaGEaScAs0iFDAmaRyi8V/iEpIALz51gjkt+wS7YgF1++llm2eUEBIeggfqNGEReSiH5xBxRRz8HEHYfJf+DayEXpLk0NJXztCAIPn0SOJfqGiaQnG2LRfBSe4yZgYp7pfhWIOz6VRyvWkRSrh5GNHmlxyRh7fIrnjI3YuVmhK+7EE3Eer1FfEfI8Bj0rW0gMQq7vjOPw3dToVDOjzNzc08KzjfzzzWyS5KJVGk9iSCS6lg6YmJmCbjHcp+6jWlVjHq4cive5+0A6KZFhyNLlGNm7YKCng3GpVjT6aTU2MT9zZPQikuWiUR1HQlgUelYlMDU1Bl1bPGcdo07V4ghhxzg0dCRxMtFaTiIuJAxdUytMLYuhq2uC2xeLaNmjbb5bHxbUX2/KJZuzHFlKCoYSMIt0yJCAWaTyS4V/SAqIwFyXCzDztfq0dLcWZLHkNViru/DkYfeIv3aR1Kh4dM1LYFb9EyzdVdvdZdYnLZKEm2dI8A9ELjfE0KUqNrXqY6SC5UtrUJZEsvdFYu7fRZami759WWzqfIK5jUk2qAgJ/kRe/puE0EgwsMayUmPsPcuip6dEZW4WFTFX8Tt8DpFdmeVlth+MsGnaBycnA8IuHiQiMCwjn5zp9K1KU7pVF0yTL/PwyKVseWWlNcL+0/64OlpAwgPuHziGeOy3usWrzFsPq+ptKF/V82VZmr+svGpB53Vf5Dmnmp/LWpzCTUnBQAJmkQ4ZEjCLVH6p8A9JARGY61XALCqXrCbAfNN1y8t9mN9pIprUQf3loKB2FfT72wCbtkFZmtahoLbk9bsITH0JmEU6ZEjALFL5pcI/JAWW/vWYNSGQ5OmRzQIpaAAsjAVamDwLU46mg7x6Om0Pcy6oLdqAszD1zVn3nOUVZPFpAv/CaK+JLurQTktOxiTqMf3bVJSO9yqigUMCZhEJLxX74Slw6XEkw3beJbJ1E1AdIJ05mBaVNZIXQNShoGmanNfk/HeuaxlV3fguoFSYNmkKu4LaXlDZecHvTd4XsugQ7Iihl3SAdJENHhIwi0x6qeAPUYFRGy7xp1lxksq5k3nQo7YWSkGWxduwojRdE5pb3cT6vMmBXxOLUtvyCgKW+u+vo0VB4NS07wqq78t8BCFDeyMhmTMnz7JgWGMcbc0+xEfnP1FnCZj/iW6UGvGuFEhOlbHyDy+Ox+kRbWL2ci/WzIE0v//n5grMrPerAShZLco5COcsI2cgjPrvudUnr3rkrIP6oJ5XmfmVnfO33PIv6LuCfi+MpnlpnVdbtGljzvpoon9BbdCVpWCQFkv3Jh5ULGX7rm51qZxcFJCAKd0WkgJaKCAIAilpcp6HJxAZl0xqmlyLq6Wkb0MBdaC9jfyLMk8dXR2KmRtR0t6cYhbGRVkVqeyMU33EEUD6SApICkgKSApICkgK5KuABEzpBpEUkBSQFJAUkBTQQAEJmBqIJCWRFJAUkBSQFJAUkIAp3QOSApICkgKSApICGiggAVMDkaQkkgKSApICkgKSAhIwpXtAUkBSQFJAUkBSQAMFXg+YT4EnGpQiJZEUkBSQFJAUkBTIVEAfqA2YfFiSvD4wfT+sBku1lRSQFJAUkBQoYgUMgI/+34BZxJpLxUsKSApICkgKSAq8KwVez8J8V7WUypEUkBSQFJAUkBQoYgUkYBZxB0jFSwpICkgKSAp8GApIwPww+kmqpaSApICkgKRAESsgAbOIO0Aq/sNVQKYQ+DcsmXtPo0lMTEWQZ9+IXdtNwbVNn6lcfte9jTxz67G8yils+WIZ2l5bUPqCfs/ZrjeVvjD52FqZUq2UNe720lFe79MIIQHzfeoNqS4fjAJPU2HwgYeEegUQ41SClGJWCLpZJy3mdiRXTgion8uY1zFWmhzdVdg06vXJOahrc9SXOrgLW5e8jgLLq47a6vs+aS22Kbf6qOuYFB5JwrMgXItbsGBAHRysTT+YZ+O/XFEJmP/l3pXa9sYVEA/3+cM/lh9P+PLc0JSISuUQDA1eWkM5B3J18HxIf+esa1HWPSe88ztcOhOwudX/Q+ibbPUWBGJfhKDzLIABjV1pUrXkG7+fpQy1U0ACpnZ6San/zxXwT1bQZ8sNHjq7kOBYHB0dnWywVB+wiwY6AgrvP0g4tJu0F5HoWJXGtOUgLBpUR0dH6ebUQYD4ABKPbCDh9n0U6YYYVGiGdccvMSlumZHoJVxSo0g6u42Yv88gS9ZF37km1p2+xrKM/cv8QEAReoXIPVtI8HsBhnaYN/4Ch5bN0DfQy8pL5WZ9Bb7yeBJOzOHZKV8se07HtX7VXF9AZM8vEvjLSpISi+M+eQlWVnoZd2O2/ORxxBydhd+ZAGz7zqVMTY/cX2YUKSRcXs+DPacxbzQAz06foa+v7Ms3+XKQ3z2Q373y8jdBIDUhkZhbd5jeuYJ0gHQRjz8SMIu4A6TiPxwF5IJAi9+88EnTI6JaBTKIkRcEcrjd1F1whbGQ8ivn5SAvyFDcmkfI8JnIzVwxKueOPOgO6cFxmA47TYmvGqCrpwNxvkRO70r0tQD0ncpjYBpHasBTdNy74LpgHSYO5kpwCGnEru9B0JZTYFMW4+L6pD71RqFTEqe5p7Cv5ZoBX7nvNny+7EeKiRMm7h7oxPuQ/DwKo07bqDSuez4gEhBi/Aj9eRBPjlxBSNXHYeoRKnZuqgYuAR1ZCmneu/CaPJzokDR0zKpTfe9V7O301eAmoIjy5umKfjw6dQchzRDX2Weo0arWyxtMqbuAkBpL6J6x3Nq8k9R4GXY9FtFgzCgMDbK//Ki7id9an+Vz/6jDOzk6ltgrl1k/phmWZkYfzkPzH6upBMz/WIdKzXl7CpwLSuTrtRfwa9v8pRv2TVojGkExzwFWgMhLRAxpR6pZBxxmr8DExRri/Yhb+DkR5xNwWP4PVlXsST05mhdzD2Ex8XccWtVAT0+O7O4vPJ/0HbTbTunhbdHVERD8VvN4wPcYdl2O27Cv0NdXoHj+F8/GdifJdTTlf5qOgTyQoJldCL5phvuKvdhWLIlOejTRW4bzZPNJis+9RammbmrWqJr1KiQSMq0+L16UwalPE15MnYbl5CNU6tw060VEkJN8ZjbXZ26mWOcvEG4fJPyZMTXUgJnRB0ICARPr8zzKE5dONfH/YQ52PymBmd3NmULE0obcuGiO2+dtCV4wFf1ui2ioAubr9UFW2zS9LzRNJ9Yr6ckTPnPVpU3dUhmeDenz7hWQgPnuNZdK/EAVWHwukKU+CUTUqJSvZfmm3Xo5B/FcrR1BjuyvHwn64SeMh9+gxOeZLlgBwXcFAb2nYjp4KyUGtiR2tAsRaYPxWDMfPX1dpTWXHkPkoraEnLLD49ghTExSSJxdAf9rbpRadACrcnYq8ChIOtwH3wW+lN77N+axf/FkfC/Sm/5JlXGNEQ1Y0epUBB3G68veUGM6nnMnYJSb9SbEEbNrCwbNvsTC/ArXP+mB2SQlMF+CRJCRfOEAMWZVKV7BnMApXfC/I6dmDmDqCLGE792JSdPPMeMvzrUfQLFZZ6ipAmZWfklEbJyD0GIk9g5+nPukCXRZRCMtgZmXxamRm1V1/2vrsk9PSKBCzBMGt6uMgb7SHS193q0CEjDfrd5SaR+wAnNOeLMi1ohYj1IZrcjNzar+/dsGZ7b8FckkbR5G2Pr9FPs1FJsKyqjKjDSptwlqWQvZJz/iPKYNIR3rIOuwhtKjB6Ojq5q3E1KJ3zaKZ6v247DjGQ5uIQR1q0SsfUfcF/6KWTFx80/lJ91rE76DvsVsySMcZTvxnTgdixWheNS2yCozzQ+/Xh8RZdEMz2W7sCimdJ/maVElHuda8x6YTzpCZXULUw0uOrJgfMd3zABmrb1XcbDTz7UP5GH7Odt+ADazzlBLzcJ8pc+SL3OmWWN01ICZVx3z6u+33cfq95iQkoJbmA+D23piYpTVHx/wI/XBVV0C5gfXZVKFi0qBTGDGeZR6o4Eh6laJ+t/auOt05PHEr+hH+PbbFD/yCEtHtchd2VPCu7kRV248pcc15Wn7bhgO3YzrwF4vXXs6goykA5MIWLQEq2VRuFb150mreqRXGYj7gpWYmCmHbrFOsse/83hIZxjljavxZnym/YrTvgBKljLMAqY8nKChFXmaUAXPpX9g42ic9Zs6BDM7Uw2YVdQtTHXIqoDpd0dObRUwM4GlrpUIzH9UwKytmsPMFWzJl/m7WeMMC7Ox2hymVroXECT0unmpXy8C0yXch0FtPDGVgFkkw4AEzCKRXSr0Q1RABObKWCPeNjALFWAiiyVuaR/Cd/vjeOIOFuoBMYpQInuVIMppNKXH1uVpl8EYj9yCS9+u6GYGLomuzyPf4z9vHpazQ3Ct7Ydvm2YoagynzIJFGJuoATPgBE8Gt0HW7y6lLDfi/cNhXA/74OiktHoy4KSIJuyb8jwJ86TC4uPYuprm/5KReJyrKguzagHAfHJHzkd7r1LcTjwjSm1OVPW3Imw/Z9oPwHbWGQoCpmhhisBsMmZUhts4r5cXbb7P66WnMC9DOYHpLAGzSIeO/ywwfc6spWP7uXzt5cfo0soHS/qICggoUqK5e+4gP0yezuGbsPCRH2PL54i8E1K4vH8tC5eu5fS9EBS6RpSp25Hx0ybRtX4ZTMTJqv+zTyYwE1Qu2bftjtMqf3k8cSv6Erb9Lo5HHr5iYYZ1cyO27DjKjGtCYIeeGRam28CeLy1MXUFG4oFJ+C9agvXSyAwL07d1fdKrDMJjwYoMCzOzx2WPD+E7pDPCNw8pZbKZR9N+o+Q+f5xLGWZBUWVhBiZUoaIGFqZO4nEuq4BZPQ+XrK4sGO/xHXl8R04dNWDmfMEQLczTKmB+lHMOU90iTL7MXypgNn2DwNTGqtTm5Ui0MEtKwCzSUUcC5luVX0Ah8PItPu+iBARB+f5ZUPCbuHBek3R5lZUa5cfGWZNZsvUEhi6l8L8bwZxXgKkg/PRUGvXZgmvHEXzT9WN0Yx+zdeZkzug1ZtuebbSuYKn11mVvVep3kLkIzFWxRsSrXLJaAU3D5QPa5JltYFYkk7B5GMHrD2K3LRi78mpzmCm3eNqyNuktfqT0mDa86FiH9M/WUnbUoKw5TEUqsdu+IWDVARx3PqOEWwjPulUixqETZcU5TOusJRxp9zfycPBYLJY8xEm2k0cTZ2C9KpSyNVXLUcS+SHvC4151iLRoTuVlO7FUzWHmaampAbOa2rKSbHrIgvEZ3xHfO3LqqoCZm17aAPNP1RxmMy2DfnJzBeesS2Esytz0yfxOBKaTBMx38KTnXcR7DEwBQZZGQnIaBkYm6AkyUtPSxSXX6OjqY2RsjL5e1rqpnE18kxamoJCRnJyMQtcEEwMFqSmpyJUVwdDYBENVpOErMstCWdG1O/fqjWDSgLa42JhhoKf7KhQViRydM4lVwWWY9V1fqjhZYGSgnys8H57axKzfHtBv8kQauhfD2FBfAyBn1Szk6j56959P23VH8bwzmy9H7Wfaw+wWppDsw3D38vxZZQiHdq6ikq3S1ZZ0fwszdkbTfUBfPnK3yYiGTE9NJiVdjqGJWd46FOkt/uYKF4G5OtaITAuzqIN+sm+vJif91AwCf5iD6WgvnLt7KpdyCOLykOX49JqK+aAtOA9uTeRIR8KEUXiu+gl98X4UJUqPJWxxa178YYPnyWOYmSST8IMH3rfKUXbRAWw8iimFFASSjvXi/lxfyu07i2XMKR6N70Vay0vUHvURupllhhzmxhe90a02jaoLJmOk/6rrNBvwE49zsXkPLCYdIdPCFNuXLY0smEdqFmaJfIJ+/lJZmHVzLitR3Q4ZcEu+zCmVhdm8gDlM8TJtrEFtXnzyfInIEVgmAtNRAuabe6ALkdN7DcyYc5Mp1nw5XYfPxy3hPHcDQogODSIwyZqvxs5iypDW2BqpDxtZCmQDZikFAf9e4Kp/eJ4S6ZmXomXruljmEq2d8vRvOnbuyr+OS5hV6xLHL/sSFRPN87Akqrb5hsXzh1M+twsViVxeN4PZO05xOxgatOlCu5af0LxRbZytTbLqIqThfWILP6zawpX7Qbg3+IxO7VrxSZP6lCtpjZ6a2Rn+8G8WzZnH76evYVa1PV07tuPT5o2p6uGIsQZu0qTIEIITdCjjas/x1d/S5xVgCsReXYLzx+NpN+sMv0xphmr66lXtFAkcHN6ebtvuMWP3Xaa1L5ktarEQ9+N7fclcNWBq43Z7U4NngflEnufFkPakWPbAec4izEpYIiQEEL2kJ8H/JOC05Ay21UuQcnI4fvP+xGbmIZwaeaKrKyf9/g4CJo9C3mIbnqM7ZCwPEfyWcX/gT5h8vpoyA3ugrysuFzmL//iOxBYfRbV5MzGUBxA4owvPb9vjuXYH9h4OGfCN2jYCrw3HcZp1nXIt3DNAmh8YRJfsBRUwa+RjYYrAzLQwHdXmMNXzFi3MP1XA/LiAoB91YOa69EVLz0DO++JN3ieKlBRKSMAs0jHiPQYmJF79HvOPZ2NdtgVzFs+iXS1XdFOC2NK/JfNfVGf7wX18VkX15ptDxmzAdI1n66BODN9zPU+xdUp05/qDLVTIZRONtBdn6dS5Kyd9LOk/bg7jv2qElV4KZ9dMZMCCY/Tb8oCVX5Qm15VRgoyY0Gd43z7P1lUL2XMhHDvXirQbOJJvvmqHWzEj5Vu0ICcpJozHD27y+5YVLP/tGpZu5WnUuS9jRvaleklV0ISgIDUhmmcBPvy1dz0L1xwhxdKRWk07MXriGJqVt9EMWoIiD2DK8Fo9lMojNzNu5zXqBO9i0/5zxOgUo9onfZgw7gs8LFQtFVK5t28DGy4H0X7QBD6taP2fdtOKwFyjsjDf5ECYF0i0HnyFNGRX5xH43VwUxWtgUqEUiuc3SfIJxnzIAVy/aJ6x6w4xDwme2YOwe4mYlquMoVEcyY/vobBrTZl5a7EooXK3K5KI/LkXAXuuYVi6BiZ2OqT43yYl1oZScw7hWNsdXeSkP/iVe0MHkWpTHYvyHujE+RDvHYBx21VU+7Y3hoaqtZ45LEYh7CiPlm4hVTzkRfaCiHPX0C9fH5uSxUHXEoevfsLNw5CgfQsJuv0EhGRi71wiMU6GTd1PMTHSxdDxY8oPGYNF/CFuLt+RkZeQ+pSQizcwrNgEuxI2oGuN8+AFlCljgxB9mZsLF5MkA8R51rPn0ClZmeLlyqOra4x9q5FUa/5xnnB/F/2ufj+olycCs7gETAmYeSmQeG065nVn06T/PPasHY+DkXj7KHixtSXO3wSzctfvjGxbNtfL36RLNj3oHB07deWfJ9U46XOSRrYiMARiLi2mdMtJ1BxwmMPL2qKKvM+zQ8X5x+d3/mDJrDkcvOxNnH5xuo1eyqIxLbHMYSgnhtzm59k/svnYZYJiZDT4chabFgymuFF2LMsTAtm7aj4rfz3Kg8BgSrUay+qFE6lfxib/GysvYCpSODPzCz6ZtZ/yzZpAhIIatcqRFHiXK1dvYfbRSA7unUdVO6MC51uL9M5+C4VnAjPpfQz6UbOE0h8dIHzzKhL9Q9Czr0Kxz6di10i5P+tLKzXRj6jtc4k4fwWZzAzTWt1w/GoYZg5m2U/SSIsi7uQqXuzfR2qyPkZlP6HkwKnYlFa+HGX+Jw+7yLOf5xHh5Qcmzth1Gkep9i3Qz9wYQd0Vmtk3zzdwdcxS0nPpKx0scPpuB55VTXi8eiSBVx69kkos27BkI2r8uAarmLX8M24NaTlSKYFjSanph6hapThC+FFOD59Aklq6TCiBESV6zqZht7bvZNmQWAVt3PoiMB0kYL6FJ1vzLN9vC1ME5sfz+XzafjbObI+p6u6KPd4Z6+5eLN5xkLGfKXddyfl5G8C8kP4tj65NRRU9T/K9NTjXH02Vz7dz+Ocer0Avz25QJHHzwDJGTlrI5eTu+Pitp2xu20MKaTy9tJvvxk1in09Fzj85Rv1iyrVu2T6CnAjvs8yfOIJlf6Yzb9dBxn1WpZDATObE1D60mXeQml1msmP9BMrbmqBIjebcqoF0mHaFYWv2Mq9ffa3mTjW/Jd/flPNUFmaiWtCPWNsCXaV5pHlda+V1r1ev++vmVdjrc84LqufzJuv3vualjW4iMO0lYBbpAPH+A7PeAr6YeYQN0z7FWHV3xZ3oilW3eyzefpCxHd8dMC/qTsP34mgcVEZe8v21ONcfRZVev3H4554FA1MQiHhykRUzJ7P2jzvEY0v7kcvYNKMjqoMXXt4MaXEBbJ07mblbTxESr6BGl6nsWz8GxxwWJulRnNw0lxnLfsMrMAK7Ov3ZvH4OzcrbFQ6YQioXZn1Joxl7GbTWi7VDKyJ68cSPEPsPzRw/RT5yLWfmDcQgc2KqSG/hd1e4CMy1sUa8LjCLInikIKhrM3Dnl1fOF4j82prN4n2NFw9NX1relO55wbcwUNZGdzHox1YC5rt74HMp6QMB5lE2TGtReGC6JnFw6lCmHLqdp9h6jh04fGIB7rkYcJkuWRGYjy+Oxl4rYCqIDQng/q3LHNq2jl2nvLEqU5HGn/VlWL8uVHSyVAVEKEiNDeXBnRucOrCVdb+cRNetEh990pmvh/anQXl7FbgE0hOj8PP24tzxvaxds5NQM2dq1m9B369H0qFOKfKIg8phleY1hynHf8cY3PuspN/y26z/phqq9dyQdIOOznUJ6reKS4uG/l8C8+dYI0SXrDYDXUGw0nTA1zafNwWIN9FW9bq8T/XSVlNt07/JtsolYBYpLDOeU0G5sO+9/GTMYWZYmK8JzFJynlz6m6uBUXm309iNdh0bvGLpiRcUGpiKRK5umMGM3/7kTkAKtdv0pGeHFjT4uCal7JVr1pSmWzo+JzczZfmv3PR6hmPt9nzRvQMN69XG09UOfTVLLvzRP8z7aS4nzt9AcG3GF3260bzRx1Qp64KpKrhCo87MM+hHINV/H1XL9MD+i0XsXTcGx4wwWYGke0vxrDGTRrO3sHVC52zRuxqV+YEnEi3Mde8QmJqCStN0rwPm1y0jN9C8rvv1deuUlx6Fybcw12SWn5/Fqg5c0SVbTLIwi3QU+f8A5mvu9FNoYMpCWdr2U85WHcGCCV9SzkG5mPyVjyKRwzO+YeYjR5bOHk+jssVehuHnTPvgj7WMW32FfjPn07V2iZfuUk3vIoVCjkKuEE8F5OSasXw55gBT7/kyupxoWuugp6+HLsn8M6wczXeYMnXTLqZ3qkJaxB2+a9uWTSGOrN5zgoENHdEhDd+/9rP/djhNuvbnY3eL/3SUbCYwU95R0E/2dZZv9mDjnLDQJvikMFaWNkB5m3XRpO7vq+6ihSkBU9OR7u2kk4Cpga6FBqagIC1dwNCwgKN4BAGZTKE8aqmArX7kcjk6OrroFnL+8PzWr+k/6XcSBEhOiiUuPgUTWwcsxYlKPTeWXDxP71KGCElPWDDqa9YfuUG8kRUkJ2DmVImeI39gcv/GWInp1ddh7rnLtHb/7XWYIjDXxxqR/IaCfrS1+HJCRxsIaQIKbdJoWpfcXJJiu9+kq1JbHV8nvabtfht9IwLTWrIwNRix316S9xqY8vhALt0WjxqqRFmXLKtLFvWAyw+TKF3BE2dbs1zVeZNRsorUWB48fEgcLtSuVhJD1dMgTwzi2h0/zOzLU9Ejc47x7XXWm8g5OughD55EoMg1M0M8an+kcsFCSnwEAU/8CI9PRVffCJsSpXB3s8coE9ZidK7P30x5JR/wAAAgAElEQVTo1Ifya+7xXTMHzdaAvomGFEEeIjA3vEFgFuXg+zbLLsj9qg2YXwdumrpcX9c1/Dp11AasokvWKtyHgdJpJUXw9CuLfK+B+TqqvElgvk49/tPXCgIpgftp1mAuEy9fppNrLhFT/yEBMoGZ+qaCfgQ5iqhgMHNAT1+BIjYeXWtb9DK3q9M6clRAJy2G+L9W8mLzzyS8iETX0h2bblNx6dUdI3Pl2lkdRTrpAWcJWjed0Mu3kKUbYFylA25fz8Chmoda+QLy8PuEbP+JwEOHSU3RxdCtPq6DZuPSqCaGhuJ+dwI66Qkk3tyO99pFRPg+R9C3wb7tGDwHfI2lnUVGmbm7WQUUUb482/0TD/fuIylZByPnjyjTfw7lm9fByEjcHlIAWRIJd/dwd818nj8MQKFjQYlWo6g+YAR2TjbK7fjEbRojvHiy/Sfu/X6IpBRdjF3rUXHgbCo2qZWxhaTSeSMgpETw7PB8rm/bQmREIoa2nnj0/oGPOrbCzNRQqVEBx3ZpCsk36V6WScAs8tFEAmaRd8EHXAFBTviNQ/xyoxhDBzXLNWDqA27dK1UXgbkx1ggRmJoMmAVaDynhhE9tAV1341BBRsjc8ei2XYNjM/fCDdjyGGI398dv+yXMWwzEulJp5MH/Ev77HnSqf0eF6RMxNddHFvgXjyd9SYxeI0p+2ghDoyQSb+wh/IEB7vP3UbKys2p/2ef4TWzFc38bnNp2wdRah5RHx3h+6h5OY3dQoWMz9Egh9th0rv+0FNMmw3GqXRHdRH+Cj28nwfwz6ixejq3q8OlXIJQehPf0tnh7GeLarheWtvqk+J7k8eELlBy5ndo922Kgm0706Xmc/f5HjOoNpXTdKuinB/HsxDai9ZrRZOl6HMW9jtOfc3tyax4+tqZsu65YWuuQ6H2cRyduUWbMDup1+iRj72lkEfgt78L5Ey9wadUXx9L2pD67iNe+/Vi1X8Kno4dgaaKcQnkT0CzwHlDdZZll5Wf5iy5Zi8JamKkhcC4ImtfklS3J5Kngdw+CbaGhM9y6DE51wTG3xeEFPNFCGty6B+WqQ0ogPDOGGk7/mWFAAuZ/piulhrxtBebnA8zcLImMQVART8qZvaSExWULiMoYGGUJJBxdhlBlEJbuNqR530awr4zlx52xqO2ZsZ+r5gO3gBC4l/uD+6FTeQYVZo/D2EQPQZ5E4vbe3F3/L64/nMW1uQex21txf1MyFbcfw87RMsOKEyLv4TO2CRG2C2iweDD6OgKyKwM5P/4MbtN2U6ZVXXRFay81nOffV+VRcCca/rwCs9R73JnYmeDQ9jT+bSmWFkYZUd+Jp2dybuYi7IdcoM5Xqk3Zs1ltArIb33J01B5Kf/sbNbo2F88ygLRIns6qylWfprRctQEb4yCui1B90IB2u9dhayVuJSkn4dISTn4/HYvup2n5dT3k14awZ9wpKk7eRa229dAT25QajveMqlx61oHuP6/C2sIQmfcqtn31Lfad19NybD9MDHVBFk/wmmYcPAqfzD9MpRolc9VdvS80AaGmwNW0j0WXrHlhgXl/JYw3gGNfZwem/w7oMwcs68C0mWB4EfpOBM8m4FoVZnwDFjLYvxxm3YMrO8Fc3GhYAXePwdiZYFIN1q2FkkYQex+GbYX1CyDqJAw+D4dni5so/Sc+/1lg/id6R2rEe6WACMxNKgtT08FQRxZK7OKRxD0JezkIv2yUICf96R0UZmUxtrN4+bVp48mU6N0aPRWF8yorW+CMeJ7l7xN4sGA5tj8EUKalS4YbVLxWCNvNzfZ9Me29mgoj2vOsrwshzjOoO3dK1ok/8kSCVvfAe0c41Y5fxt4qgZDRpXgQVpcai/Zi56Ksn5hfwvlxXBl/iPI7rlEi/hj/ju+PTv8HNO5TLuP3jEVIMee52LMdqe6Dqb90IebGWedpZr5IPJtajate9tRbfArnslYvr026PZ3jQ7dS8eezlLHw4tzIjqR0v8FnA6tlGEcZbYq/zj/9OxBh1J5W6xcSNdWDCy9q0GLRAVzcsqK1Yy59x6ExB6j92xWqelgQvKEPBzf+wUfL/Klbv8RLK1IIWs/WThNxHbudT3u11fhF5V0GL4kWppk2wIy4DlPXQGIi3LgCdrXB3Vz1FmYAbb6EFiXg+J/wBKgHzD0IA74DM384FQLzp0LYHbh7HYbthid/g4UOxD6F2cug/1TwtFXduwLsWwSPzCD2NkQmwUM/8CgPBvaw4Cew+7CnbSRgvldDslSZ91kBEZibtQVmRoNkyO78SVqcuMu4arwyc8e8igvRS1sTW3I+Hn0aQJoMDLKOa8vLTZerRSJulL5uCI83n8Jt91Oc3I2zXIppD/FuX4mEutOoPq4VDzo0g57rqDGiX0ZUdkY5QhqRO8dyb/kWXDaHUrbsc7w+q06UW09qLtyIpaXaeZiPtnNt8EBMf/ShHNu4NmkRTpteULWy2hmc6c/w6luDAL2Pqbf0IPZ2yiPiXsI/3Y+bferzXL8uDVftx94mK//0F0c583lXDL+7Sp2SFzk9fAqOq/2pX0s8Uk61vEYWzN0Rjbgb5kCzFRsI+LouLxw702rxL9hZZeWV7LOLYwP7YjHjIW2bWXH3h+5cOPWElvt8Ke+sduB16m2OtK1NYsf19B414JWNKTS1KHPrm/wsU23yFYFpqg0wFWkQlwR3j8Lqu7B8spqlpwPGJvDiNKz4De7IoVsTME2GC3fAtiz06QfVncmY1E26Dm7jwO8fJTCfnILvN4BTSXD+GAZ2A9lNaD0Axq0Hu8vwtDq0rQK+F+FiLIz5CgxyP13qfX7u1esmAfND6SmpnkWuQCYw0zWcw8waKOOJ/KoYYQ/VYpNdv8Vz9xwSNg0gNLgzFb7/lOhlg4myGE/ZIXWzb5SuyV608jhCln2J/85HlPvDC3sHJTQyBmT5CwJ7OBNcagy1xjXk7mdfYDr8F6r07/FyGZOOICP+0BRuzl+I/cIIqtTw499WjUirPoRaC5ZhZpp14kia31GuD+6AfKgXlc03cW36HiocfIKHixqAFJH4D/PkbkxF6i0+jqOz8ji7l3VKusuF7p8QY9uGJmt+wdpc7yWk5OEXOdenIYm9z9Ok7GlOjl5HxV3eVPfIsnJ1FDH4TqjLRW8jmsxdxaMRbUiq2I/Wi1dipVbXlMDjnBzYltRBd+nVxZark7ty/WIKHf/4Fzcb/aw6yQM43bk0gXWWM3DaKI2XvWgCvFxfcDJfnPIILsrNchWBaaINMMUyUgOg9adQvhd8XCbrGbIoDq1aknFixKreMOY8DKkMz52gxAswGQyj60DJkiBux5kTmHc3waTb8NtcWD0IKk+BpJlw0AX6fgGlH8DWOJg9Ev6cBw88YFw38lxgXuRPt2YVkICpmU5SKkkBRGD+EmtEYYAZMbASQud9FG9Xh7SLKwj82R/3rQuRHZ2G/x4dPOa3J3jKEIxH/03JWg7aB5zIYglZ9gV+u55Q4fhd7O3VYRBCQC9Hgpy/pdbYj7nTeQAWI7ZQuV83NQtTRtzhadycNx+7eaFUreXHtdZNSa8xjNoLFmOuOhRVBESa/3H+HdwW2cB7VLHYyNWZB6l46DEeJdWsSEU0/iPLczvck3pLjuPkojye7iVgEm9xrvunxNh3oNmaTVirjvoRf5eFX+HcF/VI6HGWxuX+5NSYX6iy5xFVVe5EpUs3lseT6nL+gQGN5yzn0TftSak0iNaLl2FlkgX31MBTnBjUipR+t+jV3U4FTDmdj1/FtZgS0sqXimf83dWVJzWXMmT6txq9sBQGhBq78lXPmzo4xShZY22AGXETRs4AmTmU9IDa5VS5psCObbDmTzC7Bp2HQPXmoFsG7L3hQiLUKQF/34cN26Gi7avA9NoDu2Ng+mA4PBdi60LfprBnDZh/DLX1Yc5emDUdVvaBanOgffmsG+ADHU8kYH6gHSdV+90rIAJzixbAzLI+4onoV5pkz3FY1y6L7MEfhF20otyOJeg+2IjvhHVYdixN7A07yi1bgZGpgfbAlCcQuqo/j7f9S9lDPjiWVLP20v3x7exORJWJ1B7XnLvtOmI4cCPVB/d+eeKMjpBO9L4J3Fq8EsfVUVSqFMDNNnVJ8OzLRwtWY6GyAMU2pfru5+rgHuhN8KGS/i9cmbqRMrsC8CyT5QbWkYfwaGAVHqVVp8HSoxQvrjz39aUmqY+43KMJoZbNaLJ6O3aqA9gzgBlymtO9WyIfdoVGbv9wcsQCPLY+5qOKVmoWYQReY+pzLdCc5kvW4zOkCVEevWmz+GdszbOiXJOf/M6xgV3RG/eQrm2suD6tG5f/iaDD4bt4OKgBPs2bPzp6EvrJGgaO/zq7NazFEpOcFqcmFqh6mvwgLFqYRtoAMzUGnqfC7QOgWw0611c9NAkwsDNMOww3JsNdFyhRCjrYw5nHEGECFnchphqM7p67hRl8E+bugZlTYM0IqDIJxJOjdq9UArORA8xcCWP6wMgfYPUucDF+9w/tGy5RAuYbFlTK7r+rwAI1YGpnKSQQNboiYd7iqcWqj8tQyq+bgWHyHQL7tyUqMAX7MTtw7dkyy+rT0G0nJtMVUone9g0PVv9KyXVhuFdXHgKdMRgnnOdmi+bQcR7VRrfHp1tF4pss5+PvRqCnq5zDRJFCyKYh3Ft/Ds+DPpQqEYHvl+UIMG5FnYU7sVEFa4hpk24t5fzQOTivv0/p5L1cnjAWizkh1G+knGPMCPpJ9uJqt0ZEFO9A4+WbKWaR5XLNqJc8lIfDa3E3uiyNl5+gpGMWUFOebOJY7+8oufAS1Wxv8teIfhhNDaDNp05ZgUypvlzo14IAWXVa/byKoNGVuavXlDaL9uJkn/WyEH93BQcGz8JjzW0a17DEd3FPju27SLNfg6hR3ixLo7gT/NayC+ZDttB1QI9cgZkb/N7kOsuCLFbRwjTUBpiZ99reOTB3P9gUU30jh7BkOHQWShvB7WNwJQW6fgQXT8C6rfDxeJjUCTLOIAaS78BHP8KVfcooWXkK7FoAc36Fpt/C/GEgvqjsWgnpVmBoBLJ0iDgDu2QwuiPUbQ2lc99o5kMZNSRgfig9JdWzyBVYeNKHLdGGpJd99bQSrSwJeSqyUF/SU0tiah9K0KiWhIc7UHrF39i4ppP8OBSj0uXQN8wBmXwBqiD9+gpujpuAaddDVBnZBn1dMZhHTtr577g0YTOOo3+nQs96hMypxMO7Dan/62bMVNGrQnIIvtMb4f+kDU13rcDMMJ34rY05tz2NavMP4lrDVTmvJ6QRuq4JV3+3ouH2A1gnXuTq+O7EuKyg1YKvMM44W11BmtdGTo34BrNPN9F48hcZ02DZgZBO3O4OHP3Zn5qzjlCpQTnlxgJCOuG/fsLx3+CTjQdwMgng/PhWPLOYTc/lX2MqepoFgfTHuzk8ajBCtSV0nN2P5O3N2LstkcbzDlKplqp/xPNkNzTl6H5zOv12ABd7E+LPTGTzxOVU/PYfWnzeQBmDIsiIO/EVm+dcof7Mg9T7pNorQT8FwSw/yzK/awsCbsbLkKrfRWAaRfgyoLUnJkZKl7tGH6/LEG8GZRxVydPh9HFo2RfEedwXD8A/Fu79AUIFaNkSPOw1yvqVRLfOKaNyX8SKe0SoffSgTltwl4BZOGGlqyQFPjAFNl15zvJbEaTVqZ5j8NdgkXtKDCmPLpL472nirv1NSlAoujVW41jmEE/XH0XX1BKHaUdxqhvK4zGrcZy+FcuSSgsorwH3ld9S/AgYXpdnEeUoN3sXTpWdkYdcwntyb8KCXKn6y0nsnUxJvrGCW+MnofvZDj76piNG+mnEHRvN9Tl7sZt8ihrtaynhFXeOqz1akFBlKg1nT8fMQE7yjaVcGDsDo7YLaDhuOPpEEbigK/8e86bij6eo1LwKOsnPeDi3B/dPhlF7+23KlRXXer7aDuIvc7ZnIyI9xtBmwXwsjBQk313HiVFj0Wv0Pa2mTsbUIAG/NV9yZvs5Kn//F3Xb1kJPFoXXom5c/t2POlvuUtPTCuLPc6zHJ0RXmkyXuTOxNJCTeHM5B8dMw6jVPDpP+AYjkY5JXvz9eWUemXWi3dyNuLsWI8X/KIe//YpIi9Z0Xr6VknZKa1cTSGqSTpN8cqbJLegnNSkJ00hfBrWrjKFBAftTa/NsiQdWZR5apfuaUazi+kxRvQL2xNameu9TWsnCfJ96Q6rLe62AT3gSny87S1KnVqCbFViS74AopJC0thN+e66ja1EMfUtrjCo0x7p+A3Se7yfot6tYj9+JTdJiAv82wa2LNc92hOK+cDPmVmqBOxoN4AKKkCM8GPctUU9j0LOzRYgNQceyAi4TDuJe31lpraSGEbRxDL6/HyNdboqBQRJp6WbYtBhNjdFjMDHLnNsTiDk1kzurfiYuUoGRtR5piTLMKrSm2pQ1FHe1RBcBReQlbo0fyDP/UHTNrSEpFIWJO67DtvNRe+Xaydw1Eoi5uJBLC5cSEZqGsa0xaYkpmLo1ou73v1CqTLGMLe8UMTe4MnEAj32egok1uqmhyA1LUXrgBpp1a6jKXyD89Cz+Wb6aiAgFJsX0SUlMx6p8S5pMWYubm3KdZ8YWeoE7OTphMs9exGNsa0VaXBQGNpWoN+0gNWsUz7YRzrtcZ1mQy1cWFYSjbjw9movWeGbqfB4ZhRzS0pSWnq4BZFqliiR4kQjOohUpgxQFGBtmbHNIUhwk6YGdar1mtuwFSEuC6DRwKKYWwCNASjLoG0BMLBiZgIkhxCeClVVWZKwiGcISQVxznJSqlrNqiYv4EhAbmdHHiBtKxEaDTABdPTC3hMxDLIR0eBEOJRxBLx2eh4OTEy93+sjMWZEO0UlgY5V7sFFcFBiaQXQ42DopyyzgIwGzIIWk3yUFVAqIR8eO3nSFf6xLIivl8nKuMX8LUIHC9wwJoWBYohTGzm7oG+sjBO3DZ8zPWA+eTfEmddBNfU7E5m95fugMln124d63FQaqrX60my8FecRDYm/9S0pMArqmDlhUboSVW/HskZ9p0STcu0Dc0+fIFQYYOVbEtlptjM2U838vB295MkmPrxH16CHp6boY2JbGtnojzIupBfiIXs3Ep0Rcv0h8eDQYWGJZvh4O5dwz5kjV9XkFCvJUEgOuE+Z1j7Q0HQyKueFQownWNibZ6kFyEKHXzxMdFomga451ubo4li+LgXjCTyaQ5cnEP/mX4IcPSE3XxcimFI41GlNMra4ZdREEkoPvEHTnJvEJqRhYOFG8WhNKOFprHGyVf59neRw0sUDzCvpR/15PlsLDa9cY16M6rsUtNXsmw2/Aoh2QlAyOrWBKR+V1CZfg67OweTKk3oUFR2HwCHC1hKcXYOl9WDAMlO9NWR/RevxzPSzxgt3LwSoTMAq4vAPiasC1rWBWG3pVhQMXYNAAMFalS74JP56Ffq4w/yqUUQZxkZQATfrApxVh/yK4bw2jO8OCqWDgBPEh0OMHqFdcmT7yIvQ/Cjtng+FTGDAXVq4Ba3WrW4BnV+Dnh/DDAHjFgy2DtXOhfkuYuQSWbIDiqkR6BpCxT/KrLyUSMDW79aRUkgIZCiSnyui89hovalRDMFcLGtF271FBjpAmQ9dQ3OxbJ2MQFzdFV6Slo2NoUqgN2PMaxHN+n7kDkPh9UVtQ6nB+nbrkBeV8Ya3J+tZMGOeIlNVU67xedrRpqz4Kbl2+wucNXWhczVkz61KsoLhxQXgiBJ2F3cHQoSwkiVbkLZjxL2xdBJVLwvkjYGgB0ydDtGhxysDEGEw8YOd6cFbtQpXwAPpPg1JyCP4MNg8g4+imlFAl3M77gfcT8KgGnzeBOavBzQ08P4Wh5WDsbHgowJRacKQSTKmpVNfrTzD6FAY2gfR4uOQNVa1h0XaYMBH29wf7+fCZGwipsGwk6IyH0eUh/TG0/w527QMbNWCKLuYNU0C/NXR2Au90qOOZZe3GX4ARe6GdLvTdCqYGYGcNOnrQaRzMFiErAVMa9iUFXksB0cq8cD+IJRdeEOhSCpmDLTp6hdusW5tBU1srM7+BOj/XnyblqIP2fYOuJvUvCt0LA07xGnlyPCEB/pS106Nv60ra3bvJftB7LDT/FARL0PeBYBGEz2DjQ1i9GOrYwPNkcHWB6LtwNxVql4Zp/WDQDqjnlBFBzfXjsGQTdJ4AH7vAjh8grhr06QIVHOHBPzB/LkQXg+4DIWglFJsMLISoaTCpCjw9DTPFDRIsYfRT6GQK271gYCdo0xnco5VrNzv3gQerIbYtjGwD+78Gn0YwqAtEnYbP58DOdfDIG9KClZG6Y78DcwNo1E5pKfocgXl/w8zJsG04lJkGPWsoTX9xI/pRzeCRJxQzgrET4eCvMOQbMDcCOwcwyT2oSrIwtbsFpdSSAsgVCp4ExbH7gj/nItMxdbTDwFTposy0PDJlyvmOmpv7Lec16v9Wvz7n3wXlrV4HTeuWW7qC6qNJ3rlZZLlpVJj25qZ5bvkUpFdBvxdUjqY65dYv6o+VWA9BLiM4NBLd9CQ61S9F7fLFM44o0+6jAN/90GU2TFoJ9SLgYCr0d4CeJ+DYfAg4AqtPQauB0MACVq+FWAVci4aDm5RuzmML4XA0DB0GejfhLwMYUQ+O/AY7LsDsNfD4L+Uc6ONEqG4Bg8fAsNXwcCH0OgItbCDuH2g2Bbq5wsY4aGQEf/pDm3rwSQ/o0Ri8rwOW8MtkEKqBjRFEPgF5GZgwCv74DlYEwP4VEBgAaS9g2nqYOgMsDaBmQ0i8AL2mwk/bQP8QLEmCXyeDZUaINdz9DVbdhJAwGDEeapnBoGFQtSlY2UOn3lAmd7e3BEzt7kAptaTASwVEa9M/OJYL94KITUghXZ77sdySZJIC2ipgZmxIjbIO1PEsoe2l2dMLchjXCurMhs9Kw4zZ0L8FjD4PxxaAuBf676tBXhM61oKga9CpP9h+CXsngZUByNPJmAQUXZQ398IxQ/i+U1Y5SS9g9kTYeRh0ykDjofBtVVj5E5wzgCsHIeYQNO4PZbvBKCs4/RlM1IGhJ2HrBLAyy9hHmfAH8G802FyD9REwtBP4nAJvG5gpbigRCd/OgO9XQgldSMvhkpVFw/Sp0GQmVAuEvvNh3TaIug/OnuBgDmIwVPJVGHcKls+AhMewYAuMmQBmeso9dvX1cg0UkoD5erejdLWkgKSApMD7q0DIKej7AxTvDJtGw/WL4BAPX+cAZloZCL8Ad6KgaVeIPQFp9WB4J7UN04XcgSlC+eIaGHgdhpaBYk2hd1X4tiP4dYM/vgFFPLy4BnPPQMUQeOYK3t5Q1hkSg6HpKOhVG/bOhaAqMKIxLJoFJcVAolPQfQY0dgdFNIyaljcwxZ4Q5y+Tn8EPP0HVAdC7NpxcA3t0lbsSGYubyV+GsSdVwPSF/kOhcmMws4aOn0OlEhIw39+7WqqZpICkgKTAG1YgwRd6fA7DtoCbCVR2V+6+k/gP9DitdMmmesPo4RDiCPWqQcVKyuUm4rxlbArUaAjFlRvnZ7gzc7MwRUCF3YX+ncDbFub8DDZ/w/pbEBsInRfA4PqQehlG7cw485SOdWH7I2hZDZ5chcpD4HMH+HI8TFkH7smwYDLs+RucOsOqaVDRUTw3rmBginO3PdqAcVto7g4Bj+DWTbjxGFb/C71K5QDmY1i4FcaKFqY+GBmTcbbeqzE/YnBe5orVN9xZUnaSApICkgKSAkWnQIwXnFJA9yqqQ0TFZSGbYeYaaDYLZrWDwN1w1gkaGcK2XeDzHJJUazf1bGDWYqhkkwXMB6fgnD58/UlWu5LFczPngk17aG8HF2/D4bMwaxk4BsLcvdCrLoycCQ37g6MDtALW+UL98vDsDrh3hSp3YL8VtI6DIb/Cl9/AV83h/HbYeBLGrYWPTWDuSvh6CtjpQnogDF0IS8VlLqooWVkkrFwLerbgUALKeoJnGfBbD0dKw4S2kHYbFl6CScMg6Sn8+gcMHgqqQwby6jQJmEV3O0slSwpICkgKvHsFxPWUOgUv0s+1YuL8n3isq/pOQ5k7BYnrFjPXLorz+ZknoIu/i9+np4KeoXJph0IGCh3lXKFcBoLq74y8xFgA3TyOAhM3T0gHA3GjhYzoKIhLBAvLrDVSGimqgDQ5GIiLTRUgkys3XsjFqlTPTgKmRuJKiSQFJAUkBSQF/t8VkID5/34HSO2XFJAU+O8qEHYJ/ngCxgaQngAKE+VxXaJFV68tlFJtSvDfVeCNtkwC5huVU8rs/0EBhbjcLD6dK8/jSIhNymhyAZ6cXNNock02d1Au4mqTR25pNbk+rzSaXJufNm/z+sK2tSC9Ne3r3NJp0t6caYwNdKlZuhhONiYvzy7V6hm7OhKWu0H/GnBpFkR9CR1KwZmVUGcZdCqtVXb/74klYP6/3wFS+7VSIFUuMO50AOf+uk9CcTtkZpkRhK9CM79F+OoDakHpCkpb0CL9/OBRUNm5bUqQc/Yrv40L3nTdxPy02SihIO0K+j1nWZq2Jy9dc4K0IO0UMgVRQSE0rGDPlM9rYqivp91BICIw51hA90pwfQXEdIYWLnDlN2ixVgKmVk9/xj7EUpSslppJyf9PFUiUCYw84s1fISmEVfVEYZz/MVDqg2HmQF/Y7zIH2tfNJydwMuuT33ZxuV2TWzty1rGgf2ujRc52F6a+mpQn1rmgvLVt1+v2nSCXE+r3FJv4YCb2qIGtVdZLWoGP4uXhMK/Y/9o7D/Aarz8Av9l7iRUSIcNIaI3aWrNmUbNFl/m3OswqqrS1KUqrOoyW2qqoUbtDS+0RMkhESEgi82bd9X/uSHLFTe6X1dCcPI/nkdxzz3jP/c77/X7f+b4LAwP0wuwLnTx1wuz4pRCmSYCPFhDCLCQwUbz8EthxM4mZG88S3vkFVNZWj377h8GDvP9NKeWVQHEX5/zkKEU2xXlvQRLKK7CS5CtlXFIkKqWeYp14qNXEhUfSqaqcl4Kj8QoAACAASURBVNv4SY8yjw2BBRXhJV+4/J3u+azPe8CFPdD7GyHMQi5nQpiFBCaKl18C84/e5PM7CuIb1MlJC5qKRowJzdh7DNOc2f839jfDRdfUQ8QL2zepwstPIIVtz7Aew/8b1lMQK6n9zU+whlFrcYRXnDk2Np/GWGj+JpelUT0hjJE9ArHS3I5h6ketgKWt4fbr0KYS/LMMEvpDZy84tQHafyGEaYphnteFMAsJTBQvvwTmHgxmRZINSX41840uSzLCK6yAdAu3GtWd08j+PIE8Phlzh6rYNumBY31f7e1vusVY8xVPMaT9tZ+0m+EoFZZYeTXCpfWL2LrZ50Qv2sVcnkz6pSMkX7yAItMMy0r+uLTuiWM1V2053YKvRv3wOg9PHiItOg4snXF49kXcmzTEUv99lQXKTZVG2j8/En02Cqd2b1At0OcRvtlCUsZe5e6h3aRnuFJj0BicHCwe//5KlYzkvzZy52IMrp1HUMO/uvG5UmUhC/qFsJPncWjQDb/WLbHUf/+oKe6m5ri0IlJVRgYVHoQwons97G3yflmlkeMy/Sa88DJsOA0B9rBnMERPh1GBsP5NqDAHeotNP4VZ0YQwC0NLlC3XBOYdDObzJBsS8whTaoRREhFNwYuxGnXo10SNe59MmQVWXp6oYkNRKp1xfu8o1XsHaiVnnhZF3OI3uX/4D7CrhpVtCpnxGdg2G4HP7AXYudpq51kjwpStowhf/SNyhSs2lSzJio3FwuM5an28g0p1K2u/oUIVtZfrI4eSnKzAqkp1zGQRZKXb4/L6Np4Z0SHnawWNRnqZcdzfMJ5rG39CnmZNtRl7adKn3SMbezT9UN3bz/n3h3EvJBYz+0a03H6aqhUtHxVmejS3vx3N+W0HyUq3xXfuMVp0afK4MNUK4vbP5M+VX5AYl0HVgUt4ccI72FjpZtKUMIsajRa3bo0w3WJDGNFNojCDt8DkBNg1GjRju/I9xNWDLydCELBxDzRyK9fHdGEHL4RZWGKifLklkC3MZL0wTUUaxU0ZFi7lqoaUyzwY2Z4UZQs85q3D2b8y6odXiZ39KvFB1nh+dRxXXxcyf5tNxKxV2A3fSY0h7bC0UJB1aiG3ZizGavjP+A9pi7nmq5pitnN98FvQfj51pr2LtZUSZehWgt8ehaLZTBrMnIKlKpq7n/Qj/PeH+C46gGczP8yyYolZ9SbB285Ra/UVajWurI1uHxONOp178zsQ8reCqoN782DpQlyn7+W5Pu30wtb4WEnaXyv4feo87Ft1xzLyNLH3HbXCrKYXpnYe1GncnNOOoIvmePZ9kbsrP6fKp8do1aVJbl3acpnErX2J41uj8OjTi4R1n2HdfwmdJ7yDtZWZ0cjWVBr83xKsMiMD18IIU5tw0D9lp9wetSU7cCHMkuUpavsPE9AIc2WSDdnCLKlrY8WNPLT9UKtQ/LGAiOmzsHvzOJ7Dntc/P1qF6tI8gkctwmXsFqq/1o6E6b7ci+5DwLersLbWLfdmmfHEzOvEvX8aELhrA/Y2Wcg+b0zQIWf8Fu+kUmA1vXiUJG/uxbVvUgjYsh/n5JMETR5I+rM/0uyj3lhqn1mtRhW+hX+GDcOy9Wc0mj0aa0udjB45yVAnc3/1J5i3HUcV7+v81nEgTtP20vQRYSpIObqWqBRParULJGLOAIIvKWllIEzd+JO4vWYR1u3HUMXtNAdeGkalT3TCNIzsUcu4t2w8aa0m4BOYwqEX22HWdwldDCJMU5mAvCdKpn4vqYhUI0yXwgrzP3w8lsXQhDDLgrpo86kkoBHmqiQbUvxqavtfnE05xYk+jYpalYFs/ViivtpMxXVxVAl0yJVTxjnCOzVH2eVTfCZ0J6pPIzK7rqLehNGY6y9saiKvxA3jufnFXry2ReDh9YDIgXWJdetBvcU/4lwh95pZ1tU1XB7xPm6fB+Ep38rVqdNw+iyW+s2dc1OkWWFcH9CceLcXabhiI64uui8/ziujnN9lBzjeYSDOemEa5aOI5trk3ty4pKRNHmEa1q14sFMrzIqfHKONXphGT0rS/2Jf+xeg7xK6TngHW31K1tRGHFMRpynhGkvhS3mPQi/M4VJTsk/lUfZkd1oI88meH9G7J4hAtjBTi5GSLZFo0kA8OaJQppC4cijRG89RfU8IbtV0t71oX1fc5l6/miTVnULtSe25+VJfrEd+h9+IQZiZ6dOQagWpO98nZMly3Fc+xKd+BDe6NicjcBgBi1diZ7DBRh72E9dG9sNsYgi+1mu5MmOdVrK1fHT3pWr/KR9we1QgN9OeoeGy/VSqmnvPquZEI7tvOelMvTA1EWZzwwjTMCpVRHPVQJjV817D1NerfLCTX/QRpqEwH4k0NWXT/2Jv+xe0EWY3iSlZKWIzdmJg6m/5fS4M072aCNMpNgQhzLJbFIQwy469aPkpIzBfH2FmC7MoKdlSE6YiiYfLXyN6y028D17GxeD6nrkqhuhXPYir9h71JrUgtM8w7Metx/et/jnCRK0gbc9MbixciOu8+/g/d5OrXdujbDSGgEVLsdN/7ZFmzPLwAwSN6o5i6GX8nb/lyuyf8d0Tipde0louqgTujq/Djdh6NPzsAJW97I1eHzQU5jF9hNlMv+nnMb56YV6/pOT57acxFKZh1KYR5r6XhlHZIMJ8TJZ6Yf6sF2Z3fUrWWPo0r+wK+7uxiLIot8tohOkohFmmq4YQZpniF40/TQQ0wvwiyQbZv5iSlSxYZTIJK97g3o9B1PjlGm5VdClUrSgUUdwb4EW870TqTXye0F6DsR2zDv9hA3OeT2qmiTB/+oDri5fgvjQO/2fDudq1DVnPjCRw8Qoc7HMT0Iqbe7kyqhfqsUH4263l0qzN+Oy6Rc0a1to2tSWVcdwZE0BwUgCNPztAleq6p9Pkm4qWHeBIh4G46CNMoycjemEGXVLSVi9MY5GbJiW7Vy/MFwxSso9Fh+l/oRGmJiXboxRSspLnzsRDL7L7rUnJOghhlumSIYRZpvhF408TAY0wv9QLU8pGDlNpuOJcx3xsMValkfTtaCK/+QWPzVFU8bPLTclmXuFWt4ZkvPARdSd05Vbv1qj6fkXA28MMhJlF4sZ3CV65meo/RONd6y5hfZ/hYbV+1F+8DieX3Fs4MoPWc3HkOBwXBFNLtYmL0+ZSaU00Ac845EaR8giuD36Oe3bP03T5NtwqWBV8u4bsAIf1wmxRQIR5eXJvsoXpabhL1kA6mgjz55eGUeWTY5gS5m69MF/KR5hGI9OCxG+YQs6nXFFFqokw7YQwy3TJEMIsU/yi8aeJgEaYqw2EmV9KtnC3g+gIFPba2GOLrlpJ5v7phM5dgvO0UGr28sndlHTnG670fRfHt77Gd3QPYkZWI8Z5Go2XzsLCQr97VZFC9IpehO+CBoeO4eYgI35aLa7fbEj9JTtxr6nb0KP5ST08nLOz/qbetlO4Jx3g0qTXUfS/QJuR9XMjyNhDnBrUD1W9iTRfOgd768d3yT4ybtkBftULs6UJYV67pKTd9tMYCvORa30PdrJbL8y2BrtkH2OW/hc/6YXZs4CUrNSUqtTNQMURpq0QZpkuGUKYZYpfNP40EVigF2ZanpRsUcRZlOufpiJSYg4QNmIgihrj8J33EXYutpAZR9LqgYT+FEGN+SfxaFWD1N2DuLH8Bt6r91O1blXtPZeKyGOETuqLrP4anvtokPZhA6qr0zk9Zj0V39lA7X6dsNA8pCApmPApLblrNoyWyxdiowjhxow+3AltRLP131KxiiNmynQSfprC6c/W4zH5DI36BqJ/iE6BKdmDHQbiOm0vrfJs+skZtyIaTYR59ZKS9ttP41XR+M5bTUpWI0zNNcz2JlKyuwyEaWdkl2xBJzKmxGfqdVPzmbdteUYGQphlu2IIYZYtf9H6U0RAI8yvkmzQCLOkJJnfomkq6jS6GKvSSN87kZufbcW6UW+cA2uhiDpD4slT2PRYTu23X8fa1hzV/TNEzBxEbKwXlVq3wNomhbSLB0hJqYv/wu+p5FNRv9P1IVHzexF+KokKrbtg7woZwUeIvZJCzZnb8W3fCHMzOWl/LuPc1OkQ2I/KjepilhzKg9+PQsAEms2eirN+h23eMZFwipBtB5CrgKwQwjbuwrbVK3jVrYWZmT0Vu47Es7oV90/8yP2we6BKIfrwNuIeKPDuOwIXBwus3APx6zkQh/Q/uLr9MFkqUMuucX3rPuzbvo6PbzUwc8Sj5xi8qztDylWubN5KulKzeymSoB9+wKxuR+o0b46lpTXuzfpRr3Hg4/eM5vlascKkaosqzry8NNcwrUWEWaYrhhBmmeIXjT9NBDTCXJNHmP9Wuk7a02TU2gcYZJ5by53P5pAYcg+Lqk2oMnoZNbq31t5zqe2v5ukvSdeIXjWBqEPHyZI74thmOH7vfoibpwua5+fphKCG9Bhit80mdP1a0tOssAvshf+k5VQLqKLfYavGXK1GcecAQfMmE3UhGOxr4vn6POoP6Y+tzaNRoKEEVLcWsG/gB2QY/RC44LfkL1o1d+D87N5cPXrRaCm7mt3o9M0eKsd/yo+vziHdaCk3Gqy+TNumnqijf2RDzyGkGi1ni8/odfQd8Wr+kbD+ff925KlpVnMN00oIs0yXDCHMMsUvGn+aCGiE+XWSDekFRJimrkU+FmXluX5p6nUpm41KI91rbFxG76csRCRmONbSHHdRbuEoTc6mxprf65oI01IIs0yXDCHMMsUvGn+aCCz+NZSv4i1Ir+2j7ba0qK/wG3pKMt1bGlL6NwVUVPkXVUqFSbUWZp5K4rOSlZ6O3cMw3upaD1trXeQufv5dAkKY/y5v0dpTTGDP5Wg+OBxBYtsWuU/IKUREVdj0bVEWZEORm3p0n6m0YkFRZWE3rOQVWGFZ5HeCUtLfI1pUQRc1Ii3MHCtTEnBMu8ub3QJzbgd6ig+np7LrQphP5bSJTpcFgYwsBe+u+ZMTXv6kV68K5ubGv2uxgPv0Chv5SF2IS6ve/KSZN3ItSgRVUPRb1HEbE7GpNLnUtgor+eJs6MrbZ7PMVMKvXmZo17rUrVGhLD7+ok3tQ/7Vmh0A4kcQEASkEHiYksHH2y5ywdweMy8PzK11T7cxXEwNfzcmsux2jKX/8qsrv/qz/24YgRkTUd6/GeuDYV0FCVhqH6WMvTBl8rZriokxERrOcX78C2qnoDYN+Rkrl9/refvxyNyoVSQ/jCci/A6jegTQyL9yzgPzpXxeRZmSJSCEWbI8RW3lgEB6poLfLkVx5VYcybLMcjBiMcSyIqDZ2exX3Y2uzbyp6GpfVt0Q7eoJCGGKj4IgIAgIAoKAICCBgBCmBEiiiCAgCAgCgoAgIIQpPgOCgCAgCAgCgoAEAkKYEiCJIoKAICAICAKCgBCm+AwIAoKAICAICAISCAhhSoAkiggCgoAgIAgIAkKY4jMgCAgCgoAgIAhIICCEKQGSKCIICAKCgCAgCEgTpuY7c24Bmu+tEz+CgCAgCAgCgoBUAtUAd6mFn+xy0oR5H9gMiIeaPNmzKXonCAgCgsCTRuBFoPGT1qmi9UeaMItWt3iXICAICAKCgCDwnyEghPmfmUoxEEFAEBAEBIHSJCCEWZp0Rd2CgCAgCAgC/xkCQpj/makUAxEEBAFBQBAoTQJCmKVJV9QtCAgCgoAg8J8hIIT5n5lKMRBBQBAQBASB0iQghFmadEXd/0kCajVEpCm48UBGuv4LpM0kjrSsymm6V1ZtS223MH00VbYwbZqqy3BqC1OvqbL5vW74dytLM2p7OFHZ2QYzM1M1SvwQimJFJiCEWWR04o3lkYBKrWbGyTv8dSKIOFc3smytczDkXc4Mf8/+v9S/5V3EC/O+gt6b3dmC+mP4flPtFqasqTbz9q0odRdUR35cSmOMhZmDgvqlVqnJiI+jZZ2KTOzXEEsL8/J42D0xYxbCfGKmQnTkSSeQqVQz9UQkP1+9T3STZ1DZ2Wq7rFlwDWWQ/XtR/6apM3tZLOm6jdVnqr3ivl6cMeRtO5tLafExbK+o4y7pvqmVSu5eD8VLlcT7rzTC0T73JO1JP2b+a/0TwvyvzagYT6kR2B+ZyqS1fxPesQ1Ke9scURoTo6FIpbwuVa6lVW/e9vO2I7V/RRmr1LYKOhGRWkdRyhXlPVJ4mRKy4YkGajUPboTSy8+Kbs1rIbKzpXaYF1ixEGbZcBetPoUEFhy7xecRmcQ9Wy8noixsNJHfImmYaMsbRZl6T1GixuJEfSXVXn7RnCFTY3yLwtxQtlJkVhw+pkRoaj4NXzf8XMhlaXgmhDGyR30sLUVqtiyWECHMsqAu2nwqCcw9GMyKJBuS/Grmm4Y1FQEai+QKK4CCF3M16thgMq5fQZmchpmNG9b+TbHz9sBc37g5ashMIPPGP2Teu49KZYFlJV8c6jXC2lGzuUQ3Pdp2FGlkhV8k7dZNlHIzLFyq4RDQHLsKDtpyOSJSq1El3CTp/BmU5hVxa90JaxvzAqNwbTPKDDJvXyI5LARFFlg6e+BUrwVOFR1z+mum6a/sHolXzpIWn4TazAb7mg1x9/fD0soiNx2uSCct4gKJN28il4OlS3XcAprjXMFBW1cOe7WKzOhrxAdfI1OWhbl9RVzrNKdCNfeccoWJZk3NeVEj1LyfFWVGBu4PQhjRvR72NlZP5TH0tHdaCPNpn0HR/3+NwDwjwswv2iqpiKZwi7EadeR2YqZ/SFpUPBYV3FEl38fM2Q+XcVuo0sFPJ7mMGBK/ncSDfQdQyu0xt05HmWWHfbsxeL83GVsnG70w1cj2zyTy63WkxyuxdLVEkSrHtm4nvCevooJPBa2FNEJT3T1M+IJJPDh7HbNK7ai//iBuFSxzxWv0Wq+a1BNzufb5VyQ/yMKmgg3y1Axsa7ak7tRvqVanMmZmatRxf3N15njuhUaArQvm8gcorLyoOmglzw3phKXWLGoSDs7i/FdrSYxXYOtqSVaqHIc67Wk0+Us8fd31JwJq5KFr+f3Dedy/l4x1BWcUKQlYudchcMJW6reo8Zg0S0p4Ra0n+32qjAzcYkMY0U0I81876PM0JIRZVuSz21UrSXkYS2KaEqcqHrhai1RLWU9Jfu1rhPl5kg3J+gizKAtgUdNxplO2akgPJW5kKxKTa1N13nZc61dDFXuW+1NfITGqEjXWHsPZ056sM58RMWUGFn234zO+J1aWCjKPTCXsw7U4vH8Yn95NMTdTQ+JRgvt3I6vxLAI+/RAbayWKK6u5NmYKFt3nEzjlHaws1WT9vZSL736EReMOWN25QJpFQI4w8z9xUEPSb5zv35GUgIm0WrQQexs18hvr+WvkGHj+A1p+OBNbq1TurBjC+W2/4TvrNxp0a4SFMpHw5a9wcdtl6q29TmB9F8ySjnG8fxdkjWby4tzZ2Fsrybq6hiOjJ2LRdS6dpk7AxtoMZJc5NaAhkW4v037+WqrXcEURdZjjY18lzrE9L67YRNVKudenDefY1NxJTeOaqsfwdcN51wjTVQizTJcHIcwyw69GmR7LHzu/YcGSVRy+pGDqhdvMa2hfZj0SDRdMQCPMlQbCLMoGl6JGpCblrFahPLOM8CnTsB2wD69xXTA31+y2VaH8ewbB763G7Z1dVHu1FYkf1+Pu9XbU3fAttrYWukFnPCBmTjuib7Sn/tZV2FnJSV/bmqtb1fgu2kXlhjX00aKCxLUdub7VlvqbduHqboVs51zuxvvg3bcVd6f25H68Jw30EWa+wlTLSf2xG39+F0W9T/bi08pfHwEqSN7Sjd+/zaDpN7uobBfO+cldue+6gK4rRqHrrhrlrV2cGD8UZf1FdJg3jIwfXuDQ5kyaLdiNb2Nv/S5jBffXv8jRHy3puHEX1SvZk3pkMjumr8J/wklavdoKzaVAM5SkHRvBtlknaDh7F006NXoiN3RpUrIuQphlukwJYZYRfoXsPqsnvcmnP/xNjRdaEXbwH8YIYZbRbEhrViPMVSaEWWYbStQZpP3wNlFf/ECFNfep0tAl9zqr7BS3OreFHvOp9V537vZrQHq7FdSbMg5z/YVNM1UGietGc2vNMWrsCKVKtTjuvlab+3Zdqbt4M84VdbcyaMaXefFzLo/+mIpfXsWvcRVIl4G1A+aqSMJGdSEm3pNn1h+kQkEpWWUM4aOfIyzJnyYrDlDZIzeqywpfz2+DJlBp4SnqVjzHX2OHYTMjnBc6V88dU+ZNzg/vyJ3MBryw+gti3mlAsFU72i3ZRuVKNjnXK9OufMGhkbPwWnmJFk2cCV/yCsd3nqLl93cJrOOYK8aUw+zu0gvb4evpPvwV09de86SYS2JzkqkINVuYw0VKVtoBWwqlnhBhqpE/DOWf0FS8ff2wlt3jdsxDspTm2DpXxMe3Fi52uRf3S46DmqwHVzkbaUad2t5kxUYSFZuEXGWOo7sHPjU9cbCR0K4ymZ0fjuGD089w/OD7VJdwPV4Wc4UPhk7Bd+KXtFXuoGePxbx+Lk+EqVbw4MYlbqZa4FMnkMrOVpKf1lJyjERN2QSyhZlaiilZU4um4euPLNKqVBJXDiX6h3+o9nMobtWtcu/lVIRzt68PyQFTqT25Ize798Z6xHf4jRykfXqMtk61nJQd7xO6dAXuXyTgExjBja7NyQh4i3qLVmHvqDsONP+yQncRNKo/ZpNDadzDN3czjfw2oaO6EB3vybN6YRqLMDX9Nsu8wYWBbYl3bk+zLzbh5px7nCljjvHXkE4o/3eapjVP8Nu4RXivD+PZQBftVGjHrYwjbGIrLkQ40GrpN4T/rx1JfoNot/Qr3Bx1UbNW7rd+5ujwPphNuM5L3V25NLM/507E8eKey9SsrDuetP/kwRzrXZcH7b9k8JQxue38i/fZmpKuRphOsSGYFKYyDfZ9D1Uawfkr4GKnzyKkQvsh4HYHjl2BtEywswNbd2gYAC7OsH8zNOkNvi5wdCc4t4Um7pAph3PzIHwg9PcDGzuQ3YItx8DKEjJTQWUHduYgU8OgN6GCOTy8C+H3QG0LtTVtaBZHFdy6DE61oaK9fjeWGmKCIMER6tQgZ8dX3uUnNQ5CY6B+IFjpT08VGXAzBBIyIKAxOOuunZfGzxMjzIcH3sB94EmGDhrIgzvB2Dpakxx5ldN3LHhj8nw+Gd8LV801iDw/qqwYdq5ZT2iKKl8+dVv156W2tXn87Wpit7anyjsyPhjUjLPXI3FytuRh6HmuJldl7CefMXOQJm3zeLuPNKZMZN3/+jPmRCOCgxbjLeG+YkWWjLjYVCp6VOb6r4vpbkyYqgQ29G7CqHMOrN5xjKGtKglhlsZRILFOjTC/SLIhW5hFScnmLPglvRArkni4/DWit4ThfeAKLpUsc0WmiibmlWrEeb5H3YktCeszFPtx6/F9q3/O49bM1ArS9szkxsKFuM5/gH+Tm1zt2g5FozEELlqKnWYh1PdZHr6foFE9UAy7QtNB9bUC07KQ3yZEL8xG+aRkc4Qvu8A/A14kpVJPWnz5Hc4Ouh21Ohf+zZkhLZENPEmL2oc5OWEddbfdoJ5PbkSIKonb05rzd5AVLeetIOztl8gIHE6HpStw1vdV06/MyF85NrwLmW9doM+Aipz7oB+X/lTS/cBpvNxyxWqmvMPv/WoQ0XgZb8x6L2dMUuY4m0uRT3b04za1W1ojTEdTwsx6CGvnwnVvGF4Fui6G1rW0aWxun4OP/oA2qbB9N2w7Ay08wK83WJ8Fs1fh3vfQYRT4m8PiL6FjY4iQQ8g5uL4DHrSCll7w+jRwOgr9dsKIVnBmB6S0g47OsGknrD4E9dSw8XOIdYSUaxDdBr4cDCln4Y1PoMMbMK6vTnypITBqKGS0hc1zwcbImqt8CN98AZvOw65dUElTRg2/fwH7EsDPC3oOhqoSFmCJx3zeYk+IMCHl2HCcO67Fof4gThz5mmfdbUFxn5XtvJmV1pdj+9bSrIbjY8NUpJylt28zDsTlT6DXhO1sXNwPRyP7aZL2dMa19xGcm7/L2SMLqWlrDvIoZrbwY43Le4T8upDK2dd58muiCMI0rOrKwUX5CDODq7s38MsdS7r3H0T96vZCmEX8oJfE2+ZLEGZRU7LFFqkymYfLX+fe5ht4/3IN1yo6YWr7o7xL9ABP4mtNoN7E1oT0fgO7sevwHzrgEWHKdk/nxqLFuC2Oxb/RLa52eQFFw/8RsGgZ9va5wlTc3MfVUT1Rjr5GswEBue3ohXkv3hONMN31KdlsoT4ilLRLnBnQiWT3brT8cj3Ojrm3oCge/Mnp19qQNuR3Wvgd4cS7X1N3czAB/k65EaEqkVtTm3P6hjWtF64idGx30gPeosPSlbjY58o3K+IgR0d0I2vkJfr2cefcB/258GcGPX75B0/3XEZmighO9qlFZPMVvDHznXyFWex5MjhRkvJZMWxPI0wHU8KUhcPmEAiQwfFDsMsJFnQDcxX8Mgs67oAeHvDtaEjsAY0Ow55W0ORvSBgLqq06YWYdgq/PQvgp+PgIPOcAR96AKxPhvYZgZQ1Re6DLcmjjB6GnIL0BPGMLv1+GnacgwAaUSjC3gKQ/IXA+hO2EVROg/lS4sQX6jgFvO1gzG1TV4be7sGGecWFqHuKccQ9GfAjLv9MJU/UQhvSHj/eBnx2l/USHJ0eYx0fg3HErgz9dx7pp/bDWRnUqgr9oSt2PHNlzfDs9G1QuiXXvkTqS9nbBtc9FJn7/M0sHt8g+x2X/hw3osS6QK9c2Ud/l8TOWrNRYLp+/QpJcDapUDn42hxUXfVm/fjRVNBkBcytq1H4G32qu+WYXsjuSrzBLfLSiwuIQ0AjzyyQbZBJTsqW5uD5WtyqNpK9HEfndr1TbGkllH901QW30kxlEeI/6pLWaRb2JnbnZsx3qV9YQMO4tg5RsFok/TiB4xfdUW3+fmn5RhPR+lqQar1B/8bc4OufKJfP6D1waOQr7T0N4tp3XIynZG6O6+svzgwAADklJREFUoBFmE31KNif6zPu4P3k4l19ryV3L5rRYuYOKFXIvN8jv7uW3V/tj+/4ZGlf7gxPjplNlVTgtmlTQjkerbsU9rox9nqBYD9qu/Jrbo5txr2ofOi5dR0WX3NtZ0kN+5OCwYTh9fJ0ubZ25+vEATh26SccdIdT21F3r1P7LOM++7s1I7/MNr7w9VMetkHIrboRpqj2NMO1MCVOthLDjMGMF9H0NTp2ELH32zcIOXhkLjWTQ5x1w9wbNHUTmztBAAZYTcoXpeAUmzYPqY2BOM9i4AYLOg8wL/J6F6aMg/giM2gld6sHZnyClLbR3hqOnYPEm8NfdnoRKDgeXwlZvmOEBG8JgzjA4+T1cqw7dbeD7CzC2Jrz9N2ycB1nBMHMppGiEawv9hkPXJtogiqHTYdm3OmGmnYdnBkGXjnAnAoZ/Dr38pH/TQCEXhCdLmN1+4YMvd/PJ0OZY6I/2O5tfoMZYOTuO76JfQ49CDs90ca0wB9/jq59/4n8d/HLecGzJc3Rc7MHZGzto4qafeIPq7l/bw2svDeVcklqbFshITSVdbo6zq4Ou71YVGP3p98wZ0Son1Z5fb4QwTc/Tk1BCI8zVBsI0tkDmXWhN/S4lypC0EKsVZOyZRtiC5bh8dAvvrjVyrmES/QNXe4/C/rXV+I7pTvRwLx5UmUXjhdOxMNddw0SRSszKftzankLggT9wd0ohdpIPwXebUn/JdtxrOOVIRHZ8PGc/OIz/5r/xquX2SISpEebdeE+e00eYhhJ4hIU6hehZjTlzqQJNlxzCq7ZrjnjTz07l1/HbCVhzAh+nIP4Y34uMPv/w0siGOZGfOvFvjg9/mUT7PnRes4CEWbX54/YzdFi8C6+aur5qxJrw2zvsmXqQZpv+ItDHgZi1r7N7zT6aLgunWeuqOX1XRX7O9wNmU2vyZjoM6FLgph9Tc2pKtqZez2++NcK0NSXMuLMwYTbcqQbLRsLtKG3WkuTL8FUkrHwfGnpDdCRs2gp9x4NTAuxfAqlv5wrT5hy89zn41YUh70DoLxAWrzsMXRvC2K7w+1Y4cAnkCrjxG6Q1gsbOYGYNz7aCAS+DswXc+gOW7IHps8H2IWTYgmdFyIiDa3fh5+XQcRY0DIIRf+iEmRkEEz+FZI0w7WDwWOjZ/HFhpv4JzebAkT2QsAZmp8OP00DCPpKirClPljC7H2DmV3uY/UaTXGFuaUuNMVn5ClOtViBLTkGe/yVMrG0dsLe1Nhqta4X52n2+/XkXw9v55DA8vrQpHRZVzVeYj8AurZRsUWZUvKfUCCzQCzPNr2bOgpzdmKkNG1LEWNSFNLtuddROQoa9AYEf4j9/iu5JO6o0Utf25/r3l/Cc/RvVO/iRsrU711cnUWfrr7hX0aX5VQ8vE/Z2Gx56rKDFkmHahwEoz43mr3cO4DlrGz6dm+kELI/lzuQ6hCW8SquvVuDgoMu+6F67zfVRXYiK96Tp+oNUrJB7HdUYH+WlyewfsxHviT/SsF97fR3xREyvw9k7Xem86mvc7GI4P6s7Ny43o/uu76jopIlEVaScXMSh2bNxevUkXf7XAtWFcWx5ey+BM7bSpFsLtFcn5bEETa3L33EDGLj6c1ydbFDcXM0Pg8dT6eU1dJ40DHvN9TNlMpGftWbPURs6LdhL/UbVcqNmgwfrm74XVvdpMBSeqeuSUj8XmnrkUoSp2VCTegH6zgXfLDgUDA62IE+A8DQYOgWmNYUB70LEPXCpCs27QCszMB8NGVt0KVnFQdgRAz36gJ8CZnwD3dtCZhSsi4Kf58D5X3USvfEnrN0EMmvoPR46+oNTRejWDczuwLvjYchKaO/zeOSX+jv49NVJXZ0FMhfYtAP6NjN+HMvzRJiZwdDtPdi0G2RrYVoCbJ4uhJlfhKlIvcLIdr04Fpu/MbuMXsOy97viYOwaphBmqQnmv1axRphfJdmgEWZRNoNIWRzzi1olCVmVTOr6YYT/8AcOnUfj1qAWiqhTxO7cjkXT9/GfMRk7BwuUUSe4NW0wCeoX8HypA9bWMmSn1hEb4oLPoq141NMJw0wRQ8QHLxIZVgHPPq9i76wm48oOIn8NxXPKRmq/9ALmymSSzh0h9X4SZso47m74jESZK7WGTcLRwQIr99pUbtYKa+tHH5Onu7Z6n7DZ3Qi6ZE2tvq/j4maBLGg3wXvOUvPdH2jSvytWFnISjy/mxIezsGoxDr/WDbHMvMPtvWtJtOlC+2VfUsXVUtvXSzM6cznYhXp9B2k3fKZe3cnVQzeoO2kjLXu100XTygQiVvXh2C9RePcYQXWfyqTfOsrFbT9Tqc8yOo8fjpNt7jXQfCNkid9QU9yTIMP2FRkZWJuKMDUNpl+AwWthw1SYPg/eWQLOR6DveTg5B1TJcPc2LFkMAZ2ggiM8Uw8qVofNy3TCtDoD286BQg3N2sGeX+DljpB5B9aEw555EHMZftoJt+TgEg1Ob0LqblB7Q5eu8FwlGN0LQv3h5Ya6a5mvjct/U07SL7kRprFNP9qToDzCRA7fTITgCpBwEV5cCK/ULScp2aJEmMo0IoJvkqrMf3l2qlgDr6ouOVGrYUkRYf7XtFZ649EIc42BMAsjt+JEHTkRnMmdtWrMshJIPfIFd9euJvVeAuaufrgPnIFnvz7YONnoojiVHEXESe59PYuYU+dRKG2xe7YPNUdNp1IDX8wtsuWmRhl7hZhNc4nYvYdMuSU2NZ/He8THeLVqiJWNJaTeIGj6AO78E6K9NKFSyEFthpmllTajY99gEM2XfIerwW0juSzUqB6GELl1Hte2bSM9ywJbr5b4D/uE2i88h62tJkJVg0JG6qUdXFi9gKgbt1GZu+DR7V0avzmaytXc9FGdGkXsNUI3z+XSrp+Qya2w925DgxGfENi6Ibaavmr5aTaOxBKxZzFnflhHbHwaNpXrU2/IbJp274Sjg3WB6VgpJz2m5svU6/l9rjQpWavCCHPLcrhzAWTpMHcCJP0P9o+E8E0weTdUqQbPNIGGDSHQAV4bDA9rwLo1UDkZ7iuggjtYxsCkVdChJWTeg80PYO8c+Ok7UAZA92ZwZC48GA3DnOD3PXAkEeaMgbsRkKXQH5Rm4BsA+g1kjx2pymSISgOvKvnfVqKWQ9R98KiO/pmIkJEEkfcAB6jllXu7SSksBU99Sra4TEpGmCnsmTuF+efqsmvHe3hIyJ9npUYTHvlQewIX8sd3jB6zjl7bj/BeXVvtNYAqvr5UtMrgn3XL2BJhxSvDx9K0pm5bvfgpGwLZwswoZEo2vwWyJNJ1RZG2pGuiesSmItvs142lK6WeJJRkFJZXaCXF3rAew/8XZ9xSroEbjkcTYVpKEaZGKglp4OaSe49jejpY26PLVefzo0gHhQXYWD8aoamUkKkAOxvQbCpKk+vSvDk/mscypoDKHhxK7x7IsjnqH21VCLMkUrJFmMnww5Pp+Op3JKhAIU8nVZaJlaMLDpqLR+YezPrzAhNqp+nvw3Rk9c6jDG0p7sMsAuoSe8viw2F8FW9Bur/mvraifcmzKTkUtV6pkU9xU4yG75cqxPwEbciipMQmpS0p6XQpPAsrvOKeqCgy0rGND+OtrvWwtf5vi6nEDtoSruiJEaZankaSTI6NvQO2VpY5G3RUWSkkp4O9owPWFkYuQhYTiFqeSpJMjZ2jPTaWuadf8owUZJlmODo5mH5wQRH6oJSnkSrL0l7rfvzHDFsnZ2zN1WQlXWVSz2G0XHmEQQ1zdxIWoUnxlmIS2Hr2LrNPRZPc+rl803amhFfc16UuuoWJPAsT6RreU1lc+f+bwiytyLMwnKWeYOT3GVGnp2KTGM7w7vVzHmlYzI+0eHshCTwxwixkv8tHcbWKh2eW0Ou9yyzbt56m7uKssiwnPjU9i6HLT3D+2cZkVdZ8XZT+sXJGNoCUtRjzRoKm5GZKxPneT6mfkIKkK4VFSfTXVDumxljYPphqr7ivP9JfeQaR1y7Rv01NmtSpUpaHQbluWwjzSZ5+tZKE4D8597AabVr4oXkIkfgpWwJh0cnM33edIMcKmFWvjLnmK0H0P3kX5Lx/N4xysgWWV2T51VXQe/NGasbKGouw8pNo3j4YyjBvvw1/N/x45pf2LIhJ9nuMjcfUmIzxlMK/IC5S+yG1XN7xSeGv2X6VlpzI7fBIujXxoHNTbyxLIdNWtkfV09O6EObTM1eip08IgWRZFnv+CONCWCwpmgdYix9BoJQIaL5Nxq+6K690qINXZedSakVUK5WAEKZUUqKcICAICAKCQLkmIIRZrqdfDF4QEAQEAUFAKgEhTKmkRDlBQBAQBASBck1ACLNcT78YvCAgCAgCgoBUAkKYUkmJcoKAICAICALlmoAQZrmefjF4QUAQEAQEAakEhDClkhLlBAFBQBAQBMo1ASHMcj39YvCCgCAgCAgCUgkIYUolJcoJAoKAICAIlGsCQpjlevrF4AUBQUAQEASkEhDClEpKlBMEBAFBQBAo1wSEMMv19IvBCwKCgCAgCEglIIQplZQoJwgIAoKAIFCuCQhhluvpF4MXBAQBQUAQkEpACFMqKVFOEBAEBAFBoFwTEMIs19MvBi8ICAKCgCAglYAQplRSopwgIAgIAoJAuSYghFmup18MXhAQBAQBQUAqASFMqaREOUFAEBAEBIFyTUAIs1xPvxi8ICAICAKCgFQCQphSSYlygoAgIAgIAuWagBBmuZ5+MXhBQBAQBAQBqQSEMKWSEuUEAUFAEBAEyjUBIcxyPf1i8IKAICAICAJSCQhhSiUlygkCgoAgIAiUawJCmOV6+sXgBQFBQBAQBKQSEMKUSkqUEwQEAUFAECjXBIQwy/X0i8ELAoKAICAISCUghCmVlCgnCAgCgoAgUK4J/B8FJwWV1Q65NAAAAABJRU5ErkJggg==;" vertex="1" parent="1">
          <mxGeometry x="900" y="670" width="520" height="587.83" as="geometry" />
        </mxCell>
        <mxCell id="046RRQSVppgy1fABNuTt-5" value="&lt;pre style=&quot;background-color: rgb(255, 255, 255); color: rgb(8, 8, 8); font-family: &amp;quot;jetbrains mono&amp;quot;, monospace; font-size: 18px;&quot;&gt;&lt;pre style=&quot;font-size: 18px; font-family: &amp;quot;jetbrains mono&amp;quot;, monospace;&quot;&gt;&lt;i style=&quot;color: rgb(140, 140, 140); font-size: 18px;&quot;&gt;// HashMap初始化方法&lt;/i&gt;&lt;/pre&gt;&lt;/pre&gt;&lt;pre style=&quot;background-color: rgb(255, 255, 255); color: rgb(8, 8, 8); font-family: &amp;quot;jetbrains mono&amp;quot;, monospace; font-size: 18px;&quot;&gt;&lt;span style=&quot;color: rgb(0, 51, 179); font-size: 18px;&quot;&gt;public &lt;/span&gt;&lt;span style=&quot;color: rgb(0, 98, 122); font-size: 18px;&quot;&gt;HashMap&lt;/span&gt;(&lt;span style=&quot;color: rgb(0, 51, 179); font-size: 18px;&quot;&gt;int &lt;/span&gt;initialCapacity, &lt;span style=&quot;color: rgb(0, 51, 179); font-size: 18px;&quot;&gt;float &lt;/span&gt;loadFactor) {&lt;br style=&quot;font-size: 18px;&quot;&gt;    &lt;span style=&quot;color: rgb(0, 51, 179); font-size: 18px;&quot;&gt;if &lt;/span&gt;(initialCapacity &amp;lt; &lt;span style=&quot;color: rgb(23, 80, 235); font-size: 18px;&quot;&gt;0&lt;/span&gt;)&lt;br style=&quot;font-size: 18px;&quot;&gt;        &lt;span style=&quot;color: rgb(0, 51, 179); font-size: 18px;&quot;&gt;throw new &lt;/span&gt;IllegalArgumentException(&lt;span style=&quot;color: rgb(6, 125, 23); font-size: 18px;&quot;&gt;&quot;Illegal initial capacity: &quot; &lt;/span&gt;+&lt;br style=&quot;font-size: 18px;&quot;&gt;                                           initialCapacity);&lt;br style=&quot;font-size: 18px;&quot;&gt;    &lt;span style=&quot;color: rgb(0, 51, 179); font-size: 18px;&quot;&gt;if &lt;/span&gt;(initialCapacity &amp;gt; &lt;span style=&quot;color: rgb(135, 16, 148); font-style: italic; font-size: 18px;&quot;&gt;MAXIMUM_CAPACITY&lt;/span&gt;)&lt;br style=&quot;font-size: 18px;&quot;&gt;        initialCapacity = &lt;span style=&quot;color: rgb(135, 16, 148); font-style: italic; font-size: 18px;&quot;&gt;MAXIMUM_CAPACITY&lt;/span&gt;;&lt;br style=&quot;font-size: 18px;&quot;&gt;    &lt;span style=&quot;color: rgb(0, 51, 179); font-size: 18px;&quot;&gt;if &lt;/span&gt;(loadFactor &amp;lt;= &lt;span style=&quot;color: rgb(23, 80, 235); font-size: 18px;&quot;&gt;0 &lt;/span&gt;|| &lt;span style=&quot;color: rgb(0, 0, 0); font-size: 18px;&quot;&gt;Float&lt;/span&gt;.&lt;span style=&quot;font-style: italic; font-size: 18px;&quot;&gt;isNaN&lt;/span&gt;(loadFactor))&lt;br style=&quot;font-size: 18px;&quot;&gt;        &lt;span style=&quot;color: rgb(0, 51, 179); font-size: 18px;&quot;&gt;throw new &lt;/span&gt;IllegalArgumentException(&lt;span style=&quot;color: rgb(6, 125, 23); font-size: 18px;&quot;&gt;&quot;Illegal load factor: &quot; &lt;/span&gt;+&lt;br style=&quot;font-size: 18px;&quot;&gt;                                           loadFactor);&lt;br style=&quot;font-size: 18px;&quot;&gt;    &lt;span style=&quot;color: rgb(0, 51, 179); font-size: 18px;&quot;&gt;this&lt;/span&gt;.&lt;span style=&quot;color: rgb(135, 16, 148); font-size: 18px;&quot;&gt;loadFactor &lt;/span&gt;= loadFactor;&lt;/pre&gt;&lt;pre style=&quot;background-color: rgb(255, 255, 255); color: rgb(8, 8, 8); font-family: &amp;quot;jetbrains mono&amp;quot;, monospace; font-size: 18px;&quot;&gt;&lt;pre style=&quot;font-size: 18px; font-family: &amp;quot;jetbrains mono&amp;quot;, monospace;&quot;&gt;&lt;i style=&quot;color: rgb(140, 140, 140); font-size: 18px;&quot;&gt;    // tableSizeFor得到的容量却被赋值给了threshold，感觉this.threshold = tableSizeFor(initialCaptacity) * this.loadFactory;&lt;/i&gt;&lt;/pre&gt;&lt;pre style=&quot;font-size: 18px; font-family: &amp;quot;jetbrains mono&amp;quot;, monospace;&quot;&gt;&lt;i style=&quot;color: rgb(140, 140, 140); font-size: 18px;&quot;&gt;    才对，但是在HashMap中的构造方法中并没有对table进行初始化，table的初始化被推迟到了put方法中，在put方法中会对threshold进行重新计算&lt;/i&gt;&lt;/pre&gt;    &lt;span style=&quot;color: rgb(0, 51, 179); font-size: 18px;&quot;&gt;this&lt;/span&gt;.&lt;span style=&quot;color: rgb(135, 16, 148); font-size: 18px;&quot;&gt;threshold &lt;/span&gt;= &lt;span style=&quot;font-style: italic; font-size: 18px;&quot;&gt;tableSizeFor&lt;/span&gt;(initialCapacity);&lt;br style=&quot;font-size: 18px;&quot;&gt;}&lt;/pre&gt;" style="text;html=1;align=left;verticalAlign=middle;resizable=0;points=[];autosize=1;strokeColor=none;fillColor=none;fontSize=18;" vertex="1" parent="1">
          <mxGeometry y="1360" width="1200" height="440" as="geometry" />
        </mxCell>
        <mxCell id="046RRQSVppgy1fABNuTt-6" value="&lt;pre style=&quot;background-color: rgb(255, 255, 255); color: rgb(8, 8, 8); font-family: &amp;quot;jetbrains mono&amp;quot;, monospace; font-size: 18px;&quot;&gt;&lt;span style=&quot;color: rgb(0, 51, 179); font-size: 18px;&quot;&gt;final &lt;/span&gt;&lt;span style=&quot;color: rgb(0, 126, 138); font-size: 18px;&quot;&gt;V &lt;/span&gt;&lt;span style=&quot;color: rgb(0, 98, 122); font-size: 18px;&quot;&gt;putVal&lt;/span&gt;(&lt;span style=&quot;color: rgb(0, 51, 179); font-size: 18px;&quot;&gt;int &lt;/span&gt;hash, &lt;span style=&quot;color: rgb(0, 126, 138); font-size: 18px;&quot;&gt;K &lt;/span&gt;key, &lt;span style=&quot;color: rgb(0, 126, 138); font-size: 18px;&quot;&gt;V &lt;/span&gt;value, &lt;span style=&quot;color: rgb(0, 51, 179); font-size: 18px;&quot;&gt;boolean &lt;/span&gt;onlyIfAbsent,&lt;br style=&quot;font-size: 18px;&quot;&gt;               &lt;span style=&quot;color: rgb(0, 51, 179); font-size: 18px;&quot;&gt;boolean &lt;/span&gt;evict) {&lt;br style=&quot;font-size: 18px;&quot;&gt;    &lt;span style=&quot;color: rgb(0, 0, 0); font-size: 18px;&quot;&gt;Node&lt;/span&gt;&amp;lt;&lt;span style=&quot;color: rgb(0, 126, 138); font-size: 18px;&quot;&gt;K&lt;/span&gt;,&lt;span style=&quot;color: rgb(0, 126, 138); font-size: 18px;&quot;&gt;V&lt;/span&gt;&amp;gt;[] tab; &lt;span style=&quot;color: rgb(0, 0, 0); font-size: 18px;&quot;&gt;Node&lt;/span&gt;&amp;lt;&lt;span style=&quot;color: rgb(0, 126, 138); font-size: 18px;&quot;&gt;K&lt;/span&gt;,&lt;span style=&quot;color: rgb(0, 126, 138); font-size: 18px;&quot;&gt;V&lt;/span&gt;&amp;gt; p; &lt;span style=&quot;color: rgb(0, 51, 179); font-size: 18px;&quot;&gt;int &lt;/span&gt;n, &lt;span style=&quot;color: rgb(0, 0, 0); font-size: 18px;&quot;&gt;i&lt;/span&gt;;&lt;/pre&gt;&lt;pre style=&quot;background-color: rgb(255, 255, 255); color: rgb(8, 8, 8); font-family: &amp;quot;jetbrains mono&amp;quot;, monospace; font-size: 18px;&quot;&gt;&lt;pre style=&quot;font-size: 18px; font-family: &amp;quot;jetbrains mono&amp;quot;, monospace;&quot;&gt;&lt;i style=&quot;color: rgb(140, 140, 140); font-size: 18px;&quot;&gt;    // 将当前的table赋值给tab，table即为HashMap的数组，如果tab为空，则调用resize初始化HashMap&lt;/i&gt;&lt;/pre&gt;    &lt;span style=&quot;color: rgb(0, 51, 179); font-size: 18px;&quot;&gt;if &lt;/span&gt;((tab = &lt;span style=&quot;color: rgb(135, 16, 148); font-size: 18px;&quot;&gt;table&lt;/span&gt;) == &lt;span style=&quot;color: rgb(0, 51, 179); font-size: 18px;&quot;&gt;null &lt;/span&gt;|| (n = tab.&lt;span style=&quot;color: rgb(135, 16, 148); font-size: 18px;&quot;&gt;length&lt;/span&gt;) == &lt;span style=&quot;color: rgb(23, 80, 235); font-size: 18px;&quot;&gt;0&lt;/span&gt;)&lt;br style=&quot;font-size: 18px;&quot;&gt;        n = (tab = resize()).&lt;span style=&quot;color: rgb(135, 16, 148); font-size: 18px;&quot;&gt;length&lt;/span&gt;;&lt;/pre&gt;&lt;pre style=&quot;background-color: rgb(255, 255, 255); color: rgb(8, 8, 8); font-family: &amp;quot;jetbrains mono&amp;quot;, monospace; font-size: 18px;&quot;&gt;&lt;pre style=&quot;font-size: 18px; font-family: &amp;quot;jetbrains mono&amp;quot;, monospace;&quot;&gt;&lt;i style=&quot;color: rgb(140, 140, 140); font-size: 18px;&quot;&gt;    // 计算key的位置，如果tab[i]的值为null就把key设置到tab[i]上&lt;/i&gt;&lt;/pre&gt;    &lt;span style=&quot;color: rgb(0, 51, 179); font-size: 18px;&quot;&gt;if &lt;/span&gt;((p = tab[&lt;span style=&quot;color: rgb(0, 0, 0); font-size: 18px;&quot;&gt;i &lt;/span&gt;= (n - &lt;span style=&quot;color: rgb(23, 80, 235); font-size: 18px;&quot;&gt;1&lt;/span&gt;) &amp;amp; hash]) == &lt;span style=&quot;color: rgb(0, 51, 179); font-size: 18px;&quot;&gt;null&lt;/span&gt;)&lt;br style=&quot;font-size: 18px;&quot;&gt;        tab[&lt;span style=&quot;color: rgb(0, 0, 0); font-size: 18px;&quot;&gt;i&lt;/span&gt;] = newNode(hash, key, value, &lt;span style=&quot;color: rgb(0, 51, 179); font-size: 18px;&quot;&gt;null&lt;/span&gt;);&lt;br style=&quot;font-size: 18px;&quot;&gt;    &lt;span style=&quot;color: rgb(0, 51, 179); font-size: 18px;&quot;&gt;else &lt;/span&gt;{&lt;i style=&quot;font-size: 18px; color: rgb(140, 140, 140);&quot;&gt;// 如果tab[i]的值不是null&lt;/i&gt;&lt;br style=&quot;font-size: 18px;&quot;&gt;        &lt;span style=&quot;color: rgb(0, 0, 0); font-size: 18px;&quot;&gt;Node&lt;/span&gt;&amp;lt;&lt;span style=&quot;color: rgb(0, 126, 138); font-size: 18px;&quot;&gt;K&lt;/span&gt;,&lt;span style=&quot;color: rgb(0, 126, 138); font-size: 18px;&quot;&gt;V&lt;/span&gt;&amp;gt; e; &lt;span style=&quot;color: rgb(0, 126, 138); font-size: 18px;&quot;&gt;K &lt;/span&gt;k;&lt;/pre&gt;&lt;pre style=&quot;background-color: rgb(255, 255, 255); color: rgb(8, 8, 8); font-family: &amp;quot;jetbrains mono&amp;quot;, monospace; font-size: 18px;&quot;&gt;        &lt;i style=&quot;font-size: 18px; color: rgb(140, 140, 140);&quot;&gt;// 如果当前tab[i]的key等于put的key，就把当前Node赋值给e，后面做value替换&lt;/i&gt;&lt;br style=&quot;font-size: 18px;&quot;&gt;        &lt;span style=&quot;color: rgb(0, 51, 179); font-size: 18px;&quot;&gt;if &lt;/span&gt;(p.&lt;span style=&quot;color: rgb(135, 16, 148); font-size: 18px;&quot;&gt;hash &lt;/span&gt;== hash &amp;amp;&amp;amp;&lt;br style=&quot;font-size: 18px;&quot;&gt;            ((k = p.&lt;span style=&quot;color: rgb(135, 16, 148); font-size: 18px;&quot;&gt;key&lt;/span&gt;) == key || (key != &lt;span style=&quot;color: rgb(0, 51, 179); font-size: 18px;&quot;&gt;null &lt;/span&gt;&amp;amp;&amp;amp; key.equals(k))))&lt;br style=&quot;font-size: 18px;&quot;&gt;            e = p;&lt;/pre&gt;&lt;pre style=&quot;background-color: rgb(255, 255, 255); color: rgb(8, 8, 8); font-family: &amp;quot;jetbrains mono&amp;quot;, monospace; font-size: 18px;&quot;&gt;        &lt;i style=&quot;font-size: 18px; color: rgb(140, 140, 140);&quot;&gt;// 如果链表已经红黑树化，调用putTreeVal方法找到对应的Node&lt;/i&gt;&lt;br style=&quot;font-size: 18px;&quot;&gt;        &lt;span style=&quot;color: rgb(0, 51, 179); font-size: 18px;&quot;&gt;else if &lt;/span&gt;(p &lt;span style=&quot;color: rgb(0, 51, 179); font-size: 18px;&quot;&gt;instanceof &lt;/span&gt;&lt;span style=&quot;color: rgb(0, 0, 0); font-size: 18px;&quot;&gt;TreeNode&lt;/span&gt;)&lt;br style=&quot;font-size: 18px;&quot;&gt;            e = ((&lt;span style=&quot;color: rgb(0, 0, 0); font-size: 18px;&quot;&gt;TreeNode&lt;/span&gt;&amp;lt;&lt;span style=&quot;color: rgb(0, 126, 138); font-size: 18px;&quot;&gt;K&lt;/span&gt;,&lt;span style=&quot;color: rgb(0, 126, 138); font-size: 18px;&quot;&gt;V&lt;/span&gt;&amp;gt;)p).putTreeVal(&lt;span style=&quot;color: rgb(0, 51, 179); font-size: 18px;&quot;&gt;this&lt;/span&gt;, tab, hash, key, value);&lt;/pre&gt;&lt;pre style=&quot;background-color: rgb(255, 255, 255); color: rgb(8, 8, 8); font-family: &amp;quot;jetbrains mono&amp;quot;, monospace; font-size: 18px;&quot;&gt;        &lt;i style=&quot;font-size: 18px; color: rgb(140, 140, 140);&quot;&gt;// 遍历链表查询对应的Node&lt;/i&gt;&lt;br style=&quot;font-size: 18px;&quot;&gt;        &lt;span style=&quot;color: rgb(0, 51, 179); font-size: 18px;&quot;&gt;else &lt;/span&gt;{&lt;br style=&quot;font-size: 18px;&quot;&gt;            &lt;span style=&quot;color: rgb(0, 51, 179); font-size: 18px;&quot;&gt;for &lt;/span&gt;(&lt;span style=&quot;color: rgb(0, 51, 179); font-size: 18px;&quot;&gt;int &lt;/span&gt;binCount = &lt;span style=&quot;color: rgb(23, 80, 235); font-size: 18px;&quot;&gt;0&lt;/span&gt;; ; ++binCount) {&lt;/pre&gt;&lt;pre style=&quot;background-color: rgb(255, 255, 255); color: rgb(8, 8, 8); font-family: &amp;quot;jetbrains mono&amp;quot;, monospace; font-size: 18px;&quot;&gt;                &lt;i style=&quot;font-size: 18px; color: rgb(140, 140, 140);&quot;&gt;// 如果链表的next为空，就新建一个Node节点，把put的值放入新建的节点中，&lt;/i&gt;&lt;/pre&gt;&lt;pre style=&quot;background-color: rgb(255, 255, 255); font-family: &amp;quot;jetbrains mono&amp;quot;, monospace; font-size: 18px;&quot;&gt;&lt;font color=&quot;#8c8c8c&quot; style=&quot;font-size: 18px;&quot;&gt;&lt;i style=&quot;font-size: 18px;&quot;&gt;                   再判断链表的长度是否达到红黑树化的阈值，如果达到阈值就进行红黑树化&lt;br style=&quot;font-size: 18px;&quot;&gt;&lt;/i&gt;&lt;/font&gt;&lt;font color=&quot;#080808&quot; style=&quot;font-size: 18px;&quot;&gt;                &lt;/font&gt;&lt;span style=&quot;color: rgb(0, 51, 179); font-size: 18px;&quot;&gt;if &lt;/span&gt;&lt;font color=&quot;#080808&quot; style=&quot;font-size: 18px;&quot;&gt;((e = p.&lt;/font&gt;&lt;span style=&quot;color: rgb(135, 16, 148); font-size: 18px;&quot;&gt;next&lt;/span&gt;&lt;font color=&quot;#080808&quot; style=&quot;font-size: 18px;&quot;&gt;) == &lt;/font&gt;&lt;span style=&quot;color: rgb(0, 51, 179); font-size: 18px;&quot;&gt;null&lt;/span&gt;&lt;font color=&quot;#080808&quot; style=&quot;font-size: 18px;&quot;&gt;) {&lt;br style=&quot;font-size: 18px;&quot;&gt;                    p.&lt;/font&gt;&lt;span style=&quot;color: rgb(135, 16, 148); font-size: 18px;&quot;&gt;next &lt;/span&gt;&lt;font color=&quot;#080808&quot; style=&quot;font-size: 18px;&quot;&gt;= newNode(hash, key, value, &lt;/font&gt;&lt;span style=&quot;color: rgb(0, 51, 179); font-size: 18px;&quot;&gt;null&lt;/span&gt;&lt;font color=&quot;#080808&quot; style=&quot;font-size: 18px;&quot;&gt;);&lt;br style=&quot;font-size: 18px;&quot;&gt;                    &lt;/font&gt;&lt;span style=&quot;color: rgb(0, 51, 179); font-size: 18px;&quot;&gt;if &lt;/span&gt;&lt;font color=&quot;#080808&quot; style=&quot;font-size: 18px;&quot;&gt;(binCount &amp;gt;= &lt;/font&gt;&lt;span style=&quot;color: rgb(135, 16, 148); font-style: italic; font-size: 18px;&quot;&gt;TREEIFY_THRESHOLD &lt;/span&gt;&lt;font color=&quot;#080808&quot; style=&quot;font-size: 18px;&quot;&gt;- &lt;/font&gt;&lt;span style=&quot;color: rgb(23, 80, 235); font-size: 18px;&quot;&gt;1&lt;/span&gt;&lt;font color=&quot;#080808&quot; style=&quot;font-size: 18px;&quot;&gt;) &lt;/font&gt;&lt;span style=&quot;color: rgb(140, 140, 140); font-style: italic; font-size: 18px;&quot;&gt;// -1 for 1st&lt;br style=&quot;font-size: 18px;&quot;&gt;&lt;/span&gt;&lt;span style=&quot;color: rgb(140, 140, 140); font-style: italic; font-size: 18px;&quot;&gt;                        &lt;/span&gt;&lt;font color=&quot;#080808&quot; style=&quot;font-size: 18px;&quot;&gt;treeifyBin(tab, hash);&lt;br style=&quot;font-size: 18px;&quot;&gt;                    &lt;/font&gt;&lt;span style=&quot;color: rgb(0, 51, 179); font-size: 18px;&quot;&gt;break&lt;/span&gt;&lt;font color=&quot;#080808&quot; style=&quot;font-size: 18px;&quot;&gt;;&lt;br style=&quot;font-size: 18px;&quot;&gt;                }&lt;/font&gt;&lt;/pre&gt;&lt;pre style=&quot;background-color: rgb(255, 255, 255); font-family: &amp;quot;jetbrains mono&amp;quot;, monospace; font-size: 18px;&quot;&gt;&lt;font color=&quot;#080808&quot; style=&quot;font-size: 18px;&quot;&gt;                &lt;/font&gt;&lt;i style=&quot;font-size: 18px; color: rgb(140, 140, 140);&quot;&gt;// 如果找打对应的Node，break结束循环返回Node&lt;/i&gt;&lt;font color=&quot;#080808&quot; style=&quot;font-size: 18px;&quot;&gt;&lt;br style=&quot;font-size: 18px;&quot;&gt;&lt;/font&gt;&lt;font color=&quot;#080808&quot; style=&quot;font-size: 18px;&quot;&gt;                &lt;/font&gt;&lt;span style=&quot;color: rgb(0, 51, 179); font-size: 18px;&quot;&gt;if &lt;/span&gt;&lt;font color=&quot;#080808&quot; style=&quot;font-size: 18px;&quot;&gt;(e.&lt;/font&gt;&lt;span style=&quot;color: rgb(135, 16, 148); font-size: 18px;&quot;&gt;hash &lt;/span&gt;&lt;font color=&quot;#080808&quot; style=&quot;font-size: 18px;&quot;&gt;== hash &amp;amp;&amp;amp;&lt;br style=&quot;font-size: 18px;&quot;&gt;                    ((k = e.&lt;/font&gt;&lt;span style=&quot;color: rgb(135, 16, 148); font-size: 18px;&quot;&gt;key&lt;/span&gt;&lt;font color=&quot;#080808&quot; style=&quot;font-size: 18px;&quot;&gt;) == key || (key != &lt;/font&gt;&lt;span style=&quot;color: rgb(0, 51, 179); font-size: 18px;&quot;&gt;null &lt;/span&gt;&lt;font color=&quot;#080808&quot; style=&quot;font-size: 18px;&quot;&gt;&amp;amp;&amp;amp; key.equals(k))))&lt;br style=&quot;font-size: 18px;&quot;&gt;                    &lt;/font&gt;&lt;span style=&quot;color: rgb(0, 51, 179); font-size: 18px;&quot;&gt;break&lt;/span&gt;&lt;font color=&quot;#080808&quot; style=&quot;font-size: 18px;&quot;&gt;;&lt;br style=&quot;font-size: 18px;&quot;&gt;                p = e;&lt;br style=&quot;font-size: 18px;&quot;&gt;            }&lt;br style=&quot;font-size: 18px;&quot;&gt;        }&lt;br style=&quot;font-size: 18px;&quot;&gt;        &lt;/font&gt;&lt;span style=&quot;color: rgb(0, 51, 179); font-size: 18px;&quot;&gt;if &lt;/span&gt;&lt;font color=&quot;#080808&quot; style=&quot;font-size: 18px;&quot;&gt;(e != &lt;/font&gt;&lt;span style=&quot;color: rgb(0, 51, 179); font-size: 18px;&quot;&gt;null&lt;/span&gt;&lt;font color=&quot;#080808&quot; style=&quot;font-size: 18px;&quot;&gt;) { &lt;/font&gt;&lt;span style=&quot;color: rgb(140, 140, 140); font-style: italic; font-size: 18px;&quot;&gt;// existing mapping for key&lt;br style=&quot;font-size: 18px;&quot;&gt;&lt;/span&gt;&lt;span style=&quot;color: rgb(140, 140, 140); font-style: italic; font-size: 18px;&quot;&gt;            &lt;/span&gt;&lt;span style=&quot;color: rgb(0, 126, 138); font-size: 18px;&quot;&gt;V &lt;/span&gt;&lt;span style=&quot;color: rgb(0, 0, 0); font-size: 18px;&quot;&gt;oldValue &lt;/span&gt;&lt;font color=&quot;#080808&quot; style=&quot;font-size: 18px;&quot;&gt;= e.&lt;/font&gt;&lt;span style=&quot;color: rgb(135, 16, 148); font-size: 18px;&quot;&gt;value&lt;/span&gt;&lt;font color=&quot;#080808&quot; style=&quot;font-size: 18px;&quot;&gt;;&lt;br style=&quot;font-size: 18px;&quot;&gt;            &lt;/font&gt;&lt;span style=&quot;color: rgb(0, 51, 179); font-size: 18px;&quot;&gt;if &lt;/span&gt;&lt;font color=&quot;#080808&quot; style=&quot;font-size: 18px;&quot;&gt;(!onlyIfAbsent || &lt;/font&gt;&lt;span style=&quot;color: rgb(0, 0, 0); font-size: 18px;&quot;&gt;oldValue &lt;/span&gt;&lt;font color=&quot;#080808&quot; style=&quot;font-size: 18px;&quot;&gt;== &lt;/font&gt;&lt;span style=&quot;color: rgb(0, 51, 179); font-size: 18px;&quot;&gt;null&lt;/span&gt;&lt;font color=&quot;#080808&quot; style=&quot;font-size: 18px;&quot;&gt;)&lt;br style=&quot;font-size: 18px;&quot;&gt;                e.&lt;/font&gt;&lt;span style=&quot;color: rgb(135, 16, 148); font-size: 18px;&quot;&gt;value &lt;/span&gt;&lt;font color=&quot;#080808&quot; style=&quot;font-size: 18px;&quot;&gt;= value;&lt;br style=&quot;font-size: 18px;&quot;&gt;            afterNodeAccess(e);&lt;br style=&quot;font-size: 18px;&quot;&gt;            &lt;/font&gt;&lt;span style=&quot;color: rgb(0, 51, 179); font-size: 18px;&quot;&gt;return &lt;/span&gt;&lt;span style=&quot;color: rgb(0, 0, 0); font-size: 18px;&quot;&gt;oldValue&lt;/span&gt;&lt;font color=&quot;#080808&quot; style=&quot;font-size: 18px;&quot;&gt;;&lt;br style=&quot;font-size: 18px;&quot;&gt;        }&lt;br style=&quot;font-size: 18px;&quot;&gt;    }&lt;br style=&quot;font-size: 18px;&quot;&gt;    ++&lt;/font&gt;&lt;span style=&quot;color: rgb(135, 16, 148); font-size: 18px;&quot;&gt;modCount&lt;/span&gt;&lt;font color=&quot;#080808&quot; style=&quot;font-size: 18px;&quot;&gt;;&lt;/font&gt;&lt;/pre&gt;&lt;pre style=&quot;background-color: rgb(255, 255, 255); font-family: &amp;quot;jetbrains mono&amp;quot;, monospace; font-size: 18px;&quot;&gt;&lt;font color=&quot;#080808&quot; style=&quot;font-size: 18px;&quot;&gt;    &lt;/font&gt;&lt;i style=&quot;font-size: 18px; color: rgb(140, 140, 140);&quot;&gt;// 如果size达到扩容阈值，进行扩容&lt;/i&gt;&lt;font color=&quot;#080808&quot; style=&quot;font-size: 18px;&quot;&gt;&lt;br style=&quot;font-size: 18px;&quot;&gt;&lt;/font&gt;&lt;font color=&quot;#080808&quot; style=&quot;font-size: 18px;&quot;&gt;    &lt;/font&gt;&lt;span style=&quot;color: rgb(0, 51, 179); font-size: 18px;&quot;&gt;if &lt;/span&gt;&lt;font color=&quot;#080808&quot; style=&quot;font-size: 18px;&quot;&gt;(++&lt;/font&gt;&lt;span style=&quot;color: rgb(135, 16, 148); font-size: 18px;&quot;&gt;size &lt;/span&gt;&lt;font color=&quot;#080808&quot; style=&quot;font-size: 18px;&quot;&gt;&amp;gt; &lt;/font&gt;&lt;span style=&quot;color: rgb(135, 16, 148); font-size: 18px;&quot;&gt;threshold&lt;/span&gt;&lt;font color=&quot;#080808&quot; style=&quot;font-size: 18px;&quot;&gt;)&lt;br style=&quot;font-size: 18px;&quot;&gt;        resize();&lt;br style=&quot;font-size: 18px;&quot;&gt;    afterNodeInsertion(evict);&lt;br style=&quot;font-size: 18px;&quot;&gt;    &lt;/font&gt;&lt;span style=&quot;color: rgb(0, 51, 179); font-size: 18px;&quot;&gt;return null&lt;/span&gt;&lt;font color=&quot;#080808&quot; style=&quot;font-size: 18px;&quot;&gt;;&lt;br style=&quot;font-size: 18px;&quot;&gt;}&lt;/font&gt;&lt;/pre&gt;" style="text;html=1;align=left;verticalAlign=middle;resizable=0;points=[];autosize=1;strokeColor=none;fillColor=none;fontSize=18;" vertex="1" parent="1">
          <mxGeometry y="1820" width="850" height="1360" as="geometry" />
        </mxCell>
        <mxCell id="046RRQSVppgy1fABNuTt-7" value="&lt;pre style=&quot;background-color: rgb(255, 255, 255); color: rgb(8, 8, 8); font-family: &amp;quot;jetbrains mono&amp;quot;, monospace; font-size: 18px;&quot;&gt;&lt;span style=&quot;color: rgb(0, 51, 179); font-size: 18px;&quot;&gt;final &lt;/span&gt;&lt;span style=&quot;color: rgb(0, 0, 0); font-size: 18px;&quot;&gt;Node&lt;/span&gt;&amp;lt;&lt;span style=&quot;color: rgb(0, 126, 138); font-size: 18px;&quot;&gt;K&lt;/span&gt;,&lt;span style=&quot;color: rgb(0, 126, 138); font-size: 18px;&quot;&gt;V&lt;/span&gt;&amp;gt;[] &lt;span style=&quot;color: rgb(0, 98, 122); font-size: 18px;&quot;&gt;resize&lt;/span&gt;() {&lt;/pre&gt;&lt;pre style=&quot;background-color: rgb(255, 255, 255); color: rgb(8, 8, 8); font-family: &amp;quot;jetbrains mono&amp;quot;, monospace; font-size: 18px;&quot;&gt;    &lt;i style=&quot;font-size: 18px; color: rgb(140, 140, 140);&quot;&gt;// 当前HashMap的数组赋值给oldTap&lt;/i&gt;&lt;br style=&quot;font-size: 18px;&quot;&gt;    &lt;span style=&quot;color: rgb(0, 0, 0); font-size: 18px;&quot;&gt;Node&lt;/span&gt;&amp;lt;&lt;span style=&quot;color: rgb(0, 126, 138); font-size: 18px;&quot;&gt;K&lt;/span&gt;,&lt;span style=&quot;color: rgb(0, 126, 138); font-size: 18px;&quot;&gt;V&lt;/span&gt;&amp;gt;[] &lt;span style=&quot;color: rgb(0, 0, 0); font-size: 18px;&quot;&gt;oldTab &lt;/span&gt;= &lt;span style=&quot;color: rgb(135, 16, 148); font-size: 18px;&quot;&gt;table&lt;/span&gt;;&lt;/pre&gt;&lt;pre style=&quot;background-color: rgb(255, 255, 255); color: rgb(8, 8, 8); font-family: &amp;quot;jetbrains mono&amp;quot;, monospace; font-size: 18px;&quot;&gt;    &lt;i style=&quot;font-size: 18px; color: rgb(140, 140, 140);&quot;&gt;// 扩容前table的长度&lt;/i&gt;&lt;br style=&quot;font-size: 18px;&quot;&gt;    &lt;span style=&quot;color: rgb(0, 51, 179); font-size: 18px;&quot;&gt;int &lt;/span&gt;&lt;span style=&quot;color: rgb(0, 0, 0); font-size: 18px;&quot;&gt;oldCap &lt;/span&gt;= (&lt;span style=&quot;color: rgb(0, 0, 0); font-size: 18px;&quot;&gt;oldTab &lt;/span&gt;== &lt;span style=&quot;color: rgb(0, 51, 179); font-size: 18px;&quot;&gt;null&lt;/span&gt;) ? &lt;span style=&quot;color: rgb(23, 80, 235); font-size: 18px;&quot;&gt;0 &lt;/span&gt;: &lt;span style=&quot;color: rgb(0, 0, 0); font-size: 18px;&quot;&gt;oldTab&lt;/span&gt;.&lt;span style=&quot;color: rgb(135, 16, 148); font-size: 18px;&quot;&gt;length&lt;/span&gt;;&lt;/pre&gt;&lt;pre style=&quot;background-color: rgb(255, 255, 255); color: rgb(8, 8, 8); font-family: &amp;quot;jetbrains mono&amp;quot;, monospace; font-size: 18px;&quot;&gt;    &lt;i style=&quot;font-size: 18px; color: rgb(140, 140, 140);&quot;&gt;// 旧的扩容阈值&lt;/i&gt;&lt;br style=&quot;font-size: 18px;&quot;&gt;    &lt;span style=&quot;color: rgb(0, 51, 179); font-size: 18px;&quot;&gt;int &lt;/span&gt;&lt;span style=&quot;color: rgb(0, 0, 0); font-size: 18px;&quot;&gt;oldThr &lt;/span&gt;= &lt;span style=&quot;color: rgb(135, 16, 148); font-size: 18px;&quot;&gt;threshold&lt;/span&gt;;&lt;br style=&quot;font-size: 18px;&quot;&gt;    &lt;span style=&quot;color: rgb(0, 51, 179); font-size: 18px;&quot;&gt;int &lt;/span&gt;&lt;span style=&quot;color: rgb(0, 0, 0); font-size: 18px;&quot;&gt;newCap&lt;/span&gt;, newThr = &lt;span style=&quot;color: rgb(23, 80, 235); font-size: 18px;&quot;&gt;0&lt;/span&gt;;&lt;/pre&gt;&lt;pre style=&quot;background-color: rgb(255, 255, 255); color: rgb(8, 8, 8); font-family: &amp;quot;jetbrains mono&amp;quot;, monospace; font-size: 18px;&quot;&gt;    &lt;i style=&quot;font-size: 18px; color: rgb(140, 140, 140);&quot;&gt;// 如果当前HashMap的数组长度大于0（已经初始化后有长度）&lt;/i&gt;&lt;br style=&quot;font-size: 18px;&quot;&gt;    &lt;span style=&quot;color: rgb(0, 51, 179); font-size: 18px;&quot;&gt;if &lt;/span&gt;(&lt;span style=&quot;color: rgb(0, 0, 0); font-size: 18px;&quot;&gt;oldCap &lt;/span&gt;&amp;gt; &lt;span style=&quot;color: rgb(23, 80, 235); font-size: 18px;&quot;&gt;0&lt;/span&gt;) {&lt;/pre&gt;&lt;pre style=&quot;background-color: rgb(255, 255, 255); color: rgb(8, 8, 8); font-family: &amp;quot;jetbrains mono&amp;quot;, monospace; font-size: 18px;&quot;&gt;        &lt;i style=&quot;font-size: 18px; color: rgb(140, 140, 140);&quot;&gt;// 当前HashMap的数组的长度大于最大容量，将扩容阈值设置为MAX_VALUE，数组长度保持不变&lt;/i&gt;&lt;br style=&quot;font-size: 18px;&quot;&gt;        &lt;span style=&quot;color: rgb(0, 51, 179); font-size: 18px;&quot;&gt;if &lt;/span&gt;(&lt;span style=&quot;color: rgb(0, 0, 0); font-size: 18px;&quot;&gt;oldCap &lt;/span&gt;&amp;gt;= &lt;span style=&quot;color: rgb(135, 16, 148); font-style: italic; font-size: 18px;&quot;&gt;MAXIMUM_CAPACITY&lt;/span&gt;) {&lt;br style=&quot;font-size: 18px;&quot;&gt;            &lt;span style=&quot;color: rgb(135, 16, 148); font-size: 18px;&quot;&gt;threshold &lt;/span&gt;= &lt;span style=&quot;color: rgb(0, 0, 0); font-size: 18px;&quot;&gt;Integer&lt;/span&gt;.&lt;span style=&quot;color: rgb(135, 16, 148); font-style: italic; font-size: 18px;&quot;&gt;MAX_VALUE&lt;/span&gt;;&lt;br style=&quot;font-size: 18px;&quot;&gt;            &lt;span style=&quot;color: rgb(0, 51, 179); font-size: 18px;&quot;&gt;return &lt;/span&gt;&lt;span style=&quot;color: rgb(0, 0, 0); font-size: 18px;&quot;&gt;oldTab&lt;/span&gt;;&lt;br style=&quot;font-size: 18px;&quot;&gt;        }&lt;/pre&gt;&lt;pre style=&quot;background-color: rgb(255, 255, 255); color: rgb(8, 8, 8); font-family: &amp;quot;jetbrains mono&amp;quot;, monospace; font-size: 18px;&quot;&gt;        &lt;i style=&quot;font-size: 18px; color: rgb(140, 140, 140);&quot;&gt;// 如果旧的table长度*2小于最大容量且大于默认容量，则新的数组长度为原来的两倍&lt;/i&gt;&lt;br style=&quot;font-size: 18px;&quot;&gt;        &lt;span style=&quot;color: rgb(0, 51, 179); font-size: 18px;&quot;&gt;else if &lt;/span&gt;((&lt;span style=&quot;color: rgb(0, 0, 0); font-size: 18px;&quot;&gt;newCap &lt;/span&gt;= &lt;span style=&quot;color: rgb(0, 0, 0); font-size: 18px;&quot;&gt;oldCap &lt;/span&gt;&amp;lt;&amp;lt; &lt;span style=&quot;color: rgb(23, 80, 235); font-size: 18px;&quot;&gt;1&lt;/span&gt;) &amp;lt; &lt;span style=&quot;color: rgb(135, 16, 148); font-style: italic; font-size: 18px;&quot;&gt;MAXIMUM_CAPACITY &lt;/span&gt;&amp;amp;&amp;amp; &lt;span style=&quot;color: rgb(0, 0, 0); font-size: 18px;&quot;&gt;oldCap &lt;/span&gt;&amp;gt;= &lt;span style=&quot;color: rgb(135, 16, 148); font-style: italic; font-size: 18px;&quot;&gt;DEFAULT_INITIAL_CAPACITY&lt;/span&gt;)&lt;br style=&quot;font-size: 18px;&quot;&gt;            newThr = &lt;span style=&quot;color: rgb(0, 0, 0); font-size: 18px;&quot;&gt;oldThr &lt;/span&gt;&amp;lt;&amp;lt; &lt;span style=&quot;color: rgb(23, 80, 235); font-size: 18px;&quot;&gt;1&lt;/span&gt;; &lt;span style=&quot;color: rgb(140, 140, 140); font-style: italic; font-size: 18px;&quot;&gt;// double threshold&lt;br style=&quot;font-size: 18px;&quot;&gt;&lt;/span&gt;&lt;span style=&quot;color: rgb(140, 140, 140); font-style: italic; font-size: 18px;&quot;&gt;    &lt;/span&gt;}&lt;br style=&quot;font-size: 18px;&quot;&gt;    &lt;span style=&quot;color: rgb(0, 51, 179); font-size: 18px;&quot;&gt;else if &lt;/span&gt;(&lt;span style=&quot;color: rgb(0, 0, 0); font-size: 18px;&quot;&gt;oldThr &lt;/span&gt;&amp;gt; &lt;span style=&quot;color: rgb(23, 80, 235); font-size: 18px;&quot;&gt;0&lt;/span&gt;) &lt;span style=&quot;color: rgb(140, 140, 140); font-style: italic; font-size: 18px;&quot;&gt;// initial capacity was placed in threshold&lt;br style=&quot;font-size: 18px;&quot;&gt;&lt;/span&gt;&lt;span style=&quot;color: rgb(140, 140, 140); font-style: italic; font-size: 18px;&quot;&gt;        &lt;/span&gt;&lt;span style=&quot;color: rgb(0, 0, 0); font-size: 18px;&quot;&gt;newCap &lt;/span&gt;= &lt;span style=&quot;color: rgb(0, 0, 0); font-size: 18px;&quot;&gt;oldThr&lt;/span&gt;;&lt;br style=&quot;font-size: 18px;&quot;&gt;    &lt;span style=&quot;color: rgb(0, 51, 179); font-size: 18px;&quot;&gt;else &lt;/span&gt;{               &lt;span style=&quot;color: rgb(140, 140, 140); font-style: italic; font-size: 18px;&quot;&gt;// zero initial threshold signifies using defaults&lt;br style=&quot;font-size: 18px;&quot;&gt;&lt;/span&gt;&lt;span style=&quot;color: rgb(140, 140, 140); font-style: italic; font-size: 18px;&quot;&gt;        &lt;/span&gt;&lt;span style=&quot;color: rgb(0, 0, 0); font-size: 18px;&quot;&gt;newCap &lt;/span&gt;= &lt;span style=&quot;color: rgb(135, 16, 148); font-style: italic; font-size: 18px;&quot;&gt;DEFAULT_INITIAL_CAPACITY&lt;/span&gt;;&lt;br style=&quot;font-size: 18px;&quot;&gt;        newThr = (&lt;span style=&quot;color: rgb(0, 51, 179); font-size: 18px;&quot;&gt;int&lt;/span&gt;)(&lt;span style=&quot;color: rgb(135, 16, 148); font-style: italic; font-size: 18px;&quot;&gt;DEFAULT_LOAD_FACTOR &lt;/span&gt;* &lt;span style=&quot;color: rgb(135, 16, 148); font-style: italic; font-size: 18px;&quot;&gt;DEFAULT_INITIAL_CAPACITY&lt;/span&gt;);&lt;br style=&quot;font-size: 18px;&quot;&gt;    }&lt;br style=&quot;font-size: 18px;&quot;&gt;    &lt;span style=&quot;color: rgb(0, 51, 179); font-size: 18px;&quot;&gt;if &lt;/span&gt;(newThr == &lt;span style=&quot;color: rgb(23, 80, 235); font-size: 18px;&quot;&gt;0&lt;/span&gt;) {&lt;br style=&quot;font-size: 18px;&quot;&gt;        &lt;span style=&quot;color: rgb(0, 51, 179); font-size: 18px;&quot;&gt;float &lt;/span&gt;&lt;span style=&quot;color: rgb(0, 0, 0); font-size: 18px;&quot;&gt;ft &lt;/span&gt;= (&lt;span style=&quot;color: rgb(0, 51, 179); font-size: 18px;&quot;&gt;float&lt;/span&gt;)&lt;span style=&quot;color: rgb(0, 0, 0); font-size: 18px;&quot;&gt;newCap &lt;/span&gt;* &lt;span style=&quot;color: rgb(135, 16, 148); font-size: 18px;&quot;&gt;loadFactor&lt;/span&gt;;&lt;br style=&quot;font-size: 18px;&quot;&gt;        newThr = (&lt;span style=&quot;color: rgb(0, 0, 0); font-size: 18px;&quot;&gt;newCap &lt;/span&gt;&amp;lt; &lt;span style=&quot;color: rgb(135, 16, 148); font-style: italic; font-size: 18px;&quot;&gt;MAXIMUM_CAPACITY &lt;/span&gt;&amp;amp;&amp;amp; &lt;span style=&quot;color: rgb(0, 0, 0); font-size: 18px;&quot;&gt;ft &lt;/span&gt;&amp;lt; (&lt;span style=&quot;color: rgb(0, 51, 179); font-size: 18px;&quot;&gt;float&lt;/span&gt;)&lt;span style=&quot;color: rgb(135, 16, 148); font-style: italic; font-size: 18px;&quot;&gt;MAXIMUM_CAPACITY &lt;/span&gt;?(&lt;span style=&quot;color: rgb(0, 51, 179); font-size: 18px;&quot;&gt;int&lt;/span&gt;)&lt;span style=&quot;color: rgb(0, 0, 0); font-size: 18px;&quot;&gt;ft &lt;/span&gt;: &lt;span style=&quot;color: rgb(0, 0, 0); font-size: 18px;&quot;&gt;Integer&lt;/span&gt;.&lt;span style=&quot;color: rgb(135, 16, 148); font-style: italic; font-size: 18px;&quot;&gt;MAX_VALUE&lt;/span&gt;);&lt;br style=&quot;font-size: 18px;&quot;&gt;    }&lt;br style=&quot;font-size: 18px;&quot;&gt;    &lt;span style=&quot;color: rgb(135, 16, 148); font-size: 18px;&quot;&gt;threshold &lt;/span&gt;= newThr;&lt;br style=&quot;font-size: 18px;&quot;&gt;    &lt;span style=&quot;color: rgb(158, 136, 13); font-size: 18px;&quot;&gt;@SuppressWarnings&lt;/span&gt;({&lt;span style=&quot;color: rgb(6, 125, 23); font-size: 18px;&quot;&gt;&quot;rawtypes&quot;&lt;/span&gt;,&lt;span style=&quot;color: rgb(6, 125, 23); font-size: 18px;&quot;&gt;&quot;unchecked&quot;&lt;/span&gt;})&lt;br style=&quot;font-size: 18px;&quot;&gt;    &lt;span style=&quot;color: rgb(0, 0, 0); font-size: 18px;&quot;&gt;Node&lt;/span&gt;&amp;lt;&lt;span style=&quot;color: rgb(0, 126, 138); font-size: 18px;&quot;&gt;K&lt;/span&gt;,&lt;span style=&quot;color: rgb(0, 126, 138); font-size: 18px;&quot;&gt;V&lt;/span&gt;&amp;gt;[] &lt;span style=&quot;color: rgb(0, 0, 0); font-size: 18px;&quot;&gt;newTab &lt;/span&gt;= (&lt;span style=&quot;color: rgb(0, 0, 0); font-size: 18px;&quot;&gt;Node&lt;/span&gt;&amp;lt;&lt;span style=&quot;color: rgb(0, 126, 138); font-size: 18px;&quot;&gt;K&lt;/span&gt;,&lt;span style=&quot;color: rgb(0, 126, 138); font-size: 18px;&quot;&gt;V&lt;/span&gt;&amp;gt;[])&lt;span style=&quot;color: rgb(0, 51, 179); font-size: 18px;&quot;&gt;new &lt;/span&gt;Node[&lt;span style=&quot;color: rgb(0, 0, 0); font-size: 18px;&quot;&gt;newCap&lt;/span&gt;];&lt;br style=&quot;font-size: 18px;&quot;&gt;    &lt;span style=&quot;color: rgb(135, 16, 148); font-size: 18px;&quot;&gt;table &lt;/span&gt;= &lt;span style=&quot;color: rgb(0, 0, 0); font-size: 18px;&quot;&gt;newTab&lt;/span&gt;;&lt;br style=&quot;font-size: 18px;&quot;&gt;    &lt;span style=&quot;color: rgb(0, 51, 179); font-size: 18px;&quot;&gt;if &lt;/span&gt;(&lt;span style=&quot;color: rgb(0, 0, 0); font-size: 18px;&quot;&gt;oldTab &lt;/span&gt;!= &lt;span style=&quot;color: rgb(0, 51, 179); font-size: 18px;&quot;&gt;null&lt;/span&gt;) {&lt;br style=&quot;font-size: 18px;&quot;&gt;        &lt;span style=&quot;color: rgb(0, 51, 179); font-size: 18px;&quot;&gt;for &lt;/span&gt;(&lt;span style=&quot;color: rgb(0, 51, 179); font-size: 18px;&quot;&gt;int &lt;/span&gt;j = &lt;span style=&quot;color: rgb(23, 80, 235); font-size: 18px;&quot;&gt;0&lt;/span&gt;; j &amp;lt; &lt;span style=&quot;color: rgb(0, 0, 0); font-size: 18px;&quot;&gt;oldCap&lt;/span&gt;; ++j) {&lt;br style=&quot;font-size: 18px;&quot;&gt;            &lt;span style=&quot;color: rgb(0, 0, 0); font-size: 18px;&quot;&gt;Node&lt;/span&gt;&amp;lt;&lt;span style=&quot;color: rgb(0, 126, 138); font-size: 18px;&quot;&gt;K&lt;/span&gt;,&lt;span style=&quot;color: rgb(0, 126, 138); font-size: 18px;&quot;&gt;V&lt;/span&gt;&amp;gt; e;&lt;br style=&quot;font-size: 18px;&quot;&gt;            &lt;span style=&quot;color: rgb(0, 51, 179); font-size: 18px;&quot;&gt;if &lt;/span&gt;((e = &lt;span style=&quot;color: rgb(0, 0, 0); font-size: 18px;&quot;&gt;oldTab&lt;/span&gt;[j]) != &lt;span style=&quot;color: rgb(0, 51, 179); font-size: 18px;&quot;&gt;null&lt;/span&gt;) {&lt;br style=&quot;font-size: 18px;&quot;&gt;                &lt;span style=&quot;color: rgb(0, 0, 0); font-size: 18px;&quot;&gt;oldTab&lt;/span&gt;[j] = &lt;span style=&quot;color: rgb(0, 51, 179); font-size: 18px;&quot;&gt;null&lt;/span&gt;;&lt;br style=&quot;font-size: 18px;&quot;&gt;                &lt;span style=&quot;color: rgb(0, 51, 179); font-size: 18px;&quot;&gt;if &lt;/span&gt;(e.&lt;span style=&quot;color: rgb(135, 16, 148); font-size: 18px;&quot;&gt;next &lt;/span&gt;== &lt;span style=&quot;color: rgb(0, 51, 179); font-size: 18px;&quot;&gt;null&lt;/span&gt;)&lt;br style=&quot;font-size: 18px;&quot;&gt;                    &lt;span style=&quot;color: rgb(0, 0, 0); font-size: 18px;&quot;&gt;newTab&lt;/span&gt;[e.&lt;span style=&quot;color: rgb(135, 16, 148); font-size: 18px;&quot;&gt;hash &lt;/span&gt;&amp;amp; (&lt;span style=&quot;color: rgb(0, 0, 0); font-size: 18px;&quot;&gt;newCap &lt;/span&gt;- &lt;span style=&quot;color: rgb(23, 80, 235); font-size: 18px;&quot;&gt;1&lt;/span&gt;)] = e;&lt;br style=&quot;font-size: 18px;&quot;&gt;                &lt;span style=&quot;color: rgb(0, 51, 179); font-size: 18px;&quot;&gt;else if &lt;/span&gt;(e &lt;span style=&quot;color: rgb(0, 51, 179); font-size: 18px;&quot;&gt;instanceof &lt;/span&gt;&lt;span style=&quot;color: rgb(0, 0, 0); font-size: 18px;&quot;&gt;TreeNode&lt;/span&gt;)&lt;br style=&quot;font-size: 18px;&quot;&gt;                    ((&lt;span style=&quot;color: rgb(0, 0, 0); font-size: 18px;&quot;&gt;TreeNode&lt;/span&gt;&amp;lt;&lt;span style=&quot;color: rgb(0, 126, 138); font-size: 18px;&quot;&gt;K&lt;/span&gt;,&lt;span style=&quot;color: rgb(0, 126, 138); font-size: 18px;&quot;&gt;V&lt;/span&gt;&amp;gt;)e).split(&lt;span style=&quot;color: rgb(0, 51, 179); font-size: 18px;&quot;&gt;this&lt;/span&gt;, &lt;span style=&quot;color: rgb(0, 0, 0); font-size: 18px;&quot;&gt;newTab&lt;/span&gt;, j, &lt;span style=&quot;color: rgb(0, 0, 0); font-size: 18px;&quot;&gt;oldCap&lt;/span&gt;);&lt;br style=&quot;font-size: 18px;&quot;&gt;                &lt;span style=&quot;color: rgb(0, 51, 179); font-size: 18px;&quot;&gt;else &lt;/span&gt;{ &lt;span style=&quot;color: rgb(140, 140, 140); font-style: italic; font-size: 18px;&quot;&gt;// preserve order&lt;br style=&quot;font-size: 18px;&quot;&gt;&lt;/span&gt;&lt;span style=&quot;color: rgb(140, 140, 140); font-style: italic; font-size: 18px;&quot;&gt;                    &lt;/span&gt;&lt;span style=&quot;color: rgb(0, 0, 0); font-size: 18px;&quot;&gt;Node&lt;/span&gt;&amp;lt;&lt;span style=&quot;color: rgb(0, 126, 138); font-size: 18px;&quot;&gt;K&lt;/span&gt;,&lt;span style=&quot;color: rgb(0, 126, 138); font-size: 18px;&quot;&gt;V&lt;/span&gt;&amp;gt; loHead = &lt;span style=&quot;color: rgb(0, 51, 179); font-size: 18px;&quot;&gt;null&lt;/span&gt;, loTail = &lt;span style=&quot;color: rgb(0, 51, 179); font-size: 18px;&quot;&gt;null&lt;/span&gt;;&lt;br style=&quot;font-size: 18px;&quot;&gt;                    &lt;span style=&quot;color: rgb(0, 0, 0); font-size: 18px;&quot;&gt;Node&lt;/span&gt;&amp;lt;&lt;span style=&quot;color: rgb(0, 126, 138); font-size: 18px;&quot;&gt;K&lt;/span&gt;,&lt;span style=&quot;color: rgb(0, 126, 138); font-size: 18px;&quot;&gt;V&lt;/span&gt;&amp;gt; hiHead = &lt;span style=&quot;color: rgb(0, 51, 179); font-size: 18px;&quot;&gt;null&lt;/span&gt;, hiTail = &lt;span style=&quot;color: rgb(0, 51, 179); font-size: 18px;&quot;&gt;null&lt;/span&gt;;&lt;br style=&quot;font-size: 18px;&quot;&gt;                    &lt;span style=&quot;color: rgb(0, 0, 0); font-size: 18px;&quot;&gt;Node&lt;/span&gt;&amp;lt;&lt;span style=&quot;color: rgb(0, 126, 138); font-size: 18px;&quot;&gt;K&lt;/span&gt;,&lt;span style=&quot;color: rgb(0, 126, 138); font-size: 18px;&quot;&gt;V&lt;/span&gt;&amp;gt; next;&lt;br style=&quot;font-size: 18px;&quot;&gt;                    &lt;span style=&quot;color: rgb(0, 51, 179); font-size: 18px;&quot;&gt;do &lt;/span&gt;{&lt;br style=&quot;font-size: 18px;&quot;&gt;                        next = e.&lt;span style=&quot;color: rgb(135, 16, 148); font-size: 18px;&quot;&gt;next&lt;/span&gt;;&lt;br style=&quot;font-size: 18px;&quot;&gt;                        &lt;span style=&quot;color: rgb(0, 51, 179); font-size: 18px;&quot;&gt;if &lt;/span&gt;((e.&lt;span style=&quot;color: rgb(135, 16, 148); font-size: 18px;&quot;&gt;hash &lt;/span&gt;&amp;amp; &lt;span style=&quot;color: rgb(0, 0, 0); font-size: 18px;&quot;&gt;oldCap&lt;/span&gt;) == &lt;span style=&quot;color: rgb(23, 80, 235); font-size: 18px;&quot;&gt;0&lt;/span&gt;) {&lt;br style=&quot;font-size: 18px;&quot;&gt;                            &lt;span style=&quot;color: rgb(0, 51, 179); font-size: 18px;&quot;&gt;if &lt;/span&gt;(loTail == &lt;span style=&quot;color: rgb(0, 51, 179); font-size: 18px;&quot;&gt;null&lt;/span&gt;)&lt;br style=&quot;font-size: 18px;&quot;&gt;                                loHead = e;&lt;br style=&quot;font-size: 18px;&quot;&gt;                            &lt;span style=&quot;color: rgb(0, 51, 179); font-size: 18px;&quot;&gt;else&lt;br style=&quot;font-size: 18px;&quot;&gt;&lt;/span&gt;&lt;span style=&quot;color: rgb(0, 51, 179); font-size: 18px;&quot;&gt;                                &lt;/span&gt;loTail.&lt;span style=&quot;color: rgb(135, 16, 148); font-size: 18px;&quot;&gt;next &lt;/span&gt;= e;&lt;br style=&quot;font-size: 18px;&quot;&gt;                            loTail = e;&lt;br style=&quot;font-size: 18px;&quot;&gt;                        }&lt;br style=&quot;font-size: 18px;&quot;&gt;                        &lt;span style=&quot;color: rgb(0, 51, 179); font-size: 18px;&quot;&gt;else &lt;/span&gt;{&lt;br style=&quot;font-size: 18px;&quot;&gt;                            &lt;span style=&quot;color: rgb(0, 51, 179); font-size: 18px;&quot;&gt;if &lt;/span&gt;(hiTail == &lt;span style=&quot;color: rgb(0, 51, 179); font-size: 18px;&quot;&gt;null&lt;/span&gt;)&lt;br style=&quot;font-size: 18px;&quot;&gt;                                hiHead = e;&lt;br style=&quot;font-size: 18px;&quot;&gt;                            &lt;span style=&quot;color: rgb(0, 51, 179); font-size: 18px;&quot;&gt;else&lt;br style=&quot;font-size: 18px;&quot;&gt;&lt;/span&gt;&lt;span style=&quot;color: rgb(0, 51, 179); font-size: 18px;&quot;&gt;                                &lt;/span&gt;hiTail.&lt;span style=&quot;color: rgb(135, 16, 148); font-size: 18px;&quot;&gt;next &lt;/span&gt;= e;&lt;br style=&quot;font-size: 18px;&quot;&gt;                            hiTail = e;&lt;br style=&quot;font-size: 18px;&quot;&gt;                        }&lt;br style=&quot;font-size: 18px;&quot;&gt;                    } &lt;span style=&quot;color: rgb(0, 51, 179); font-size: 18px;&quot;&gt;while &lt;/span&gt;((e = next) != &lt;span style=&quot;color: rgb(0, 51, 179); font-size: 18px;&quot;&gt;null&lt;/span&gt;);&lt;br style=&quot;font-size: 18px;&quot;&gt;                    &lt;span style=&quot;color: rgb(0, 51, 179); font-size: 18px;&quot;&gt;if &lt;/span&gt;(loTail != &lt;span style=&quot;color: rgb(0, 51, 179); font-size: 18px;&quot;&gt;null&lt;/span&gt;) {&lt;br style=&quot;font-size: 18px;&quot;&gt;                        loTail.&lt;span style=&quot;color: rgb(135, 16, 148); font-size: 18px;&quot;&gt;next &lt;/span&gt;= &lt;span style=&quot;color: rgb(0, 51, 179); font-size: 18px;&quot;&gt;null&lt;/span&gt;;&lt;br style=&quot;font-size: 18px;&quot;&gt;                        &lt;span style=&quot;color: rgb(0, 0, 0); font-size: 18px;&quot;&gt;newTab&lt;/span&gt;[j] = loHead;&lt;br style=&quot;font-size: 18px;&quot;&gt;                    }&lt;br style=&quot;font-size: 18px;&quot;&gt;                    &lt;span style=&quot;color: rgb(0, 51, 179); font-size: 18px;&quot;&gt;if &lt;/span&gt;(hiTail != &lt;span style=&quot;color: rgb(0, 51, 179); font-size: 18px;&quot;&gt;null&lt;/span&gt;) {&lt;br style=&quot;font-size: 18px;&quot;&gt;                        hiTail.&lt;span style=&quot;color: rgb(135, 16, 148); font-size: 18px;&quot;&gt;next &lt;/span&gt;= &lt;span style=&quot;color: rgb(0, 51, 179); font-size: 18px;&quot;&gt;null&lt;/span&gt;;&lt;br style=&quot;font-size: 18px;&quot;&gt;                        &lt;span style=&quot;color: rgb(0, 0, 0); font-size: 18px;&quot;&gt;newTab&lt;/span&gt;[j + &lt;span style=&quot;color: rgb(0, 0, 0); font-size: 18px;&quot;&gt;oldCap&lt;/span&gt;] = hiHead;&lt;br style=&quot;font-size: 18px;&quot;&gt;                    }&lt;br style=&quot;font-size: 18px;&quot;&gt;                }&lt;br style=&quot;font-size: 18px;&quot;&gt;            }&lt;br style=&quot;font-size: 18px;&quot;&gt;        }&lt;br style=&quot;font-size: 18px;&quot;&gt;    }&lt;br style=&quot;font-size: 18px;&quot;&gt;    &lt;span style=&quot;color: rgb(0, 51, 179); font-size: 18px;&quot;&gt;return &lt;/span&gt;&lt;span style=&quot;color: rgb(0, 0, 0); font-size: 18px;&quot;&gt;newTab&lt;/span&gt;;&lt;br style=&quot;font-size: 18px;&quot;&gt;}&lt;/pre&gt;" style="text;html=1;align=left;verticalAlign=middle;resizable=0;points=[];autosize=1;strokeColor=none;fillColor=none;fontSize=18;" vertex="1" parent="1">
          <mxGeometry y="3230" width="970" height="1840" as="geometry" />
        </mxCell>
      </root>
    </mxGraphModel>
  </diagram>
</mxfile>
